<!--
 * Copyright (c) 2020, WSO2 Inc. (http://www.wso2.com). All Rights Reserved.
 *
 * This software is the property of WSO2 Inc. and its suppliers, if any.
 * Dissemination of any information or reproduction of any material contained
 * herein in any form is strictly forbidden, unless permitted by WSO2 expressly.
 * You may not alter or remove any copyright or other notice from copies of this content."
-->

<svg xmlns="http://www.w3.org/2000/svg" xmlns:xlink="http://www.w3.org/1999/xlink" version="1.1" id="Layer_1" x="0px"
     y="0px" viewBox="0 0 575.9 226" style="enable-background:new 0 0 575.9 226;" xml:space="preserve">
	<style type="text/css">
		.st0{fill:none;}
		.st1{opacity:0.16;fill:#DBDBDB;enable-background:new    ;}
		.st2{fill:#FFE783;}
		.st3{opacity:0.55;fill:#3AD29F;enable-background:new    ;}
		.st4{display:none;fill:url(#login_1_);}
		.st5{fill:#FFFFFF;}
		.st6{fill:#323232;}
		.st7{font-family:'Roboto-Regular';}
		.st8{font-size:13.0798px;}
		.st9{font-size:8.1749px;}
		.st10{fill:#FF7300;}
		.st11{font-size:7.6299px;}
		.st12{fill:none;stroke:#D4D4D5;}
		.st13{fill:none;stroke:#000000;stroke-width:0.25;stroke-miterlimit:10;}
		.st14{display:none;fill:none;}
		.st15{display:none;fill:none;stroke:#000000;stroke-width:0.25;stroke-miterlimit:10;}
		.st16{fill-rule:evenodd;clip-rule:evenodd;fill:#FF7300;}
		.st17{fill:#767676;}
	</style>
  <g id="authentication-demo-illustration" transform="translate(-1135.297 -250.5)">
	<path id="Intersection_2" class="st1"
          d="M1583.7,476.5c4.7-16.7,17.3-30,33.6-35.7c1-0.3,2-0.6,3-0.9c7.4-1.9,13.8-6.7,17.9-13.2   c11.3-18.6,35.5-24.5,54.1-13.2c18.6,11.3,24.5,35.5,13.2,54.1c-2,3.3-4.5,6.3-7.4,8.9H1583.7z M1140.1,476.5   c-12.2-26.8-0.4-58.5,26.5-70.7c18.4-8.4,39.9-5.7,55.6,7c18.7,15.5,24.8,41.6,15,63.8H1140.1z M1354,363.2c-0.8,0-1.6,0-2.4-0.1   c-22.8-1-42.5-16.4-48.9-38.3c0-0.2-0.1-0.3-0.1-0.5c-2.2-7.6-8.8-13.2-16.7-14c-15.8-1.6-30.1-10.2-39-23.4l0,0   c-7.2-10.7-10.3-23.6-8.6-36.4h106.6c1.9,3.5,5.5,5.8,9.5,5.8h0.2c4.1,0.1,7.9-2.2,9.9-5.8h107.6c0,23.8-15.5,44.9-38.3,51.9   c-0.4,0.1-0.8,0.2-1.2,0.3c-13.3,3.7-24.1,13.6-29,26.5C1395.7,349.7,1375.9,363.2,1354,363.2L1354,363.2z"/>
    <g id="Group_625" transform="translate(1348 265.439)">
			<path id="Path_95" class="st2" d="M273.7,85.6c-0.6,0-1.1-0.5-1.1-1.1c0-0.7-0.6-1.3-1.3-1.3c-0.6,0-1.1-0.5-1.1-1.1    s0.5-1.1,1.1-1.1c0,0,0,0,0,0c0.7,0,1.3-0.6,1.3-1.3c0-0.6,0.5-1.1,1.1-1.1c0.6,0,1.1,0.5,1.1,1.1c0,0.7,0.6,1.3,1.3,1.3    c0.6,0,1.1,0.5,1.1,1.1c0,0.6-0.5,1.1-1.1,1.1c-0.7,0-1.3,0.6-1.3,1.3C274.9,85.1,274.4,85.6,273.7,85.6z"/>
      <path id="Path_95-2" class="st2"
            d="M57.7,185.6c-0.6,0-1.1-0.5-1.1-1.1c0-0.7-0.6-1.3-1.3-1.3c-0.6,0-1.1-0.5-1.1-1.1    s0.5-1.1,1.1-1.1c0,0,0,0,0,0c0.7,0,1.3-0.6,1.3-1.3c0-0.6,0.5-1.1,1.1-1.1c0.6,0,1.1,0.5,1.1,1.1c0,0.7,0.6,1.3,1.3,1.3    c0.6,0,1.1,0.5,1.1,1.1c0,0.6-0.5,1.1-1.1,1.1c-0.7,0-1.3,0.6-1.3,1.3C58.9,185.1,58.4,185.6,57.7,185.6z"/>
      <path id="Path_95-3" class="st2"
            d="M69.7,22.6c-0.6,0-1.1-0.5-1.1-1.1c0-0.7-0.6-1.3-1.3-1.3c-0.6,0-1.1-0.5-1.1-1.1    s0.5-1.1,1.1-1.1c0,0,0,0,0,0c0.7,0,1.3-0.6,1.3-1.3c0-0.6,0.5-1.1,1.1-1.1c0.6,0,1.1,0.5,1.1,1.1c0,0.7,0.6,1.3,1.3,1.3    c0.6,0,1.1,0.5,1.1,1.1c0,0.6-0.5,1.1-1.1,1.1c-0.7,0-1.3,0.6-1.3,1.3C70.9,22.1,70.4,22.6,69.7,22.6z"/>
      <path id="Path_96"
            d="M280.5,203.9c-0.3,0-0.6-0.1-0.8-0.3l-2.4-2.4c-0.4-0.4-0.4-1.1,0-1.6l2.4-2.4c0.4-0.4,1.1-0.4,1.6,0    l2.4,2.4c0.4,0.4,0.4,1.1,0,1.6l-2.4,2.5C281.1,203.8,280.8,203.9,280.5,203.9z M279.6,200.3l0.9,0.9l0.9-0.9l-0.9-0.9    L279.6,200.3z"/>
      <path id="Path_97"
            d="M217.2,7.1c-0.3,0-0.6-0.1-0.8-0.3L214,4.3c-0.4-0.4-0.4-1.1,0-1.6l2.4-2.4c0.4-0.4,1.1-0.4,1.6,0l2.4,2.4    c0.4,0.4,0.4,1.1,0,1.6L218,6.8C217.8,7,217.5,7.1,217.2,7.1L217.2,7.1z M216.3,3.6l0.9,0.9l0.9-0.9l-0.9-0.9L216.3,3.6z"/>
      <path id="Path_98"
            d="M8.6,75.7c-0.3,0-0.6-0.1-0.8-0.3l-2.4-2.4c-0.4-0.4-0.4-1.1,0-1.6l2.4-2.4c0.4-0.4,1.1-0.4,1.6,0l2.4,2.4    c0.4,0.4,0.4,1.1,0,1.6l-2.4,2.4C9.2,75.6,8.9,75.7,8.6,75.7L8.6,75.7z M7.8,72.1L8.6,73l0.9-0.9l-0.9-0.9L7.8,72.1z"/>
      <path id="padlock" class="st3"
            d="M-24.5,149.2v-0.7c0-1.6-1.3-2.9-2.9-2.9c-1.6,0-2.9,1.3-2.9,2.9c0,0,0,0,0,0v0.7    c-0.4,0.2-0.6,0.6-0.6,1v3.5c0,0.6,0.5,1.2,1.2,1.2h4.7c0.6,0,1.2-0.5,1.2-1.2v-3.5C-24,149.8-24.2,149.4-24.5,149.2L-24.5,149.2z     M-27.5,146.7c1,0,1.8,0.8,1.8,1.8v0.6h-3.5v-0.6C-29.2,147.5-28.5,146.7-27.5,146.7L-27.5,146.7z M-26.9,152.4v0.8h-1.2v-0.8    c-0.4-0.3-0.4-0.9-0.1-1.2c0.3-0.4,0.9-0.4,1.2-0.1C-26.5,151.4-26.5,151.9-26.9,152.4C-26.8,152.3-26.9,152.3-26.9,152.4    L-26.9,152.4z"/>
      <pattern id="login_1_" xlink:href="#pattern" patternTransform="matrix(1 0 0 -1 426.703 -16265.8105)"></pattern>
      <rect id="login" x="43" y="-8.4" class="st4" width="223" height="219"/>
		</g>
	</g>
  <g id="Rectangle_618" transform="translate(748 -1182)">
	<path class="st5"
          d="M-470.5,1216.7h206c6.3,0,11.4,5.1,11.4,11.4l-2.5,180.1h-228.9l2.5-180.1   C-482,1221.8-476.9,1216.7-470.5,1216.7z"/>
    <path class="st0"
          d="M-470.5,1217h206c6.2,0,11.2,5,11.2,11.2l-2.5,179.9h-228.4l2.5-179.9C-481.7,1222-476.7,1217-470.5,1217z"/>
	</g>
  <text transform="matrix(1 0 0 1 360.8474 98.4803)" class="st6 st7 st8">Sign In</text>
  <text transform="matrix(1 0 0 1 291.0886 186.2234)" class="st6 st7 st9">Forgot </text>
  <text transform="matrix(1 0 0 1 316.8947 186.2234)" class="st10 st7 st9">Username</text>
  <text transform="matrix(1 0 0 1 353.9606 186.2234)" class="st6 st7 st9"> or </text>
  <text transform="matrix(1 0 0 1 365.4372 186.2234)" class="st10 st7 st9">Password</text>
  <text transform="matrix(1 0 0 1 401.6091 186.2234)" class="st6 st7 st9">?</text>
  <text transform="matrix(1 0 0 1 288.9089 362.2557)" class="st6 st11" style="font-family:'ArialMT';">Asgardeo by WSO2 © 2021</text>
  <g id="form.checkbox.unchecked" transform="translate(794 -942)">
	<text transform="matrix(1 0 0 1 -488.1966 1151.113)" class="st7 st11">Remember me on this computer</text>
    <g id="Group_510">
		<g id="Rectangle_133">
			<path class="st5"
                  d="M-500.7,1143.5h4.9c1.2,0,2.2,1,2.2,2.2v4.9c0,1.2-1,2.2-2.2,2.2h-4.9c-1.2,0-2.2-1-2.2-2.2v-4.9     C-502.9,1144.5-501.9,1143.5-500.7,1143.5z"/>
          <path class="st12"
                d="M-500.7,1143.8h4.9c1.1,0,1.9,0.9,1.9,1.9v4.9c0,1.1-0.9,1.9-1.9,1.9h-4.9c-1.1,0-1.9-0.9-1.9-1.9v-4.9     C-502.6,1144.6-501.8,1143.8-500.7,1143.8z"/>
		</g>
	</g>
	</g>
  <g id="Component_2" transform="translate(790 -1101)">
	<g id="Rectangle_25-2">
		<path class="st13"
              d="M-498.9,1215.8h179.5c1.2,0,2.2,1,2.2,2.2v15.3c0,1.2-1,2.2-2.2,2.2h-179.5c-1.2,0-2.2-1-2.2-2.2V1218    C-501.1,1216.8-500.1,1215.8-498.9,1215.8z"/>
      <path class="st14"
            d="M-498.9,1216.1h179.5c1.1,0,1.9,0.9,1.9,1.9v15.3c0,1.1-0.9,1.9-1.9,1.9h-179.5c-1.1,0-1.9-0.9-1.9-1.9V1218    C-500.8,1217-500,1216.1-498.9,1216.1z"/>
	</g>
    <text transform="matrix(1 0 0 1 -478.8416 1228.8201)" class="st7 st11">Username</text>
	</g>
  <g id="Component_3" transform="translate(790 -1051)">
	<g id="Rectangle_25-3">
		<path class="st15"
              d="M-498.9,1193.1h179.5c1.2,0,2.2,1,2.2,2.2v15.3c0,1.2-1,2.2-2.2,2.2h-179.5c-1.2,0-2.2-1-2.2-2.2v-15.3    C-501.1,1194.1-500.1,1193.1-498.9,1193.1z"/>
      <path class="st13"
            d="M-498.9,1193.4h179.5c1.1,0,1.9,0.9,1.9,1.9v15.3c0,1.1-0.9,1.9-1.9,1.9h-179.5c-1.1,0-1.9-0.9-1.9-1.9    v-15.3C-500.8,1194.2-500,1193.4-498.9,1193.4z"/>
	</g>
    <text transform="matrix(1 0 0 1 -478.8416 1206.0691)" class="st7 st11">Password</text>
	</g>
  <g>
	<g>
		<g>
			<polygon class="st10" points="419.5,58.1 420,58.9 419.4,59.9 420.5,59.9 421,60.7 417.9,60.7    "/>
          <polygon class="st10" points="415.6,60.7 416.1,59.9 417.2,59.9 416.7,58.9 417.2,58.1 418.7,60.7    "/>
          <polygon points="418.9,62.7 418.3,61.8 417.8,62.7 416.8,62.7 418.3,60 419.9,62.7    "/>
		</g>
      <g>
			<path d="M349.3,70.1v-2h5c0.2,0,0.4-0.1,0.6-0.2c0.2-0.2,0.2-0.4,0.2-0.6c0-0.2-0.1-0.4-0.2-0.6c-0.2-0.2-0.4-0.2-0.6-0.2h-2.2     c-0.8,0-1.4-0.3-2-0.8c-0.6-0.6-0.8-1.2-0.8-2c0-0.8,0.3-1.4,0.8-2c0.6-0.6,1.2-0.8,2-0.8h5v2h-5c-0.2,0-0.4,0.1-0.6,0.2     c-0.2,0.2-0.2,0.4-0.2,0.6c0,0.2,0.1,0.4,0.2,0.6c0.2,0.2,0.4,0.2,0.6,0.2h2.2c0.8,0,1.4,0.3,2,0.8c0.6,0.6,0.8,1.2,0.8,2     c0,0.8-0.3,1.4-0.8,2c-0.6,0.6-1.2,0.8-2,0.8H349.3z"/>
        <path d="M362.5,70.1c-1.3,0-2.4-0.4-3.3-1.4c-0.9-0.9-1.4-2-1.4-3.3s0.4-2.4,1.4-3.3c0.9-0.9,2-1.4,3.3-1.4h3.9v2h-3.9     c-0.7,0-1.4,0.3-1.9,0.8c-0.5,0.5-0.8,1.2-0.8,1.9s0.3,1.4,0.8,1.9c0.5,0.5,1.2,0.8,1.9,0.8h1.9v-1.7H363v-2h3.4v5.6H362.5z"/>
        <path d="M385.4,70.1l-4.5-4.4v4.4h-2v-9.3h5c0.8,0,1.4,0.3,2,0.8c0.6,0.6,0.8,1.2,0.8,2c0,0.8-0.3,1.4-0.8,2     c-0.2,0.2-0.5,0.4-0.8,0.6l-0.6,0.3l3.6,3.6H385.4z M383.9,64.4c0.2,0,0.4-0.1,0.6-0.2c0.2-0.2,0.2-0.4,0.2-0.6     c0-0.2-0.1-0.4-0.2-0.6c-0.2-0.2-0.4-0.2-0.6-0.2h-3v1.7H383.9z"/>
        <path d="M388.9,70.1v-9.3h3.9c1.3,0,2.4,0.4,3.3,1.4c0.9,0.9,1.4,2,1.4,3.3s-0.4,2.4-1.4,3.3c-0.9,0.9-2,1.4-3.3,1.4H388.9z      M392.8,68.1c0.7,0,1.4-0.3,1.9-0.8c0.5-0.5,0.8-1.2,0.8-1.9s-0.3-1.4-0.8-1.9c-0.5-0.5-1.2-0.8-1.9-0.8h-1.9v5.3H392.8z"/>
        <path d="M411.2,70.1c-1.3,0-2.4-0.4-3.3-1.4c-0.9-0.9-1.4-2-1.4-3.3s0.4-2.4,1.4-3.3c0.9-0.9,2-1.4,3.3-1.4     c1.3,0,2.4,0.4,3.3,1.4c0.9,0.9,1.4,2,1.4,3.3s-0.4,2.4-1.4,3.3C413.6,69.6,412.5,70.1,411.2,70.1z M411.2,62.8     c-0.7,0-1.4,0.3-1.9,0.8c-0.5,0.5-0.8,1.2-0.8,1.9s0.3,1.4,0.8,1.9c0.5,0.5,1.2,0.8,1.9,0.8c0.7,0,1.4-0.3,1.9-0.8     c0.5-0.5,0.8-1.2,0.8-1.9s-0.3-1.4-0.8-1.9C412.6,63,411.9,62.8,411.2,62.8z"/>
        <polygon points="338,70.1 340.3,70.1 343.4,64.6 346.6,70.1 348.8,70.1 343.4,60.8    "/>
        <polygon points="367.3,70.1 369.5,70.1 372.6,64.6 375.8,70.1 378,70.1 372.6,60.8    "/>
        <polygon
                points="398.3,70 398.3,60.8 406,60.8 406,62.7 400.3,62.7 400.3,64.4 404.6,64.4 404.6,66.4 400.3,66.4 400.3,68.1     406,68.1 406,70    "/>
		</g>
	</g>
    <g>
		<polygon class="st10"
                 points="407.6,73 406.4,76.2 405.1,72.8 403.8,76.2 402.7,73 402.2,73 403.8,77.5 405.1,74.1 406.4,77.5     408.1,73   "/>
      <path class="st10"
            d="M410.1,75.3c-0.2-0.2-1.3-0.7-1.4-0.8c-0.1-0.1-0.2-0.2-0.2-0.4c0-0.2,0.1-0.3,0.2-0.5    c0.1-0.1,0.3-0.2,0.5-0.2c0.1,0,0.2,0,0.3,0.1c0.1,0.1,0.2,0.1,0.3,0.2l0,0.1c0,0,0,0,0.1,0.1l0.4-0.2c-0.1-0.2-0.3-0.4-0.5-0.5    c-0.2-0.1-0.4-0.2-0.6-0.2c-0.4,0-0.7,0.1-0.9,0.3c-0.2,0.2-0.3,0.5-0.3,0.8c0,0.3,0.1,0.5,0.3,0.7c0.2,0.2,1.2,0.7,1.4,0.8    c0.2,0.1,0.2,0.3,0.2,0.5c0,0.2-0.1,0.4-0.2,0.6c-0.2,0.2-0.4,0.2-0.6,0.2c-0.2,0-0.4-0.1-0.5-0.2c-0.1-0.1-0.2-0.3-0.3-0.6    l-0.5,0.1c0,0.2,0.1,0.3,0.2,0.5c0.1,0.1,0.2,0.3,0.3,0.3c0.2,0.2,0.5,0.3,0.9,0.3c0.4,0,0.7-0.1,0.9-0.4c0.3-0.3,0.4-0.6,0.4-0.9    C410.4,75.7,410.3,75.4,410.1,75.3z"/>
      <path d="M415.5,75c0.1,0,0.2,0,0.3,0c0.3,0,0.6,0.1,0.8,0.3c0.2,0.2,0.3,0.5,0.3,0.7c0,0.2,0,0.4-0.1,0.6    c-0.1,0.2-0.3,0.4-0.6,0.7l-0.9,0.9h1.6v0.3h-2.4l1.3-1.4c0.3-0.3,0.4-0.5,0.5-0.6c0.1-0.1,0.1-0.3,0.1-0.4c0-0.2-0.1-0.4-0.2-0.5    c-0.1-0.1-0.3-0.2-0.5-0.2c-0.1,0-0.2,0-0.3,0.1C415.5,75.3,415.5,75,415.5,75z"/>
      <g>
			<ellipse class="st16" cx="412.9" cy="75.1" rx="1.9" ry="1.9"/>
        <path d="M412.9,72.7c-1.3,0-2.4,1.1-2.4,2.4s1.1,2.4,2.4,2.4c1.3,0,2.4-1.1,2.4-2.4S414.2,72.7,412.9,72.7z M412.9,77.1     c-1.1,0-1.9-0.9-1.9-1.9s0.9-1.9,1.9-1.9c1.1,0,1.9,0.9,1.9,1.9S414,77.1,412.9,77.1z"/>
        <path class="st5"
              d="M414.8,75l-0.7,0l-0.3,0.6l-0.9-2.1l-0.8,1.7l-1.1,0c0,0.1,0,0.2,0,0.3l1.3,0l0.6-1.3l0.8,2.1l0.6-1l0.5,0     c0,0,0-0.1,0-0.1C414.8,75.1,414.8,75,414.8,75z"/>
		</g>
	</g>
    <g>
		<path d="M398.3,74.9v-2h0.6c0.2,0,0.4,0,0.5,0.1c0.1,0.1,0.2,0.2,0.2,0.4c0,0.1,0,0.2-0.1,0.2s-0.1,0.1-0.2,0.2    c0.1,0,0.2,0.1,0.3,0.2s0.1,0.2,0.1,0.3c0,0.2-0.1,0.3-0.2,0.4c-0.1,0.1-0.3,0.2-0.5,0.2H398.3z M398.5,73.8h0.4    c0.1,0,0.2,0,0.3-0.1c0.1-0.1,0.1-0.1,0.1-0.2c0-0.1,0-0.2-0.1-0.2c-0.1,0-0.2-0.1-0.3-0.1h-0.4V73.8z M398.5,74v0.7h0.4    c0.1,0,0.2,0,0.3-0.1c0.1-0.1,0.1-0.1,0.1-0.3c0-0.2-0.1-0.4-0.4-0.4H398.5z"/>
      <path d="M400.4,74.5l0.3-1.1h0.3l-0.6,1.7c-0.1,0.2-0.2,0.4-0.4,0.4l0,0l-0.1,0v-0.2l0.1,0c0.1,0,0.2,0,0.2-0.1s0.1-0.1,0.1-0.2    l0.1-0.1l-0.5-1.5h0.3L400.4,74.5z"/>
	</g>
	</g>
  <path class="st17"
        d="M296.5,129.6h-0.4c0.2-2.2,1.7-4,3.9-4.5c-1.5-0.6-2.1-2.3-1.5-3.7c0.6-1.5,2.3-2.1,3.7-1.5  c1.5,0.6,2.1,2.3,1.5,3.7c-0.3,0.7-0.8,1.2-1.5,1.5c2.1,0.5,3.7,2.3,3.9,4.5h-0.4c-0.2-2.5-2.4-4.4-4.9-4.2  C298.5,125.6,296.7,127.4,296.5,129.6L296.5,129.6z M298.7,122.5c0,1.3,1.1,2.4,2.4,2.4s2.4-1.1,2.4-2.4s-1.1-2.4-2.4-2.4  c0,0,0,0,0,0C299.8,120.1,298.7,121.2,298.7,122.5z"/>
  <g>
	<g>
		<path class="st17"
              d="M303,151.3v-1.6c0-0.7-0.3-1.4-0.8-1.9c-0.5-0.5-1.1-0.8-1.8-0.8c0,0,0,0,0,0c-1.5,0-2.6,1.2-2.6,2.7v1.6    c-0.5,0.1-0.9,0.5-0.9,1.1v3.5c0,0.6,0.5,1.1,1.1,1.1h5c0.6,0,1.1-0.5,1.1-1.1v-3.5C304,151.8,303.6,151.4,303,151.3z     M298.2,149.7L298.2,149.7c0-1.2,1-2.2,2.2-2.2h0c0.6,0,1.1,0.2,1.5,0.6c0.4,0.4,0.7,1,0.7,1.6v1.6h-0.5v-1.6    c0-0.5-0.2-0.9-0.5-1.3c-0.3-0.3-0.8-0.5-1.2-0.5h0c-1,0-1.8,0.8-1.8,1.8v1.6h-0.5V149.7L298.2,149.7z M301.7,149.7v1.6h-2.7v-1.6    c0-0.7,0.6-1.4,1.3-1.4h0c0.3,0,0.7,0.1,0.9,0.4C301.6,149,301.7,149.4,301.7,149.7z M303.6,155.9L303.6,155.9    c0,0.4-0.3,0.7-0.7,0.7h-5c-0.4,0-0.7-0.3-0.7-0.7v-3.5c0-0.4,0.3-0.7,0.7-0.7h5c0.4,0,0.7,0.3,0.7,0.7V155.9L303.6,155.9z"/>
	</g>
	</g>
  <g>
		<g>
			<path class="st17"
                  d="M301.1,154c-0.1-0.3-0.4-0.6-0.7-0.6c-0.4,0-0.8,0.3-0.8,0.8c0,0.3,0.2,0.6,0.6,0.7v0.6    c0,0.1,0.1,0.2,0.2,0.2c0.1,0,0.2-0.1,0.2-0.2V155C301,154.9,301.3,154.4,301.1,154z M300.4,154.6c-0.2,0-0.3-0.2-0.3-0.3    c0-0.2,0.2-0.3,0.3-0.3c0.2,0,0.3,0.2,0.3,0.3C300.8,154.4,300.6,154.6,300.4,154.6z"/>
		</g>
	</g>
</svg>
