<?xml version="1.0" encoding="utf-8"?>

<!--
 * Copyright (c) 2021, WSO2 Inc. (http://www.wso2.org) All Rights Reserved.
 *
 * WSO2 Inc. licenses this file to you under the Apache License,
 * Version 2.0 (the "License"); you may not use this file except
 * in compliance with the License.
 * You may obtain a copy of the License at
 *
 *     http://www.apache.org/licenses/LICENSE-2.0
 *
 * Unless required by applicable law or agreed to in writing,
 * software distributed under the License is distributed on an
 * "AS IS" BASIS, WITHOUT WARRANTIES OR CONDITIONS OF ANY
 * KIND, either express or implied. See the License for the
 * specific language governing permissions and limitations
 * under the License.
-->

<svg xmlns="http://www.w3.org/2000/svg" width="416.775" height="281.518" viewBox="0 0 416.775 281.518">
    <g id="password-recovery-illustration" transform="translate(-683 -207.282)">
        <g id="_404-illustration" data-name="404-illustration" transform="translate(683 207.282)">
            <path id="Path_81"
                  d="M190.59,85.978a44.393,44.393,0,0,0-26.328-27.214,16.12,16.12,0,0,1-10.4-14.865v-.434A44.485,44.485,0,0,0,73.58,18.1,36.3,36.3,0,0,1,44.526,33.161q-.507,0-1.017.01A45.325,45.325,0,0,0,0,77.043,44.5,44.5,0,0,0,86.287,92.932a9.1,9.1,0,0,1,11.038-5.567l.172.048a9.082,9.082,0,0,1,6.615,9.467,44.492,44.492,0,1,0,86.467-10.915Z"
                  transform="translate(190.998 0) rotate(26)" fill="#dbdbdb" opacity="0.24"/>
            <path id="Path_36"
                  d="M53.126,17.192A27.578,27.578,0,1,0,7,45.936a20.929,20.929,0,0,1,5.2,14.671q-.036,1.071-.01,2.158A37.141,37.141,0,0,0,48.834,98.5a36.642,36.642,0,0,0,15.142-70,21.163,21.163,0,0,1-10.85-11.3Z"
                  transform="translate(108.557 201.004) rotate(-48)" fill="#dbdbdb" opacity="0.24"/>
            <g id="search_1_" data-name="search (1)" transform="translate(127.662 133)">
                <g id="Group_644" data-name="Group 644" transform="translate(18.161 5.519)">
                    <g id="Group_643" data-name="Group 643" transform="translate(0 0)">
                        <path id="Path_1988" data-name="Path 1988"
                              d="M77.254,111.251a.941.941,0,0,1,1.333,0,6.43,6.43,0,0,1,1.839,5.212.941.941,0,0,1-.935.847.589.589,0,0,1-.094,0,.941.941,0,0,1-.842-1.03,4.555,4.555,0,0,0-1.3-3.694A.941.941,0,0,1,77.254,111.251Z"
                              transform="translate(-76.981 -110.974)" fill="#7e8084"/>
                    </g>
                </g>
                <g id="Group_646" data-name="Group 646" transform="translate(3.952)">
                    <g id="Group_645" data-name="Group 645" transform="translate(0)">
                        <path id="Path_1989" data-name="Path 1989"
                              d="M10.757,0A10.757,10.757,0,1,1,0,10.757,10.757,10.757,0,0,1,10.757,0Zm0,19.632a8.875,8.875,0,1,0-8.876-8.875,8.875,8.875,0,0,0,8.876,8.875Z"
                              transform="translate(0)" fill="#7e8084"/>
                    </g>
                </g>
                <g id="Group_648" data-name="Group 648" transform="translate(0 16.746)">
                    <g id="Group_647" data-name="Group 647" transform="translate(0 0)">
                        <path id="Path_1990" data-name="Path 1990"
                              d="M336.984,343.822l6.837-6.837a.943.943,0,1,1,1.333,1.333l-6.837,6.837a.943.943,0,0,1-1.333-1.333Z"
                              transform="translate(-336.708 -336.709)" fill="#7e8084"/>
                    </g>
                </g>
            </g>
            <path id="Path_95"
                  d="M424.009,165.983a.762.762,0,0,1-.762-.762.916.916,0,0,0-.916-.916.762.762,0,0,1,0-1.524.916.916,0,0,0,.916-.916.762.762,0,1,1,1.524,0,.917.917,0,0,0,.917.917.762.762,0,0,1,0,1.524.917.917,0,0,0-.916.916.762.762,0,0,1-.762.762Z"
                  transform="translate(-9.651 -107.474)" fill="#ffe783"/>
            <path id="Path_96"
                  d="M68.308,418.879a.762.762,0,0,1-.537-.222L66.1,416.99a.762.762,0,0,1,0-1.076l1.666-1.666a.762.762,0,0,1,1.076,0l1.666,1.666a.762.762,0,0,1,0,1.076l-1.666,1.673a.762.762,0,0,1-.538.216Zm-.592-2.43.592.592.592-.592-.592-.59Z"
                  transform="translate(260.075 -280.977)" fill="rgba(96,210,250,0.7)"/>
            <path id="Path_96-2" data-name="Path_96"
                  d="M68.308,418.879a.762.762,0,0,1-.537-.222L66.1,416.99a.762.762,0,0,1,0-1.076l1.666-1.666a.762.762,0,0,1,1.076,0l1.666,1.666a.762.762,0,0,1,0,1.076l-1.666,1.673a.762.762,0,0,1-.538.216Zm-.592-2.43.592.592.592-.592-.592-.59Z"
                  transform="translate(102.605 -323.469)" fill="rgba(96,210,250,0.7)"/>
            <path id="Path_96-3" data-name="Path_96"
                  d="M68.308,418.879a.762.762,0,0,1-.537-.222L66.1,416.99a.762.762,0,0,1,0-1.076l1.666-1.666a.762.762,0,0,1,1.076,0l1.666,1.666a.762.762,0,0,1,0,1.076l-1.666,1.673a.762.762,0,0,1-.538.216Zm-.592-2.43.592.592.592-.592-.592-.59Z"
                  transform="translate(19.288 -335.967)" fill="rgba(96,210,250,0.7)"/>
            <path id="Path_97"
                  d="M394.614,110.105a.757.757,0,0,1-.537-.222l-1.666-1.666a.762.762,0,0,1,0-1.076l1.666-1.666a.762.762,0,0,1,1.076,0l1.666,1.666a.762.762,0,0,1,0,1.076l-1.666,1.666a.762.762,0,0,1-.537.222Zm-.593-2.43.593.592.592-.592-.592-.592Z"
                  transform="translate(-23.891 144.86)" fill="rgba(96,210,250,0.7)"/>
            <path id="Path_98"
                  d="M140.578,45.281a.761.761,0,0,1-.537-.222l-1.666-1.671a.762.762,0,0,1,0-1.076l1.666-1.666a.762.762,0,0,1,1.076,0l1.666,1.666a.762.762,0,0,1,0,1.076l-1.666,1.666a.757.757,0,0,1-.537.222Zm-.592-2.43.592.592.592-.592-.592-.592Z"
                  transform="translate(159.987 -13.164)" fill="rgba(96,210,250,0.7)"/>
            <path id="Path_98-2" data-name="Path_98"
                  d="M140.578,45.281a.761.761,0,0,1-.537-.222l-1.666-1.671a.762.762,0,0,1,0-1.076l1.666-1.666a.762.762,0,0,1,1.076,0l1.666,1.666a.762.762,0,0,1,0,1.076l-1.666,1.666a.757.757,0,0,1-.537.222Zm-.592-2.43.592.592.592-.592-.592-.592Z"
                  transform="translate(35.844 -39.826)" fill="rgba(96,210,250,0.7)"/>
            <path id="padlock"
                  d="M69.824,3.067V2.443a2.443,2.443,0,1,0-4.886,0v.624a.974.974,0,0,0-.488.842V6.84a.978.978,0,0,0,.977.977h3.908a.978.978,0,0,0,.977-.977V3.908a.974.974,0,0,0-.488-.842ZM67.377.977a1.467,1.467,0,0,1,1.466,1.466v.488H65.908V2.443A1.467,1.467,0,0,1,67.374.977Zm.488,4.695v.679h-.976V5.672a.733.733,0,1,1,.977,0Z"
                  transform="translate(162.173 273.701)" fill="#3ad29f" opacity="0.55"/>
            <path id="padlock-2" data-name="padlock"
                  d="M69.824,3.067V2.443a2.443,2.443,0,1,0-4.886,0v.624a.974.974,0,0,0-.488.842V6.84a.978.978,0,0,0,.977.977h3.908a.978.978,0,0,0,.977-.977V3.908a.974.974,0,0,0-.488-.842ZM67.377.977a1.467,1.467,0,0,1,1.466,1.466v.488H65.908V2.443A1.467,1.467,0,0,1,67.374.977Zm.488,4.695v.679h-.976V5.672a.733.733,0,1,1,.977,0Z"
                  transform="translate(-64.45 99.568)" fill="#3ad29f" opacity="0.55"/>
        </g>
        <g id="Group_1077" data-name="Group 1077" transform="translate(791.35 321.366) rotate(-34)">
            <rect id="Rectangle_748" data-name="Rectangle 748" width="102.48" height="125.809" rx="8" fill="#fff"/>
            <rect id="Rectangle_757" data-name="Rectangle 757" width="102.48" height="125.809" rx="8"
                  transform="translate(4.166 4.999)" fill="#fff" opacity="0.13"/>
            <rect id="Rectangle_749" data-name="Rectangle 749" width="86.65" height="4.999" rx="2.5"
                  transform="translate(8.332 20.829)" fill="#f9bfa2" opacity="0.4"/>
            <rect id="Rectangle_750" data-name="Rectangle 750" width="86.65" height="4.999" rx="2.5"
                  transform="translate(8.332 32.494)" fill="#f9bfa2" opacity="0.4"/>
            <rect id="Rectangle_751" data-name="Rectangle 751" width="86.65" height="4.999" rx="2.5"
                  transform="translate(8.332 44.158)" fill="#f9bfa2" opacity="0.4"/>
            <rect id="Rectangle_752" data-name="Rectangle 752" width="86.65" height="4.999" rx="2.5"
                  transform="translate(8.332 55.823)" fill="#f9bfa2" opacity="0.4"/>
            <rect id="Rectangle_753" data-name="Rectangle 753" width="86.65" height="4.999" rx="2.5"
                  transform="translate(8.332 67.487)" fill="#f9bfa2" opacity="0.4"/>
            <rect id="Rectangle_754" data-name="Rectangle 754" width="86.65" height="4.999" rx="2.5"
                  transform="translate(8.332 79.152)" fill="#f9bfa2" opacity="0.4"/>
            <rect id="Rectangle_755" data-name="Rectangle 755" width="86.65" height="4.999" rx="2.5"
                  transform="translate(8.332 90.816)" fill="#f9bfa2" opacity="0.4"/>
            <rect id="Rectangle_756" data-name="Rectangle 756" width="86.65" height="4.999" rx="2.5"
                  transform="translate(8.332 102.48)" fill="#f9bfa2" opacity="0.4"/>
        </g>
        <g id="Group_1079" data-name="Group 1079" transform="matrix(0.875, 0.485, -0.485, 0.875, 929.688, 261.882)">
            <rect id="Rectangle_748-2" data-name="Rectangle 748" width="102.48" height="125.809" rx="8"
                  transform="translate(0)" fill="#fff"/>
            <rect id="Rectangle_757-2" data-name="Rectangle 757" width="102.48" height="125.809" rx="8"
                  transform="translate(4.166 4.999)" fill="#fff" opacity="0.13"/>
            <rect id="Rectangle_749-2" data-name="Rectangle 749" width="86.65" height="4.999" rx="2.5"
                  transform="translate(8.332 20.829)" fill="#f9bfa2" opacity="0.4"/>
            <rect id="Rectangle_750-2" data-name="Rectangle 750" width="86.65" height="4.999" rx="2.5"
                  transform="translate(8.332 32.494)" fill="#f9bfa2" opacity="0.4"/>
            <rect id="Rectangle_751-2" data-name="Rectangle 751" width="86.65" height="4.999" rx="2.5"
                  transform="translate(8.332 44.158)" fill="#f9bfa2" opacity="0.4"/>
            <rect id="Rectangle_752-2" data-name="Rectangle 752" width="86.65" height="4.999" rx="2.5"
                  transform="translate(8.332 55.823)" fill="#f9bfa2" opacity="0.4"/>
            <rect id="Rectangle_753-2" data-name="Rectangle 753" width="86.65" height="4.999" rx="2.5"
                  transform="translate(8.332 67.487)" fill="#f9bfa2" opacity="0.4"/>
            <rect id="Rectangle_754-2" data-name="Rectangle 754" width="86.65" height="4.999" rx="2.5"
                  transform="translate(8.332 79.152)" fill="#f9bfa2" opacity="0.4"/>
            <rect id="Rectangle_755-2" data-name="Rectangle 755" width="86.65" height="4.999" rx="2.5"
                  transform="translate(8.332 90.816)" fill="#f9bfa2" opacity="0.4"/>
            <rect id="Rectangle_756-2" data-name="Rectangle 756" width="86.65" height="4.999" rx="2.5"
                  transform="translate(8.332 102.48)" fill="#f9bfa2" opacity="0.4"/>
        </g>
        <g id="email" transform="translate(850.468 310.272)">
            <path id="Path_2363" data-name="Path 2363"
                  d="M0,42.211,54.2,76.706a3.519,3.519,0,0,0,4.165,0l54.2-34.495L58.394.7a3.525,3.525,0,0,0-4.221,0Z"
                  transform="translate(0 0.002)" fill="#fd9141"/>
            <path id="Path_2364" data-name="Path 2364"
                  d="M77.39,0H7.035A7.047,7.047,0,0,0,0,7.035v77.39a3.519,3.519,0,0,0,3.518,3.518h77.39a3.519,3.519,0,0,0,3.518-3.518V7.035A7.043,7.043,0,0,0,77.39,0Z"
                  transform="translate(14.071 0)" fill="#eceff1"/>
            <g id="Group_1078" data-name="Group 1078" transform="translate(28.142 14.071)">
                <path id="Path_2365" data-name="Path 2365"
                      d="M3.518,7.035H52.766a3.518,3.518,0,0,0,0-7.035H3.518a3.518,3.518,0,1,0,0,7.035Z"
                      fill="#90a4ae"/>
                <path id="Path_2366" data-name="Path 2366"
                      d="M52.766,0H3.518a3.518,3.518,0,1,0,0,7.035H52.766a3.518,3.518,0,0,0,0-7.035Z"
                      transform="translate(0 14.071)" fill="#90a4ae"/>
                <path id="Path_2367" data-name="Path 2367"
                      d="M31.659,0H3.518a3.518,3.518,0,1,0,0,7.035H31.659a3.518,3.518,0,1,0,0-7.035Z"
                      transform="translate(0 28.142)" fill="#90a4ae"/>
            </g>
            <path id="Path_2368" data-name="Path 2368"
                  d="M58.366,34.495a3.519,3.519,0,0,1-4.165,0L0,0V63.319a7.038,7.038,0,0,0,7.035,7.035h98.5a7.038,7.038,0,0,0,7.035-7.035V0Z"
                  transform="translate(0 42.213)" fill="#ff7300"/>
            <path id="Path_2369" data-name="Path 2369"
                  d="M105.532,45.73H7.035A6.958,6.958,0,0,1,0,38.695,3.522,3.522,0,0,1,1.435,35.86L54.2.682a3.519,3.519,0,0,1,4.165,0L111.132,35.86a3.522,3.522,0,0,1,1.435,2.835A6.958,6.958,0,0,1,105.532,45.73Z"
                  transform="translate(0 66.837)" fill="#fd9141"/>
        </g>
        <ellipse id="Ellipse_253" data-name="Ellipse 253" cx="24.5" cy="24" rx="24.5" ry="24"
                 transform="translate(914.275 389.816)" fill="#f9c065"/>
        <g id="email_1_" data-name="email (1)" transform="translate(928.166 278.841) rotate(11)">
            <path id="Path_2370" data-name="Path 2370" d="M6.053,0,0,7.444,9.949,1.67Z"
                  transform="translate(15.584 22.607)" fill="#ff7300"/>
            <g id="Group_1080" data-name="Group 1080" transform="translate(0 0)">
                <path id="Path_2371" data-name="Path 2371"
                      d="M30.7.21a1.114,1.114,0,0,0-1.089-.12L.675,13.447a1.112,1.112,0,0,0-.027,2.033L27.362,28.836a1.131,1.131,0,0,0,.465.1,1.1,1.1,0,0,0,.561-.151,1.114,1.114,0,0,0,.548-.868L31.162,1.2A1.105,1.105,0,0,0,30.7.21Z"
                      transform="translate(4.453 0)" fill="#fd9141"/>
                <path id="Path_2372" data-name="Path 2372"
                      d="M1.115,3.3A1.113,1.113,0,0,1,.628,1.183,3.621,3.621,0,0,0,1.5.645,1.015,1.015,0,0,1,2.878.081a1.2,1.2,0,0,1,.606,1.527c-.073.2-.3.813-1.888,1.581A1.114,1.114,0,0,1,1.115,3.3Z"
                      transform="translate(12.029 31.057)" fill="#fde5da"/>
                <path id="Path_2373" data-name="Path 2373"
                      d="M4.521,2.917h-.08A9,9,0,0,1,.647,2.122,1.113,1.113,0,1,1,1.58.1,6.752,6.752,0,0,0,4.441.693,1.148,1.148,0,0,1,5.594,1.806,1.078,1.078,0,0,1,4.521,2.917Z"
                      transform="translate(4.104 32.491)" fill="#fde5da"/>
                <path id="Path_2374" data-name="Path 2374"
                      d="M1.851,3.726a1.118,1.118,0,0,1-.959-.545,12.268,12.268,0,0,1-.81-1.652A1.114,1.114,0,0,1,2.147.694a9.669,9.669,0,0,0,.661,1.351,1.116,1.116,0,0,1-.39,1.527A1.151,1.151,0,0,1,1.851,3.726Z"
                      transform="translate(0 27.828)" fill="#fde5da"/>
            </g>
            <path id="Path_2375" data-name="Path 2375" d="M18.923,0,0,20.234V28.94l5.65-6.1Z"
                  transform="translate(15.584 1.111)" fill="#fde5da"/>
        </g>
        <g id="padlock_3_" data-name="padlock (3)" transform="translate(931.285 402.843)">
            <path id="Subtraction_15" data-name="Subtraction 15"
                  d="M13.125,12H1.875A1.841,1.841,0,0,1,0,10.2V1.8A1.841,1.841,0,0,1,1.875,0h11.25A1.84,1.84,0,0,1,15,1.8v8.4A1.84,1.84,0,0,1,13.125,12ZM7.5,3.2A1.635,1.635,0,0,0,5.833,4.8,1.6,1.6,0,0,0,6.875,6.285V8.2a.626.626,0,0,0,1.251,0V6.285A1.6,1.6,0,0,0,9.167,4.8,1.636,1.636,0,0,0,7.5,3.2Zm0,2a.4.4,0,1,1,.417-.4A.409.409,0,0,1,7.5,5.2Z"
                  transform="translate(-0.01 7.973)" fill="#fff"/>
            <path id="Path_2377" data-name="Path 2377"
                  d="M15.373,8.748a.625.625,0,0,1-.625-.625V5a3.749,3.749,0,1,0-7.5,0V8.123a.625.625,0,0,1-1.25,0V5A5,5,0,1,1,16,5V8.123A.625.625,0,0,1,15.373,8.748Z"
                  transform="translate(-3.5)" fill="#fff"/>
        </g>
        <g id="reset_1_" data-name="reset (1)" transform="translate(921.724 397.11)">
            <g id="Group_1082" data-name="Group 1082" transform="translate(0 0)">
                <g id="Group_1081" data-name="Group 1081">
                    <path id="Path_2391" data-name="Path 2391"
                          d="M33.711,4.212H26.343V11.58h2.105V7.759a14.573,14.573,0,0,1,3.158,9.084A14.743,14.743,0,1,1,23.827,3.855l1-1.854a16.841,16.841,0,1,0,8.886,14.842A16.661,16.661,0,0,0,29.992,6.317h3.719Z"
                          transform="translate(-0.025 0)" fill="#fff"/>
                </g>
            </g>
        </g>
    </g>
</svg>
