<!--
 * Copyright (c) 2020, WSO2 Inc. (http://www.wso2.com). All Rights Reserved.
 *
 * This software is the property of WSO2 Inc. and its suppliers, if any.
 * Dissemination of any information or reproduction of any material contained
 * herein in any form is strictly forbidden, unless permitted by WSO2 expressly.
 * You may not alter or remove any copyright or other notice from copies of this content."
-->

<svg id="user-management-illustration" xmlns="http://www.w3.org/2000/svg" viewBox="0 0 193 154.9">
    <defs>
        <style>
            .cls-1{fill:none;}.cls-2,.cls-6{fill:#fff;}.cls-3{fill:#303030;}.cls-4{fill:#ff7300;}.cls-5,.cls-6{isolation:isolate;}.cls-6{font-size:13px;font-family:ArialMT,
            Arial;}
        </style>
    </defs>
    <g id="Group_691" data-name="Group 691">
        <g id="Path_1992" data-name="Path 1992">
            <path class="cls-1" d="M95.9,0A69.9,69.9,0,1,1,26,69.9h0A69.91,69.91,0,0,1,95.9,0Z"
                  transform="translate(0)"/>
            <path class="cls-2"
                  d="M95.9,0h1.33c1.23,0,2.45.08,3.66.17l-.14,2C99.15,2.06,97.51,2,95.9,2V0Zm12.92,1.19c1,.19,2,.39,3,.62h.54l1.39.35-.51,1.93c-1.56-.41-3.15-.76-4.73-1.06ZM121.3,4.76l1,.39h0l.07,0h0l.07,0h0l.06,0h0l0,0h0l0,0h0l0,0h0l0,0h0l0,0h0l.06,0h0l.06,0h0l0,0h.18l0,0h0l.07,0h0l.07,0h0l.08,0h0c.78.34,1.55.69,2.32,1.06L125,8.55c-1.45-.69-3-1.34-4.45-1.93Zm11.6,5.83h0l0,0h0l0,0h0l0,0h.24l0,0h0l0,0h.26l0,0h0l0,0h.18l0,0h0l0,0h0l0,0h.11l0,0h.2v0h0v0h.14l0,0h0l0,0h0l0,0h.07l0,0h0l0,0h0l0,0h0l0,0h0l0,0h0l0,0h0l0,0h0l0,0h0l0,0h0l0,0h0l.07,0h0c.65.45,1.3.9,1.94,1.37L135.87,15c-1.31-.95-2.66-1.87-4-2.72Zm10.32,7.87q1.84,1.7,3.56,3.52l-1.46,1.37c-1.1-1.17-2.26-2.32-3.45-3.42Zm8.7,9.64c.38.5.74,1,1.1,1.52h0l0,.06h0l0,.06h0l0,.07h0l0,.06h0l.05.06h0l0,.06h0l0,0h0l0,0h0l0,0h0l0,0h0l0,0h0l0,0h0l0,0h0l0,0h0l0,0h0l0,0h0v0h0l0,0h0l0,0h0l0,0h0l0,0h0l0,0h0l0,0h0l0,0h0l0,0h0l0,0h0l0,0h0l0,0h0l0,0h0l0,.06h0l0,.06h0l0,0h0l0,0h0l0,0h0l0,0h0l0,0h0l0,0h0l0,0h0l0,0h0v0h0l0,0h0l0,0h0l0,0h0l0,0h0l0,0h0l0,0h0l0,0h0l0,0h0l0,.07h0l0,.06h0c.15.22.29.44.43.66l-1.68,1.08c-.87-1.36-1.8-2.7-2.77-4Zm6.77,11.07c.69,1.41,1.34,2.85,1.93,4.3h0v0h0l0,.07h0l0,.06h0l0,.07h0l-1.85.75c-.61-1.5-1.27-3-2-4.44Zm4.6,12.14c.17.6.33,1.21.47,1.81h0v0h0v0h0l0,0h0v0h0v0h0v0h0v0h0v0h0v0h0v.05h0l0,.08h0c.21.85.39,1.71.56,2.57l-2,.39c-.31-1.58-.69-3.17-1.11-4.73Zm2.26,12.79c.13,1.54.21,3.09.23,4.66h0v0h0v0h0v0h0v0h0v0h0v0h0v0h0v0h0v0h0l-2,0c0-1.61-.1-3.25-.23-4.85l2-.16Zm-2.11,12.78,2,.2c-.13,1.23-.29,2.46-.48,3.68h0l0,.1h0v0h0v0h0v0h0v0h0v0h0v0h0v0h0v0h0v0h0v0h0v0h0v0h0v0h0v0h0v0h0v0h0v0h0c0,.16,0,.32-.08.48l-2-.34C163.05,80.1,163.27,78.48,163.44,76.88ZM161,89.25l1.92.57h0v0h0v0h0v0h0v0h0v0h0v0h0v0h0v0h0v0h0v0h0q-.67,2.19-1.47,4.32l-1.88-.7C160,92.34,160.53,90.79,161,89.25Zm-4.7,11.69,1.78.92,0,.09h0l0,.07h0l0,0h0l0,0h0v0h0v0h0v0h0l0,0h0v.08h0v0h0v0h0v0h0l0,0h0v0h0v0h0v0h0l0,0h0l0,0h0l0,0h0v0h0v0h0v0h0l0,0h0l0,0h0l0,0h0l0,0h0l0,.06h0l0,.06h0l0,.06h0l0,.06h0l0,.07h0l0,.07h0l0,.07h0l0,0h0l0,.07h0l0,0h0l0,0h0l0,.07h0l0,.07h0l0,.07h0l0,.06h0l0,.06h0l-.08.14h0l0,.07h0c-.4.71-.81,1.42-1.24,2.12l-1.71-1C154.75,103.8,155.55,102.38,156.29,100.94Zm-6.79,10.63,1.58,1.23,0,0h0l0,0h0v0h0v0l0,0h0v0h0l0,0h0l0,0h0l0,0h0l0,0h0l0,0h0c-.94,1.19-1.92,2.36-2.94,3.49l-1.49-1.34C147.46,114.09,148.51,112.84,149.5,111.57Zm-8.63,9.19,1.32,1.5c-1.25,1.1-2.53,2.16-3.86,3.18l-1.21-1.59C138.4,122.87,139.66,121.83,140.87,120.76Zm-10.18,7.45,1,1.72c-1.23.73-2.48,1.43-3.76,2.09h0l-.07,0h0l-.07,0h0l-.07,0h0l-.07,0h0l-.06,0h0l-.06,0h0l-.06,0h0l-.06,0h0l0,0-.9-1.79C127.87,129.83,129.3,129,130.69,128.21Zm-11.38,5.43.69,1.88-.93.34h-.54l0,0h-.17l0,0h-.71l0,0h0c-.75.24-1.51.48-2.27.7l-.55-1.93C116.25,134.71,117.8,134.2,119.31,133.64Zm-12.19,3.23.33,2h0l-.11,0h0l-.19,0h-.08c-1.51.24-3,.44-4.58.58l-.18-2C103.91,137.34,105.53,137.13,107.12,136.87Zm-17.43.64c1.6.15,3.23.24,4.85.27l0,2-.78,0h-.3c-1.16,0-2.31-.11-3.46-.21h-.45Zm-12.4-2.3c1.55.44,3.14.83,4.72,1.16l-.41,2-.71-.15h0l0,0H80.4c-1.23-.28-2.45-.59-3.65-.94Zm-11.75-4.57c1.44.73,2.93,1.4,4.42,2l-.77,1.85q-.76-.31-1.53-.66h0l-.07,0h0l-.07,0h0l-.07,0h-.11l0,0h0l0,0h0l0,0h0l-.06,0h0l0,0h-.56l0,0H65.9l0,0h-.41l0,0h0l0,0h0l-.07,0h0l-.07,0h0l-.07,0h0l-.47-.24ZM54.84,124c1.28,1,2.62,1.91,4,2.8l-1.1,1.67h-.05l0,0h0l0,0h0l0,0h0l0,0h0l-.06,0h0l-.06,0h0l-.06,0h0l-.06-.05h0l-.06,0h0L57,128h0l-.06,0h0l-.07,0h0l-.06,0h0l-.06,0h0l0,0h0l0,0h0l-.06,0h0l0,0h0l0,0h0l0,0h0v0h0l0,0h0l0,0h-.05l0,0h-.12l0,0H56l0,0h0l0,0h0l0,0h0l0,0h0l0,0h0l0,0h0l0,0h0l-.06,0h0c-.7-.49-1.38-1-2-1.5Zm-9.29-8.53c1.08,1.19,2.22,2.36,3.38,3.48l-1.38,1.44-.76-.73h0l0-.06h0l-.06,0h0l0,0h0l0,0h0l-.06,0h0l0,0h0l0,0h0l0,0h0l0,0h0l0,0h0l0,0h0l0,0h0l0,0h0l0,0h0l0,0h0l0,0h0l0,0h0l0,0h0l0,0h0l0,0h0l0,0h0v0h0l0,0h0l0,0h0l0,0h0l0,0h0l0,0h0l0,0h0v0h0l0,0h0v0l0,0h0l0,0v0h0l0,0h0l0,0h0l0,0h0l0,0v0h0l0,0h0v0h0l0,0h0l0,0v0h0l0,0h0v0h0l0,0h0l0,0h0l0,0h0v0h0l0,0h0v0l0,0h0l0,0h0v0h0l0,0h0v0l0,0h0v0h0v0h0l0,0h0l0,0v0h0l0,0h0v0h0l0,0h0l0,0h0l0,0h0l0,0h0l0,0h0l0,0h0l0,0h0l0,0h0l0,0h0l0,0h0l0,0h0l0,0h0l0,0h0l0,0h0l0,0h0l-.15-.17ZM38,105.36c.85,1.37,1.75,2.73,2.69,4l-1.62,1.17c-1-1.36-1.9-2.75-2.77-4.17ZM32.42,94c.57,1.51,1.21,3,1.89,4.47l-1.81.85v0h0v0h0l0,0h0v0h0l0,0h0v0h0v0h0v0h0l0,0h0v0h0v0h0v0h0v0h0v0h0l0,0h0v0h0l0,0h0v0h0v0h0v0h0l0,0h0v0h0l0-.07h0l0-.07h0v0h0v0h0v0h0l0,0h0v0h0l0,0h0v0h0l0,0h0v0h0l0,0h0v0h0l0-.06h0l0-.06h0l0-.07h0v0h0v0h0v0h0v0h0v0h0l0,0h0v0h0l0,0h0v0h0l0,0h0v0h0l0-.06h0v0h0l0,0h0v0h0v0h0v0h0v0h0v0h0v0h0v0h0V96.9h0v0h0v0h0v-.1h0v0h0v0h0v0h0v0h0v0h0v-.06h0l0,0h0v0h0l0,0h0v0h0l0,0h0v0h0l0,0h0v0h0l0-.07h0c-.18-.45-.36-.9-.53-1.35ZM29.06,81.89c.28,1.59.62,3.19,1,4.75l-1.94.49c-.36-1.41-.67-2.84-.94-4.29h0v0h0v0h0v0h0v0h0v0h0v0h0v0h0v0h0v0h0v0h0c0-.08,0-.16,0-.24ZM26,69.3l2,0v.58c0,1.42,0,2.86.13,4.28l-2,.12c0-.53-.06-1.06-.08-1.59h0v-.14h0v0h0v-.11h0v0h0v0h0v-.08h0v0h0v0h0v0h0v0h0v0h0v0h0v0h0V72h0v0h0v0h0v0h0v0h0v0h0v-.1h0v0h0v0h0v0h0v0h0v0h0v-.08h0v0h0v0h0v0h0v0h0v0h0v0h0v0h0v0h0v0h0v0h0v0h0v0h0v0h0v-.06h0v0h0v0h0v-.07h0v0h0v0h0v0h0v0h0v0h0v0h0v0h0v0h0v0h0v0h0v0h0v-.07h0v0h0v0h0v0h0v0h0v0h0v0h0v0h0v0h0v0h0v-.07h0v0h0v-.37h0v0Zm1.3-12.91,2,.38c-.31,1.58-.57,3.2-.76,4.8l-2-.24c.06-.48.12-1,.19-1.44h0v-.06h0v0h0v0h0v0h0v0h0v0h0v0h0v0h0v0h0v0h0v0h0v0h0v0h0v0h0v0h0v0h0c.07-.47.15-.94.23-1.41h0v0h0v0h0v0h0v0h0v0h0v0h0v0h0v0h0v0h0v-.05h0v0h0C27.17,57.1,27.23,56.74,27.3,56.39ZM31,43.94l1.86.74c-.6,1.5-1.16,3-1.65,4.57l-1.9-.61c.21-.66.43-1.32.66-2h0l0-.08h0l0-.05h0v0h0v-.05h0v0h0v0h0v0h0v0h0v0h0v0h0v0h0v0h0v0h0v0h0v0h0v0h0v0h0v0h0l0,0h0l0,0h0v0h0v0h0v0h0v0h0v0h0v0h0v0h0v0h0v0h0v0h0v0h0v0h0v0h0v0h0l0,0h0v0h0L31,43.94ZM36.9,32.39l1.69,1.07c-.87,1.36-1.69,2.77-2.46,4.19l-1.76-.95.26-.48h0l0-.07h0l0-.06h0l0,0h0v0h0v0h0v0h0v-.06h0v0h0l0,0h0v0l0,0h0v0h0l0-.06h0l0-.06h0l0-.06h0l0-.06h0l0-.07h0c.26-.45.52-.9.79-1.34h0l0-.07h0l0-.07h0l0-.06h0l0-.06h0v0h0l0,0h0l0,0h0v0h0l0,0v0h0v0h0v0h0v0h0v0h0v0h0v0h0l0-.06h0l0-.06h0l0-.06h0Zm8-10.26,1.46,1.37c-1.1,1.18-2.17,2.41-3.19,3.66L41.58,25.9l1.25-1.5h0l.05-.06h0l0-.06h0l0-.05h0l.05,0h0l0-.05h0l0-.05h0l0,0h0l0,0h0l0,0h0l0,0h0l0,0h0l0,0h0l0,0h0l0,0h0l0,0h0l0,0h0l0,0h0l0,0h0l0,0h0l0,0h0l0,0h0l0,0h0l0,0h0l0,0h0l0,0h0l0-.06h0C44.07,23,44.46,22.56,44.86,22.13Zm9.71-8.61,1.19,1.61c-1.3.95-2.58,2-3.81,3l-1.3-1.52c.86-.73,1.74-1.44,2.63-2.13h0l.06-.05h0l0,0h0l0,0h.06l0,0h0l0,0h0l0,0h0l0,0h0l0,0h0l.06,0h0ZM65.7,6.84l.87,1.8c-1.45.7-2.9,1.46-4.3,2.26l-1-1.74h0l.06,0h0l.06,0h0l.07,0h0l.07,0h0l.07,0h0l.06,0h0l.23-.13h0l.07,0h0l.07,0h0l.07,0h0l.06,0h0l.06,0h0l.06,0h0l0,0h0l0,0h.11l0,0h0l0,0h0l0,0h0l0,0h0l0,0h.11l0,0h0l0,0h0l0,0H63l0,0h0l0,0h.18l0,0h.18l0,0H64l0,0h.12l0,0h.15l0,0h0l0,0h.08l0,0h0l0,0h.07l0,0h0l0,0h.08l0,0h0Zm12.18-4.5.52,1.94c-1.56.41-3.12.89-4.65,1.41L73.1,3.8l.59-.2h0l0,0h0l0,0H77ZM90.68.19l.15,2c-1.61.11-3.23.29-4.83.52l-.28-2L87.54.49h2.12l1-.08Z"
                  transform="translate(0)"/>
        </g>
        <rect id="Rectangle_659" data-name="Rectangle 659" class="cls-3" x="40" y="113.79" width="112" height="28"
              rx="4"/>
        <g id="Group_657" data-name="Group 657">
            <rect id="Rectangle_656" data-name="Rectangle 656" class="cls-2" x="77" y="50.79" width="42" height="42"
                  rx="4"/>
            <g id="user">
                <path id="Path_1984" data-name="Path 1984" class="cls-4"
                      d="M101.51,82.9H86.79V78.26a4.1,4.1,0,0,1,4.09-4.09h5.63a8.11,8.11,0,1,0-6-2.72,6.82,6.82,0,0,0-6.42,6.81v6a1.36,1.36,0,0,0,1.36,1.36h16.09a1.36,1.36,0,0,0,0-2.72Zm-5-22.14a5.35,5.35,0,0,1,.15,10.69h-.43a5.35,5.35,0,0,1,.28-10.69Z"
                      transform="translate(0)"/>
                <path id="settings" class="cls-4"
                      d="M111.52,77l-.84-.1a4.78,4.78,0,0,0-.26-.62l.52-.67a.66.66,0,0,0,0-.88l-.7-.7a.67.67,0,0,0-.89-.06l-.67.52a4.6,4.6,0,0,0-.61-.25l-.12-.85a.66.66,0,0,0-.66-.59h-1a.67.67,0,0,0-.67.59l-.1.84a4.73,4.73,0,0,0-.62.25l-.67-.52a.67.67,0,0,0-.88.06l-.7.7a.66.66,0,0,0-.06.89l.52.67a3.56,3.56,0,0,0-.25.61L102,77a.67.67,0,0,0-.59.67v1a.66.66,0,0,0,.59.66l.84.11a4.11,4.11,0,0,0,.25.61l-.52.67a.67.67,0,0,0,.06.89l.7.7a.67.67,0,0,0,.89.06l.66-.52a4.91,4.91,0,0,0,.63.26l.1.84a.67.67,0,0,0,.67.59h1a.66.66,0,0,0,.66-.59l.11-.84a4.73,4.73,0,0,0,.62-.25l.67.52a.66.66,0,0,0,.88-.06l.7-.7a.67.67,0,0,0,.06-.89l-.52-.67a3.26,3.26,0,0,0,.25-.61l.84-.11a.66.66,0,0,0,.59-.66v-1a.66.66,0,0,0-.58-.67Zm-4.78,3.41A2.24,2.24,0,1,1,109,78.18h0A2.26,2.26,0,0,1,106.74,80.42Z"
                      transform="translate(0)"/>
            </g>
        </g>
        <g id="Group_659" data-name="Group 659">
            <rect id="Rectangle_656-2" data-name="Rectangle 656-2" class="cls-2" x="151" y="50.79" width="42"
                  height="42" rx="4"/>
            <g id="cards">
                <path id="Path_1987" data-name="Path 1987" class="cls-4"
                      d="M165,85.64a3.57,3.57,0,0,1-3.53-3.06l-2.29-16a3.57,3.57,0,0,1,3-4l4.34-.62.39,2.7-4.34.63a.83.83,0,0,0-.7.93h0l2.29,16a.83.83,0,0,0,.93.7l12-1.73a.69.69,0,0,0,.58-.77l-.15-1,2.72-.39.14,1a3.43,3.43,0,0,1-2.91,3.86l-12,1.73A2.89,2.89,0,0,1,165,85.64Z"
                      transform="translate(0)"/>
                <path id="Path_1988" data-name="Path 1988" class="cls-4"
                      d="M181.23,80.57H169.16A3.58,3.58,0,0,1,165.59,77V61.1a3.58,3.58,0,0,1,3.57-3.56h12.07a3.57,3.57,0,0,1,3.56,3.56V77A3.57,3.57,0,0,1,181.23,80.57ZM169.16,60.28a.82.82,0,0,0-.82.82V77a.83.83,0,0,0,.82.83h12.07a.83.83,0,0,0,.82-.83V61.1a.82.82,0,0,0-.82-.82Z"
                      transform="translate(0)"/>
                <g id="Group_656" data-name="Group 656">
                    <path id="Path_1989" data-name="Path 1989" class="cls-4" d="M178.21,69.6a2.91,2.91,0,1,1-5.81,0Z"
                          transform="translate(0)"/>
                    <circle id="Ellipse_136" data-name="Ellipse 136" class="cls-4" cx="171.63" cy="66.86" r="1.1"/>
                    <circle id="Ellipse_137" data-name="Ellipse 137" class="cls-4" cx="178.76" cy="66.86" r="1.1"/>
                </g>
            </g>
        </g>
        <g id="Group_660" data-name="Group 660">
            <rect id="Rectangle_656-3" data-name="Rectangle 656-3" class="cls-2" y="50.79" width="42" height="42"
                  rx="4"/>
            <g id="user_5_2" data-name="user 5 2">
                <path id="Path_1984-2" data-name="Path 1984-2" class="cls-4"
                      d="M24.68,82.83H9.86V78.17A4.12,4.12,0,0,1,14,74.05h5.67a8.16,8.16,0,1,0-6.07-2.74,6.86,6.86,0,0,0-6.47,6.86v6a1.37,1.37,0,0,0,1.38,1.37h16.2a1.37,1.37,0,1,0,.07-2.74h-.08Zm-5-22.29a5.39,5.39,0,0,1,.15,10.77h-.43a5.39,5.39,0,0,1,.28-10.77Z"
                      transform="translate(0)"/>
                <g id="Group_655" data-name="Group 655">
                    <path id="Path_1985" data-name="Path 1985" class="cls-4"
                          d="M34,79.54H25.78a1.37,1.37,0,0,1,0-2.74H34a1.37,1.37,0,0,1,0,2.74Z"
                          transform="translate(0)"/>
                    <path id="Path_1986" data-name="Path 1986" class="cls-4"
                          d="M29.9,83.66a1.37,1.37,0,0,1-1.37-1.37h0V74.05a1.37,1.37,0,0,1,2.74,0v8.24a1.37,1.37,0,0,1-1.37,1.37Z"
                          transform="translate(0)"/>
                </g>
            </g>
        </g>
        <g id="Manage" class="cls-5">
            <text class="cls-6" transform="translate(72.51 132.79)">Manage</text>
        </g>
        <g id="clicking">
            <path id="Path_1990" data-name="Path 1990" class="cls-2"
                  d="M129.94,135.42a1,1,0,0,0,.26-1.34,4.84,4.84,0,1,1,8-5.39,5,5,0,0,1,.68,1.5,1,1,0,1,0,1.86-.48,6.76,6.76,0,1,0-12.17,5.44,1,1,0,0,0,1.33.27Z"
                  transform="translate(0)"/>
            <path id="Path_1991" data-name="Path 1991" class="cls-2"
                  d="M147.1,135.14a2.89,2.89,0,0,0-4,.39,2.88,2.88,0,0,0-3.79.14l-2.39-5.39a2.93,2.93,0,0,0-3.76-1.52,2.89,2.89,0,0,0-1.58,3.77.25.25,0,0,0,0,.07l6,13.54-1.51-.62a2.89,2.89,0,0,0-2.31,5.29l.08,0,8.75,3.68a4.79,4.79,0,0,0,3.82,0l7.15-3.18A4.81,4.81,0,0,0,156,145L152,135.81a2.88,2.88,0,0,0-3.81-1.45,2.75,2.75,0,0,0-1,.78Zm7.17,10.6a2.9,2.9,0,0,1-1.47,3.81l-7.15,3.18a2.89,2.89,0,0,1-2.29,0l-8.76-3.69a1,1,0,0,1-.53-1.25v0a1,1,0,0,1,1.28-.48l3.74,1.53a1,1,0,0,0,1.25-.53.93.93,0,0,0,0-.75l-7-15.73a1,1,0,0,1,.49-1.28h0a1,1,0,0,1,1.27.53c4.3,9.67,2.33,5.3,4.66,10.52a1,1,0,0,0,1.77-.79l-1.24-2.8a1,1,0,0,1,1.81-.61L143.3,140a1,1,0,0,0,1.76-.79l-.65-1.46a1,1,0,0,1,.48-1.27,1,1,0,0,1,1.27.49l.66,1.46a1,1,0,1,0,1.75-.78l-.13-.29a1,1,0,0,1,1.76-.79Z"
                  transform="translate(0)"/>
        </g>
    </g>
</svg>
