<!--
 * Copyright (c) 2021, WSO2 Inc. (http://www.wso2.com). All Rights Reserved.
 *
 * This software is the property of WSO2 Inc. and its suppliers, if any.
 * Dissemination of any information or reproduction of any material contained
 * herein in any form is strictly forbidden, unless permitted by WSO2 expressly.
 * You may not alter or remove any copyright or other notice from copies of this content."
-->

<svg xmlns="http://www.w3.org/2000/svg" width="309.883" height="169.373" viewBox="0 0 309.883 169.373">
    <g id="business-users-illustration" transform="translate(158 27.479)">
        <path id="Subtraction_14" data-name="Subtraction 14"
              d="M-8497.067-521.137A31.437,31.437,0,0,1-8510.2-524a31.656,31.656,0,0,1-18.355-31.937l.037-.3a11.491,11.491,0,0,0-.1-3.242H-8418.8a32.05,32.05,0,0,1-4.817,8.353,32.352,32.352,0,0,1-6.955,6.476,32.063,32.063,0,0,1-18.242,5.671c-.89,0-1.793-.037-2.684-.111-.268-.027-.5-.054-.721-.08a25.939,25.939,0,0,0-2.878-.161,25.906,25.906,0,0,0-18.953,8.28,31.44,31.44,0,0,1-10.606,7.383,31.529,31.529,0,0,1-12.411,2.53h0Z"
              transform="translate(8451.081 532)" fill="#eaeef1" opacity="0.18"/>
        <path id="Subtraction_13" data-name="Subtraction 13"
              d="M-8470.931-637.292h-59.423a31.575,31.575,0,0,1-2.18-12.5,31.453,31.453,0,0,1,3.059-12.678,31.594,31.594,0,0,1,11.818-13.257,31.661,31.661,0,0,1,16.778-4.814,31.7,31.7,0,0,1,8.61,1.2,32.155,32.155,0,0,1,18.548,14.634,32.154,32.154,0,0,1,3.6,23.351c-.054.227-.112.454-.181.7a25.946,25.946,0,0,0-.63,3.369Z"
              transform="translate(8607.022 779.186)" fill="#eaeef1" opacity="0.18"/>
        <g id="Path_1992" data-name="Path 1992" transform="translate(-34.069 -4.899)">
            <path id="Path_1" data-name="Path 1"
                  d="M89.052,0A63.052,63.052,0,1,1,26,63.052h0A63.056,63.056,0,0,1,89.03,0Z" transform="translate(-26)"
                  fill="none"/>
            <path id="Path_2" data-name="Path 2"
                  d="M89.052,0h1.2c1.11,0,2.21.072,3.3.153l-.126,1.8c-1.443-.1-2.923-.153-4.375-.153Zm11.654,1.073c.9.171,1.8.352,2.706.559h.487l1.254.316-.46,1.741c-1.407-.37-2.841-.686-4.267-.956Zm11.257,3.22.9.352h.649c.7.307,1.4.622,2.093.956L115.3,7.712c-1.308-.622-2.706-1.209-4.014-1.741Zm10.464,5.259h1.146c.586.406,1.173.812,1.75,1.236l-.217,2.742c-1.182-.857-2.4-1.687-3.608-2.454Zm9.309,7.1q1.66,1.533,3.211,3.175l-1.317,1.236c-.992-1.055-2.039-2.093-3.112-3.085Zm7.848,8.7c.343.451.667.9.992,1.371h0v.054h0v.054h0v.063h0v.054h0l.045.054h0v.054h0v.054h0v.054h0v.063h0v.054h0c.135.2.262.4.388.6l-1.515.974c-.785-1.227-1.624-2.435-2.5-3.608Zm6.107,9.986c.622,1.272,1.209,2.571,1.741,3.879h0v.063h0v.054h0v.063h0l-1.669.677c-.55-1.353-1.146-2.706-1.8-4.005Zm4.149,10.951c.153.541.3,1.091.424,1.633h0v.045h0v.072h0c.189.767.352,1.542.505,2.318l-1.8.352c-.28-1.425-.622-2.859-1-4.267Zm2.039,11.537c.117,1.389.189,2.787.207,4.2h-1.8c0-1.452-.09-2.932-.207-4.375l1.8-.144Zm-1.9,11.528,1.8.18c-.117,1.109-.262,2.219-.433,3.319h0v.09h0a.916.916,0,0,1-.072.433l-1.8-.307C149.624,72.253,149.822,70.792,149.975,69.348Zm-2.2,11.158,1.732.514h0q-.6,1.975-1.326,3.9l-1.7-.631C146.872,83.294,147.351,81.9,147.775,80.506Zm-4.24,10.545,1.606.83v.081h0v.063h0V92.1h0v.054h0v.054h0v.054h0v.054h0v.063h0v.063h0V92.5h0v.063h0v.063h0v.063h0v.063h0v.054h0v.054h0l-.072.126h0v.063h0c-.361.64-.731,1.281-1.119,1.912l-1.542-.9c-.271-.433.451-1.714,1.119-3.013Zm-6.125,9.589,1.425,1.11h0c-.848,1.073-1.732,2.129-2.652,3.148l-1.344-1.209c.722-.776,1.669-1.9,2.562-3.049Zm-7.785,8.29,1.191,1.353c-1.128.992-2.282,1.948-3.482,2.868l-1.091-1.434c1.146-.884,2.282-1.822,3.374-2.787Zm-9.183,6.72.9,1.551c-1.109.658-2.237,1.29-3.392,1.885h-.469l-.812-1.615a19.394,19.394,0,0,0,3.761-1.822Zm-10.265,4.9.622,1.7-.839.307H108.68c-.677.216-1.362.433-2.048.631l-.5-1.741a10.535,10.535,0,0,0,4.032-.893Zm-11,2.914.3,1.8h-.343c-1.362.216-2.706.4-4.131.523l-.162-1.8c1.434-.1,2.9-.289,4.33-.523Zm-15.722.577c1.443.135,2.914.216,4.375.244v1.8H86.86c-1.046,0-2.084-.1-3.121-.189h-.406Zm-11.185-2.075c1.4.4,2.832.749,4.258,1.046l-.37,1.8-.64-.135h-.451c-1.109-.253-2.21-.532-3.292-.848Zm-10.6-4.122c1.3.658,2.643,1.263,3.987,1.8l-.695,1.669q-.686-.28-1.38-.6H61.432l-.424-.216Zm-9.661-5.989c1.155.9,2.363,1.723,3.608,2.526l-.992,1.506h-.207l-.054-.045h-.054l-.352-.379h-.956c-.631-.442-1.245-.9-1.8-1.353Zm-8.38-7.694c.974,1.073,2,2.129,3.049,3.139l-1.245,1.3-.686-.658h0v-.054h-.108l-.135-.153Zm-6.81-9.12c.767,1.236,1.579,2.463,2.426,3.608L37.79,99.7c-.9-1.227-1.714-2.481-2.5-3.761ZM31.791,84.791c.514,1.362,1.091,2.706,1.7,4.032l-1.633.767h0v-.063h0v-.063h0V89.41h0v-.054h0v-.063h0v-.054h0V87.407h0v-.09h0v-.054h0V87.2h0c-.162-.406-.325-.812-.478-1.218ZM28.76,73.868c.253,1.434.559,2.877.9,4.285l-1.75.442c-.325-1.272-.6-2.562-.848-3.87h0v-.216ZM26,62.511h1.8v.523c0,1.281,0,2.58.117,3.861l-1.8.108c0-.478-.054-.956-.072-1.434h0v-.126h0v-.1h0v-.072h0v-.325h0v-.09h0v-.072h0V64.73h0v-.063h0V64.6h0V64.54h0v-.334h0Zm1.173-11.645,1.8.343c-.28,1.425-.514,2.887-.686,4.33l-1.8-.216c.054-.433.108-.9.171-1.3h0v-.054h0c.063-.424.135-.848.207-1.272h0v-.045h0c.189-1.146.244-1.47.307-1.786Zm3.338-11.23,1.678.668c-.541,1.353-1.046,2.706-1.488,4.122l-1.714-.55c.189-.6.388-1.191.6-1.8h0V42h0v-.045h0v-.045h0Zm5.322-10.418,1.524.965c-.785,1.227-1.524,2.5-2.219,3.78L33.55,33.1l.235-.433h0v-.063h0v-.054h0V32.5h0v-.054h0v-.054h0v-.054h0v-.054h0v-.063h0c.235-.406.469-.812.713-1.209h0v-.063h0v-.063h0v-.054h0v-.054h0v-.054h0v-.054h0v-.054h0Zm7.216-9.255L44.365,21.2c-.992,1.064-1.957,2.174-2.877,3.3l-1.434-1.137,1.128-1.353h0l.045-.054h0V21.9h0v-.045h.045v-.045h0v-.045h0v-.054h0c1.028-.965,1.38-1.362,1.741-1.75ZM51.807,12.2l1.073,1.452c-1.173.857-2.327,1.8-3.437,2.706l-1.173-1.371c.776-.658,1.57-1.3,2.372-1.921h0l.054-.045h.108Zm10-6.026L62.6,7.794c-1.308.631-2.616,1.317-3.879,2.039l-.9-1.57h.352l.207-.117h2.354ZM72.8,2.111l.469,1.75c-1.407.37-2.814.8-4.194,1.272l-.586-1.7.532-.18H72ZM84.344.171l.135,1.8c-1.452.1-2.914.262-4.357.469L79.869.64l1.642-.2h1.912l.9-.072Z"
                  transform="translate(-26)" fill="#fff"/>
        </g>
        <rect id="Rectangle_659" data-name="Rectangle 659" width="84.687" height="21.172" rx="4"
              transform="translate(-13.285 103.34)" fill="#5c6268"/>
        <g id="Group_657" data-name="Group 657" transform="translate(10.186 39.197)">
            <rect id="Rectangle_656" data-name="Rectangle 656" width="40.77" height="40.77" rx="4" fill="#fff"/>
            <g id="Group_9" data-name="Group 9" transform="translate(-1759.693 -326.679)">
                <path id="Subtraction_2" data-name="Subtraction 2"
                      d="M1.905,24.393H0a12.226,12.226,0,0,1,8.205-11.53A7.05,7.05,0,0,1,8.013,1.374,7.05,7.05,0,0,1,18.855,9.363a7,7,0,0,1-2.67,3.5,12.141,12.141,0,0,1,2.965,1.508l-1.282,1.435A10.292,10.292,0,0,0,1.905,24.392ZM12.2,1.908A5.145,5.145,0,1,0,17.34,7.052,5.151,5.151,0,0,0,12.2,1.908Z"
                      transform="translate(1766.769 334.68)" fill="#232323"/>
                <path id="settings"
                      d="M109.147,76.014l-.643-.077a3.659,3.659,0,0,0-.2-.474l.4-.513a.505.505,0,0,0,0-.673l-.536-.536a.513.513,0,0,0-.681-.046l-.513.4a3.522,3.522,0,0,0-.467-.191l-.092-.651a.505.505,0,0,0-.505-.452h-.765a.513.513,0,0,0-.513.452l-.077.643a3.623,3.623,0,0,0-.474.191l-.513-.4a.513.513,0,0,0-.673.046l-.536.536a.505.505,0,0,0-.046.681l.4.513a2.721,2.721,0,0,0-.191.467l-.658.084a.513.513,0,0,0-.452.513v.765a.505.505,0,0,0,.452.505l.643.084a3.145,3.145,0,0,0,.191.467l-.4.513a.513.513,0,0,0,.046.681l.536.536a.513.513,0,0,0,.681.046l.505-.4a3.757,3.757,0,0,0,.482.2l.077.643a.513.513,0,0,0,.513.452h.765a.505.505,0,0,0,.505-.452l.084-.643a3.619,3.619,0,0,0,.475-.191l.513.4a.505.505,0,0,0,.673-.046l.536-.536a.513.513,0,0,0,.046-.681l-.4-.513a2.494,2.494,0,0,0,.191-.467l.643-.084a.505.505,0,0,0,.452-.505v-.765a.505.505,0,0,0-.444-.513Zm-3.658,2.61a1.714,1.714,0,1,1,1.73-1.707h0a1.73,1.73,0,0,1-1.73,1.714Z"
                      transform="translate(1683.335 278.053)" fill="#232323"/>
            </g>
        </g>
        <g id="Group_659" data-name="Group 659" transform="translate(66.14 39.197)">
            <rect id="Rectangle_656-2" data-name="Rectangle 656-2" width="40.77" height="40.77" rx="4" fill="#fff"/>
            <g id="cards" transform="translate(8.771 7.496)">
                <path id="Path_1987" data-name="Path 1987"
                      d="M164.435,83.356a3.226,3.226,0,0,1-3.189-2.765l-2.069-14.456a3.226,3.226,0,0,1,2.711-3.614l3.921-.56.352,2.44-3.921.569a.75.75,0,0,0-.633.84h0l2.069,14.456a.75.75,0,0,0,.84.632l10.842-1.563a.623.623,0,0,0,.524-.7l-.136-.9,2.458-.352.127.9a3.1,3.1,0,0,1-2.629,3.488L164.86,83.338A2.613,2.613,0,0,1,164.435,83.356Z"
                      transform="translate(-159.148 -57.966)" fill="#232323"/>
                <path id="Path_1988" data-name="Path 1988"
                      d="M179.721,78.348H168.816a3.235,3.235,0,0,1-3.226-3.226V60.757a3.235,3.235,0,0,1,3.226-3.217h10.906a3.226,3.226,0,0,1,3.217,3.217V75.123A3.226,3.226,0,0,1,179.721,78.348ZM168.816,60.016a.741.741,0,0,0-.741.741V75.123a.75.75,0,0,0,.741.75h10.906a.75.75,0,0,0,.741-.75V60.757a.741.741,0,0,0-.741-.741Z"
                      transform="translate(-159.77 -57.54)" fill="#232323"/>
                <g id="Group_656" data-name="Group 656" transform="translate(10.284 7.427)">
                    <path id="Path_1989" data-name="Path 1989" d="M177.649,69.6a2.629,2.629,0,1,1-5.25,0Z"
                          transform="translate(-170.71 -66.13)" fill="#232323"/>
                    <circle id="Ellipse_136" data-name="Ellipse 136" cx="0.994" cy="0.994" r="0.994" fill="#232323"/>
                    <circle id="Ellipse_137" data-name="Ellipse 137" cx="0.994" cy="0.994" r="0.994"
                            transform="translate(6.442)" fill="#232323"/>
                </g>
            </g>
        </g>
        <g id="Group_660" data-name="Group 660" transform="translate(-48.036 39.197)">
            <rect id="Rectangle_656-3" data-name="Rectangle 656-3" width="40.77" height="40.77" rx="4" fill="#fff"/>
            <g id="Group_7" data-name="Group 7" transform="translate(-1748.237 -277.155)">
                <path id="Subtraction_1" data-name="Subtraction 1"
                      d="M2.01,25.721H0A12.891,12.891,0,0,1,8.652,13.563a7.434,7.434,0,0,1-.2-12.114A7.434,7.434,0,0,1,19.881,9.873a7.384,7.384,0,0,1-2.816,3.69,12.814,12.814,0,0,1,3.174,1.624L18.892,16.7A10.85,10.85,0,0,0,2.01,25.72ZM12.859,2.011a5.425,5.425,0,1,0,5.425,5.425A5.432,5.432,0,0,0,12.859,2.011Z"
                      transform="translate(1754.769 284.68)" fill="#232323"/>
                <g id="Group_655" data-name="Group 655" transform="translate(1773.631 301.54)">
                    <path id="Path_1985" data-name="Path 1985"
                          d="M32.149,79.011H25.516a1.106,1.106,0,1,1,0-2.211h6.633a1.106,1.106,0,1,1,0,2.211Z"
                          transform="translate(-24.41 -73.475)" fill="#232323"/>
                    <path id="Path_1986" data-name="Path 1986"
                          d="M29.636,81.541a1.106,1.106,0,0,1-1.106-1.106h0v-6.65a1.106,1.106,0,1,1,2.211,0v6.65a1.106,1.106,0,0,1-1.106,1.106Z"
                          transform="translate(-25.205 -72.68)" fill="#232323"/>
                </g>
            </g>
        </g>
        <g id="clicking" transform="translate(52.828 111.544)">
            <path id="Path_1990" data-name="Path 1990"
                  d="M129.329,132.791a.756.756,0,0,0,.2-1.013,3.66,3.66,0,1,1,6.049-4.076,3.781,3.781,0,0,1,.514,1.134.756.756,0,1,0,1.406-.363,5.111,5.111,0,1,0-9.2,4.113.756.756,0,0,0,1.006.2Z"
                  transform="translate(-127.435 -124.64)" fill="#fff"/>
            <path id="Path_1991" data-name="Path 1991"
                  d="M143.262,133.533a2.185,2.185,0,0,0-3.025.295,2.178,2.178,0,0,0-2.866.106l-1.807-4.076a2.215,2.215,0,0,0-2.843-1.149,2.185,2.185,0,0,0-1.195,2.851.189.189,0,0,0,0,.053l4.537,10.238-1.142-.469a2.185,2.185,0,0,0-1.747,4h.061l6.616,2.783a3.622,3.622,0,0,0,2.888,0l5.406-2.4a3.637,3.637,0,0,0,1.845-4.771l-3.025-6.949a2.178,2.178,0,0,0-2.881-1.1,2.079,2.079,0,0,0-.756.59Zm5.422,8.015a2.193,2.193,0,0,1-1.112,2.881l-5.406,2.4a2.185,2.185,0,0,1-1.732,0l-6.624-2.79a.756.756,0,0,1-.4-.945h0a.756.756,0,0,1,.968-.363l2.828,1.157a.756.756,0,0,0,.945-.4.7.7,0,0,0,0-.567l-5.293-11.894a.756.756,0,0,1,.37-.968h0a.756.756,0,0,1,.96.4c3.251,7.312,1.762,4.008,3.524,7.955a.756.756,0,0,0,1.338-.6l-.938-2.117a.756.756,0,0,1,1.369-.461l.907,1.966a.756.756,0,0,0,1.331-.6l-.491-1.1a.724.724,0,1,1,1.323-.59l.5,1.1a.756.756,0,1,0,1.323-.59l-.1-.219a.756.756,0,0,1,1.331-.6Z"
                  transform="translate(-128.393 -125.594)" fill="#fff"/>
        </g>
        <path id="Path_96"
              d="M68.084,418.431a.692.692,0,0,1-.488-.2l-1.512-1.512a.691.691,0,0,1,0-.976l1.512-1.512a.691.691,0,0,1,.976,0l1.512,1.512a.691.691,0,0,1,0,.976l-1.512,1.518a.692.692,0,0,1-.488.2Zm-.538-2.206.538.538.538-.538-.538-.535Z"
              transform="translate(-223.882 -371.359)" fill="rgba(96,210,250,0.7)"/>
        <path id="Path_96-2" data-name="Path_96"
              d="M68.084,418.431a.692.692,0,0,1-.488-.2l-1.512-1.512a.691.691,0,0,1,0-.976l1.512-1.512a.691.691,0,0,1,.976,0l1.512,1.512a.691.691,0,0,1,0,.976l-1.512,1.518a.692.692,0,0,1-.488.2Zm-.538-2.206.538.538.538-.538-.538-.535Z"
              transform="translate(-148.268 -424.289)" fill="rgba(96,210,250,0.7)"/>
        <path id="Path_95"
              d="M423.786,165.529a.691.691,0,0,1-.691-.691.832.832,0,0,0-.832-.832.692.692,0,0,1,0-1.383.832.832,0,0,0,.832-.832.692.692,0,1,1,1.383,0,.832.832,0,0,0,.832.832.692.692,0,0,1,0,1.383.832.832,0,0,0-.832.832.691.691,0,0,1-.691.691Z"
              transform="translate(-540.909 -61.746)" fill="#ffe783"/>
        <path id="padlock"
              d="M69.327,2.783V2.217a2.217,2.217,0,0,0-4.434,0v.566a.884.884,0,0,0-.443.764v2.66a.888.888,0,0,0,.887.887h3.547a.888.888,0,0,0,.887-.887V3.547a.884.884,0,0,0-.443-.764ZM67.106.887a1.332,1.332,0,0,1,1.33,1.33V2.66H65.773V2.217A1.332,1.332,0,0,1,67.1.887Zm.443,4.261v.616h-.886V5.148a.665.665,0,1,1,.887,0Z"
              transform="translate(-101.767 83.359)" fill="#3ad29f" opacity="0.55"/>
        <path id="Path_96-3" data-name="Path_96"
              d="M68.084,418.431a.692.692,0,0,1-.488-.2l-1.512-1.512a.691.691,0,0,1,0-.976l1.512-1.512a.691.691,0,0,1,.976,0l1.512,1.512a.691.691,0,0,1,0,.976l-1.512,1.518a.692.692,0,0,1-.488.2Zm-.538-2.206.538.538.538-.538-.538-.535Z"
              transform="translate(-148.268 -382.701)" fill="rgba(96,210,250,0.7)"/>
        <path id="Path_95-2" data-name="Path_95"
              d="M423.786,165.529a.691.691,0,0,1-.691-.691.832.832,0,0,0-.832-.832.692.692,0,0,1,0-1.383.832.832,0,0,0,.832-.832.692.692,0,1,1,1.383,0,.832.832,0,0,0,.832.832.692.692,0,0,1,0,1.383.832.832,0,0,0-.832.832.691.691,0,0,1-.691.691Z"
              transform="translate(-321.63 -152.482)" fill="#ffe783"/>
        <path id="Path_96-4" data-name="Path_96"
              d="M68.084,418.431a.692.692,0,0,1-.488-.2l-1.512-1.512a.691.691,0,0,1,0-.976l1.512-1.512a.691.691,0,0,1,.976,0l1.512,1.512a.691.691,0,0,1,0,.976l-1.512,1.518a.692.692,0,0,1-.488.2Zm-.538-2.206.538.538.538-.538-.538-.535Z"
              transform="translate(-27.286 -409.166)" fill="rgba(96,210,250,0.7)"/>
        <path id="Path_96-5" data-name="Path_96"
              d="M68.084,418.431a.692.692,0,0,1-.488-.2l-1.512-1.512a.691.691,0,0,1,0-.976l1.512-1.512a.691.691,0,0,1,.976,0l1.512,1.512a.691.691,0,0,1,0,.976l-1.512,1.518a.692.692,0,0,1-.488.2Zm-.538-2.206.538.538.538-.538-.538-.535Z"
              transform="translate(48.327 -318.429)" fill="rgba(96,210,250,0.7)"/>
        <path id="Path_96-6" data-name="Path_96"
              d="M68.084,418.431a.692.692,0,0,1-.488-.2l-1.512-1.512a.691.691,0,0,1,0-.976l1.512-1.512a.691.691,0,0,1,.976,0l1.512,1.512a.691.691,0,0,1,0,.976l-1.512,1.518a.692.692,0,0,1-.488.2Zm-.538-2.206.538.538.538-.538-.538-.535Z"
              transform="translate(81.597 -428.069)" fill="rgba(96,210,250,0.7)"/>
        <path id="Path_95-3" data-name="Path_95"
              d="M423.786,165.529a.691.691,0,0,1-.691-.691.832.832,0,0,0-.832-.832.692.692,0,0,1,0-1.383.832.832,0,0,0,.832-.832.692.692,0,1,1,1.383,0,.832.832,0,0,0,.832.832.692.692,0,0,1,0,1.383.832.832,0,0,0-.832.832.691.691,0,0,1-.691.691Z"
              transform="translate(-283.823 -39.062)" fill="#ffe783"/>
        <path id="padlock-2" data-name="padlock"
              d="M67.146,1.64V1.306a1.229,1.229,0,1,0-2.451,0V1.64a.529.529,0,0,0-.245.454V3.66a.508.508,0,0,0,.491.523H66.9a.508.508,0,0,0,.491-.523V2.091a.529.529,0,0,0-.245-.454ZM65.918.521a.762.762,0,0,1,.736.785v.262H65.182V1.306a.762.762,0,0,1,.735-.785Zm.245,2.514V3.4h-.49V3.035a.411.411,0,0,1-.1-.433.36.36,0,0,1,.687,0,.411.411,0,0,1-.1.433Z"
              transform="translate(72.144 37.993)" fill="#3ad29f" opacity="0.55"/>
    </g>
</svg>
