<!--
 * Copyright (c) 2021, WSO2 Inc. (http://www.wso2.com). All Rights Reserved.
 *
 * This software is the property of WSO2 Inc. and its suppliers, if any.
 * Dissemination of any information or reproduction of any material contained
 * herein in any form is strictly forbidden, unless permitted by WSO2 expressly.
 * You may not alter or remove any copyright or other notice from copies of this content."
-->

<svg id="business-users-illustration" xmlns="http://www.w3.org/2000/svg" width="409.825" height="224" viewBox="0 0 409.825 224">
  <g id="business-users" transform="translate(158 27.482)">
    <path id="Subtraction_14" data-name="Subtraction 14" d="M-8486.861-508.771a41.576,41.576,0,0,1-17.374-3.783,41.868,41.868,0,0,1-24.275-42.237l.05-.4a15.164,15.164,0,0,0-.139-4.288h145.25a42.422,42.422,0,0,1-6.371,11.047,42.809,42.809,0,0,1-9.2,8.564,42.4,42.4,0,0,1-24.124,7.5c-1.177,0-2.371-.049-3.55-.147-.354-.036-.666-.071-.952-.106a34.326,34.326,0,0,0-3.808-.213,34.261,34.261,0,0,0-25.063,10.95,41.6,41.6,0,0,1-14.028,9.764,41.7,41.7,0,0,1-16.413,3.346h0Z" transform="translate(8477 532)" fill="#eaeef1" opacity="0.18"/>
    <path id="Subtraction_13" data-name="Subtraction 13" d="M-8451.064-623.343h-78.586a41.76,41.76,0,0,1-2.885-16.535,41.579,41.579,0,0,1,4.046-16.767,41.778,41.778,0,0,1,15.63-17.532,41.875,41.875,0,0,1,22.189-6.367,41.915,41.915,0,0,1,11.388,1.582,42.527,42.527,0,0,1,24.53,19.354,42.529,42.529,0,0,1,4.76,30.882c-.072.3-.15.6-.239.928a34.275,34.275,0,0,0-.833,4.455Z" transform="translate(8682 819.861)" fill="#eaeef1" opacity="0.18"/>
    <g id="Path_1992" data-name="Path 1992">
      <path id="Path_1" data-name="Path 1" d="M95.9,0A69.9,69.9,0,1,1,26,69.9h0A69.906,69.906,0,0,1,95.882,0Z" fill="none"/>
      <path id="Path_2" data-name="Path 2" d="M95.9,0h1.33c1.23,0,2.45.08,3.66.17l-.14,2C99.15,2.06,97.51,2,95.9,2Zm12.92,1.19c1,.19,2,.39,3,.62h.54l1.39.35-.51,1.93c-1.56-.41-3.15-.76-4.73-1.06ZM121.3,4.76l1,.39h.72c.78.34,1.55.69,2.32,1.06L125,8.55c-1.45-.69-3-1.34-4.45-1.93Zm11.6,5.83h1.27c.65.45,1.3.9,1.94,1.37L135.87,15c-1.31-.95-2.66-1.87-4-2.72Zm10.32,7.87q1.84,1.7,3.56,3.52l-1.46,1.37c-1.1-1.17-2.26-2.32-3.45-3.42Zm8.7,9.64c.38.5.74,1,1.1,1.52h0v.06h0v.06h0v.07h0v.06h0l.05.06h0v.06h0v.06h0v.06h0v.07h0v.06h0c.15.22.29.44.43.66l-1.68,1.08c-.87-1.36-1.8-2.7-2.77-4Zm6.77,11.07c.69,1.41,1.34,2.85,1.93,4.3h0v.07h0v.06h0v.07h0l-1.85.75c-.61-1.5-1.27-3-2-4.44Zm4.6,12.14c.17.6.33,1.21.47,1.81h0v.05h0v.08h0c.21.85.39,1.71.56,2.57l-2,.39c-.31-1.58-.69-3.17-1.11-4.73Zm2.26,12.79c.13,1.54.21,3.09.23,4.66h-2c0-1.61-.1-3.25-.23-4.85l2-.16Zm-2.11,12.78,2,.2c-.13,1.23-.29,2.46-.48,3.68h0v.1h0a1.015,1.015,0,0,1-.08.48l-2-.34C163.05,80.1,163.27,78.48,163.44,76.88ZM161,89.25l1.92.57h0q-.67,2.19-1.47,4.32l-1.88-.7C160,92.34,160.53,90.79,161,89.25Zm-4.7,11.69,1.78.92v.09h0v.07h0v.08h0v.06h0v.06h0v.06h0v.06h0v.07h0v.07h0v.07h0v.07h0v.07h0v.07h0v.07h0v.06h0v.06h0l-.08.14h0v.07h0c-.4.71-.81,1.42-1.24,2.12l-1.71-1c-.3-.48.5-1.9,1.24-3.34Zm-6.79,10.63,1.58,1.23h0c-.94,1.19-1.92,2.36-2.94,3.49l-1.49-1.34c.8-.86,1.85-2.11,2.84-3.38Zm-8.63,9.19,1.32,1.5c-1.25,1.1-2.53,2.16-3.86,3.18l-1.21-1.59c1.27-.98,2.53-2.02,3.74-3.09Zm-10.18,7.45,1,1.72c-1.23.73-2.48,1.43-3.76,2.09h-.52l-.9-1.79a21.5,21.5,0,0,0,4.17-2.02Zm-11.38,5.43.69,1.88-.93.34h-1.42c-.75.24-1.51.48-2.27.7l-.55-1.93a11.679,11.679,0,0,0,4.47-.99Zm-12.19,3.23.33,2h-.38c-1.51.24-3,.44-4.58.58l-.18-2c1.59-.11,3.21-.32,4.8-.58Zm-17.43.64c1.6.15,3.23.24,4.85.27v2H93.47c-1.16,0-2.31-.11-3.46-.21h-.45Zm-12.4-2.3c1.55.44,3.14.83,4.72,1.16l-.41,2-.71-.15h-.5c-1.23-.28-2.45-.59-3.65-.94Zm-11.75-4.57c1.44.73,2.93,1.4,4.42,2l-.77,1.85q-.76-.31-1.53-.66H65.28l-.47-.24ZM54.84,124c1.28,1,2.62,1.91,4,2.8l-1.1,1.67h-.23l-.06-.05h-.06L57,128H55.94c-.7-.49-1.38-1-2-1.5Zm-9.29-8.53c1.08,1.19,2.22,2.36,3.38,3.48l-1.38,1.44-.76-.73h0v-.06h-.12l-.15-.17ZM38,105.36c.85,1.37,1.75,2.73,2.69,4l-1.62,1.17c-1-1.36-1.9-2.75-2.77-4.17ZM32.42,94c.57,1.51,1.21,3,1.89,4.47l-1.81.85h0v-.07h0v-.07h0v-.06h0v-.06h0v-.07h0v-.06h0V96.9h0v-.1h0v-.06h0v-.07h0c-.18-.45-.36-.9-.53-1.35ZM29.06,81.89c.28,1.59.62,3.19,1,4.75l-1.94.49c-.36-1.41-.67-2.84-.94-4.29h0V82.6ZM26,69.3h2v.58c0,1.42,0,2.86.13,4.28l-2,.12c0-.53-.06-1.06-.08-1.59h0v-.14h0v-.11h0v-.08h0V72h0v-.1h0v-.08h0v-.06h0v-.07h0v-.07h0v-.07h0v-.37h0Zm1.3-12.91,2,.38c-.31,1.58-.57,3.2-.76,4.8l-2-.24c.06-.48.12-1,.19-1.44h0v-.06h0c.07-.47.15-.94.23-1.41h0v-.05h0C27.17,57.1,27.23,56.74,27.3,56.39ZM31,43.94l1.86.74c-.6,1.5-1.16,3-1.65,4.57l-1.9-.61c.21-.66.43-1.32.66-2h0v-.08h0v-.05h0v-.05h0Zm5.9-11.55,1.69,1.07c-.87,1.36-1.69,2.77-2.46,4.19l-1.76-.95.26-.48h0v-.07h0v-.06h0v-.06h0v-.06h0v-.06h0v-.06h0v-.06h0v-.07h0c.26-.45.52-.9.79-1.34h0v-.07h0v-.07h0v-.06h0v-.06h0v-.06h0V34h0v-.06h0Zm8-10.26,1.46,1.37c-1.1,1.18-2.17,2.41-3.19,3.66L41.58,25.9l1.25-1.5h0l.05-.06h0v-.06h0v-.05h.05v-.05h0v-.05h0v-.06h0c1.14-1.07,1.53-1.51,1.93-1.94Zm9.71-8.61,1.19,1.61c-1.3.95-2.58,2-3.81,3l-1.3-1.52c.86-.73,1.74-1.44,2.63-2.13h0l.06-.05h.12ZM65.7,6.84l.87,1.8c-1.45.7-2.9,1.46-4.3,2.26l-1-1.74h.39l.23-.13H64.5Zm12.18-4.5.52,1.94c-1.56.41-3.12.89-4.65,1.41L73.1,3.8l.59-.2H77ZM90.68.19l.15,2c-1.61.11-3.23.29-4.83.52l-.28-2L87.54.49h2.12l1-.08Z" fill="#fff"/>
    </g>
    <rect id="Rectangle_659" data-name="Rectangle 659" width="112" height="28" rx="4" transform="translate(40 113.79)" fill="#303030"/>
    <g id="Group_657" data-name="Group 657">
      <rect id="Rectangle_656" data-name="Rectangle 656" width="42" height="42" rx="4" transform="translate(77 50.79)" fill="#fff"/>
      <g id="user">
        <path id="Path_1984" data-name="Path 1984" d="M101.51,82.9H86.79V78.26a4.1,4.1,0,0,1,4.09-4.09h5.63a8.11,8.11,0,1,0-6-2.72,6.82,6.82,0,0,0-6.42,6.81v6a1.36,1.36,0,0,0,1.36,1.36h16.09a1.36,1.36,0,1,0,0-2.72Zm-5-22.14a5.35,5.35,0,0,1,.15,10.69h-.43a5.35,5.35,0,0,1,.28-10.69Z" fill="#d19426"/>
        <path id="settings" d="M111.52,77l-.84-.1a4.78,4.78,0,0,0-.26-.62l.52-.67a.66.66,0,0,0,0-.88l-.7-.7a.67.67,0,0,0-.89-.06l-.67.52a4.6,4.6,0,0,0-.61-.25l-.12-.85a.66.66,0,0,0-.66-.59h-1a.67.67,0,0,0-.67.59l-.1.84a4.73,4.73,0,0,0-.62.25l-.67-.52a.67.67,0,0,0-.88.06l-.7.7a.66.66,0,0,0-.06.89l.52.67a3.559,3.559,0,0,0-.25.61L102,77a.67.67,0,0,0-.59.67v1a.66.66,0,0,0,.59.66l.84.11a4.111,4.111,0,0,0,.25.61l-.52.67a.67.67,0,0,0,.06.89l.7.7a.67.67,0,0,0,.89.06l.66-.52a4.91,4.91,0,0,0,.63.26l.1.84a.67.67,0,0,0,.67.59h1a.66.66,0,0,0,.66-.59l.11-.84a4.732,4.732,0,0,0,.62-.25l.67.52a.66.66,0,0,0,.88-.06l.7-.7a.67.67,0,0,0,.06-.89l-.52-.67a3.26,3.26,0,0,0,.25-.61l.84-.11a.66.66,0,0,0,.59-.66v-1a.66.66,0,0,0-.58-.67Zm-4.78,3.41A2.24,2.24,0,1,1,109,78.18h0a2.26,2.26,0,0,1-2.26,2.24Z" fill="#d19426"/>
      </g>
    </g>
    <g id="Group_659" data-name="Group 659">
      <rect id="Rectangle_656-2" data-name="Rectangle 656-2" width="42" height="42" rx="4" transform="translate(151 50.79)" fill="#fff"/>
      <g id="cards">
        <path id="Path_1987" data-name="Path 1987" d="M165,85.64a3.57,3.57,0,0,1-3.53-3.06l-2.29-16a3.57,3.57,0,0,1,3-4l4.34-.62.39,2.7-4.34.63a.83.83,0,0,0-.7.93h0l2.29,16a.83.83,0,0,0,.93.7l12-1.73a.69.69,0,0,0,.58-.77l-.15-1,2.72-.39.14,1a3.43,3.43,0,0,1-2.91,3.86l-12,1.73a2.89,2.89,0,0,1-.47.02Z" fill="#d19426"/>
        <path id="Path_1988" data-name="Path 1988" d="M181.23,80.57H169.16A3.58,3.58,0,0,1,165.59,77V61.1a3.58,3.58,0,0,1,3.57-3.56h12.07a3.57,3.57,0,0,1,3.56,3.56V77A3.57,3.57,0,0,1,181.23,80.57ZM169.16,60.28a.82.82,0,0,0-.82.82V77a.83.83,0,0,0,.82.83h12.07a.83.83,0,0,0,.82-.83V61.1a.82.82,0,0,0-.82-.82Z" fill="#d19426"/>
        <g id="Group_656" data-name="Group 656">
          <path id="Path_1989" data-name="Path 1989" d="M178.21,69.6a2.91,2.91,0,1,1-5.81,0Z" fill="#d19426"/>
          <circle id="Ellipse_136" data-name="Ellipse 136" cx="1.1" cy="1.1" r="1.1" transform="translate(170.53 65.76)" fill="#d19426"/>
          <circle id="Ellipse_137" data-name="Ellipse 137" cx="1.1" cy="1.1" r="1.1" transform="translate(177.66 65.76)" fill="#d19426"/>
        </g>
      </g>
    </g>
    <g id="Group_660" data-name="Group 660">
      <rect id="Rectangle_656-3" data-name="Rectangle 656-3" width="42" height="42" rx="4" transform="translate(0 50.79)" fill="#fff"/>
      <g id="user_5_2" data-name="user 5 2">
        <path id="Path_1984-2" data-name="Path 1984-2" d="M24.68,82.83H9.86V78.17A4.12,4.12,0,0,1,14,74.05h5.67a8.16,8.16,0,1,0-6.07-2.74,6.86,6.86,0,0,0-6.47,6.86v6a1.37,1.37,0,0,0,1.38,1.37h16.2a1.37,1.37,0,0,0,.07-2.74H24.7Zm-5-22.29a5.39,5.39,0,0,1,.15,10.77H19.4a5.39,5.39,0,0,1,.28-10.77Z" fill="#d19426"/>
        <g id="Group_655" data-name="Group 655">
          <path id="Path_1985" data-name="Path 1985" d="M34,79.54H25.78a1.37,1.37,0,0,1,0-2.74H34a1.37,1.37,0,1,1,0,2.74Z" fill="#d19426"/>
          <path id="Path_1986" data-name="Path 1986" d="M29.9,83.66a1.37,1.37,0,0,1-1.37-1.37h0V74.05a1.37,1.37,0,1,1,2.74,0v8.24a1.37,1.37,0,0,1-1.37,1.37Z" fill="#d19426"/>
        </g>
      </g>
    </g>
    <g id="Manage">
      <text id="Manage-2" data-name="Manage" transform="translate(72.51 132.79)" fill="#fff" font-size="13" font-family="ArialMT, Arial"><tspan x="0" y="0">Manage</tspan></text>
    </g>
    <g id="clicking">
      <path id="Path_1990" data-name="Path 1990" d="M129.94,135.42a1,1,0,0,0,.26-1.34,4.84,4.84,0,1,1,8-5.39,5,5,0,0,1,.68,1.5,1,1,0,1,0,1.86-.48,6.76,6.76,0,1,0-12.17,5.44,1,1,0,0,0,1.33.27Z" fill="#fff"/>
      <path id="Path_1991" data-name="Path 1991" d="M147.1,135.14a2.89,2.89,0,0,0-4,.39,2.88,2.88,0,0,0-3.79.14l-2.39-5.39a2.93,2.93,0,0,0-3.76-1.52,2.89,2.89,0,0,0-1.58,3.77.25.25,0,0,0,0,.07l6,13.54-1.51-.62a2.89,2.89,0,0,0-2.31,5.29h.08l8.75,3.68a4.79,4.79,0,0,0,3.82,0l7.15-3.18A4.81,4.81,0,0,0,156,145l-4-9.19a2.88,2.88,0,0,0-3.81-1.45,2.75,2.75,0,0,0-1,.78Zm7.17,10.6a2.9,2.9,0,0,1-1.47,3.81l-7.15,3.18a2.89,2.89,0,0,1-2.29,0l-8.76-3.69a1,1,0,0,1-.53-1.25h0a1,1,0,0,1,1.28-.48l3.74,1.53a1,1,0,0,0,1.25-.53.93.93,0,0,0,0-.75l-7-15.73a1,1,0,0,1,.49-1.28h0a1,1,0,0,1,1.27.53c4.3,9.67,2.33,5.3,4.66,10.52a1,1,0,0,0,1.77-.79l-1.24-2.8a1,1,0,0,1,1.81-.61l1.2,2.6a1,1,0,0,0,1.76-.79l-.65-1.46a.958.958,0,1,1,1.75-.78l.66,1.46a1,1,0,1,0,1.75-.78l-.13-.29a1,1,0,0,1,1.76-.79Z" fill="#fff"/>
    </g>
    <path id="Path_96" d="M68.794,419.851a.915.915,0,0,1-.645-.267l-2-2a.914.914,0,0,1,0-1.291l2-2a.914.914,0,0,1,1.291,0l2,2a.914.914,0,0,1,0,1.291l-2,2.008a.915.915,0,0,1-.646.259Zm-.711-2.917.711.711.711-.711-.711-.708Z" transform="translate(-223.882 -348.736)" fill="rgba(96,210,250,0.7)"/>
    <path id="Path_96-2" data-name="Path_96" d="M68.794,419.851a.915.915,0,0,1-.645-.267l-2-2a.914.914,0,0,1,0-1.291l2-2a.914.914,0,0,1,1.291,0l2,2a.914.914,0,0,1,0,1.291l-2,2.008a.915.915,0,0,1-.646.259Zm-.711-2.917.711.711.711-.711-.711-.708Z" transform="translate(-123.882 -418.736)" fill="rgba(96,210,250,0.7)"/>
    <path id="Path_95" d="M424.493,166.965a.914.914,0,0,1-.914-.914,1.1,1.1,0,0,0-1.1-1.1.915.915,0,0,1,0-1.829,1.1,1.1,0,0,0,1.1-1.1.915.915,0,1,1,1.829,0,1.1,1.1,0,0,0,1.1,1.1.915.915,0,0,1,0,1.829,1.1,1.1,0,0,0-1.1,1.1.914.914,0,0,1-.914.914Z" transform="translate(-528.433 -20.848)" fill="#ffe783"/>
    <path id="padlock" d="M70.9,3.681V2.932a2.932,2.932,0,0,0-5.864,0v.749a1.169,1.169,0,0,0-.586,1.01V8.209a1.174,1.174,0,0,0,1.173,1.173h4.691a1.174,1.174,0,0,0,1.173-1.173V4.691a1.169,1.169,0,0,0-.586-1.01ZM67.963,1.173a1.761,1.761,0,0,1,1.759,1.759v.586H66.2V2.932a1.761,1.761,0,0,1,1.759-1.759Zm.586,5.635v.815H67.377V6.808a.88.88,0,1,1,1.173,0Z" transform="translate(-62.846 119.105)" fill="#3ad29f" opacity="0.55"/>
    <path id="Path_96-3" data-name="Path_96" d="M68.794,419.851a.915.915,0,0,1-.645-.267l-2-2a.914.914,0,0,1,0-1.291l2-2a.914.914,0,0,1,1.291,0l2,2a.914.914,0,0,1,0,1.291l-2,2.008a.915.915,0,0,1-.646.259Zm-.711-2.917.711.711.711-.711-.711-.708Z" transform="translate(-123.882 -363.736)" fill="rgba(96,210,250,0.7)"/>
    <path id="Path_95-2" data-name="Path_95" d="M424.493,166.965a.914.914,0,0,1-.914-.914,1.1,1.1,0,0,0-1.1-1.1.915.915,0,0,1,0-1.829,1.1,1.1,0,0,0,1.1-1.1.915.915,0,1,1,1.829,0,1.1,1.1,0,0,0,1.1,1.1.915.915,0,0,1,0,1.829,1.1,1.1,0,0,0-1.1,1.1.914.914,0,0,1-.914.914Z" transform="translate(-238.433 -140.848)" fill="#ffe783"/>
    <path id="Path_96-4" data-name="Path_96" d="M68.794,419.851a.915.915,0,0,1-.645-.267l-2-2a.914.914,0,0,1,0-1.291l2-2a.914.914,0,0,1,1.291,0l2,2a.914.914,0,0,1,0,1.291l-2,2.008a.915.915,0,0,1-.646.259Zm-.711-2.917.711.711.711-.711-.711-.708Z" transform="translate(36.118 -398.736)" fill="rgba(96,210,250,0.7)"/>
    <path id="Path_96-5" data-name="Path_96" d="M68.794,419.851a.915.915,0,0,1-.645-.267l-2-2a.914.914,0,0,1,0-1.291l2-2a.914.914,0,0,1,1.291,0l2,2a.914.914,0,0,1,0,1.291l-2,2.008a.915.915,0,0,1-.646.259Zm-.711-2.917.711.711.711-.711-.711-.708Z" transform="translate(136.118 -278.736)" fill="rgba(96,210,250,0.7)"/>
    <path id="Path_96-6" data-name="Path_96" d="M68.794,419.851a.915.915,0,0,1-.645-.267l-2-2a.914.914,0,0,1,0-1.291l2-2a.914.914,0,0,1,1.291,0l2,2a.914.914,0,0,1,0,1.291l-2,2.008a.915.915,0,0,1-.646.259Zm-.711-2.917.711.711.711-.711-.711-.708Z" transform="translate(180.118 -423.736)" fill="rgba(96,210,250,0.7)"/>
    <path id="Path_95-3" data-name="Path_95" d="M424.493,166.965a.914.914,0,0,1-.914-.914,1.1,1.1,0,0,0-1.1-1.1.915.915,0,0,1,0-1.829,1.1,1.1,0,0,0,1.1-1.1.915.915,0,1,1,1.829,0,1.1,1.1,0,0,0,1.1,1.1.915.915,0,0,1,0,1.829,1.1,1.1,0,0,0-1.1,1.1.914.914,0,0,1-.914.914Z" transform="translate(-188.433 9.152)" fill="#ffe783"/>
    <path id="padlock-2" data-name="padlock" d="M68.016,2.172V1.73a1.625,1.625,0,1,0-3.242,0v.442a.7.7,0,0,0-.324.6V4.843a.672.672,0,0,0,.649.692h2.594a.672.672,0,0,0,.649-.692V2.768a.7.7,0,0,0-.324-.6ZM66.392.692a1.008,1.008,0,0,1,.973,1.038v.346H65.418V1.73A1.008,1.008,0,0,1,66.39.692Zm.324,3.325V4.5h-.648V4.017a.543.543,0,0,1-.13-.572.476.476,0,0,1,.909,0,.543.543,0,0,1-.13.572Z" transform="translate(167.154 59.105)" fill="#3ad29f" opacity="0.55"/>
  </g>
</svg>
