<!--
 * Copyright (c) 2020, WSO2 Inc. (http://www.wso2.com). All Rights Reserved.
 *
 * This software is the property of WSO2 Inc. and its suppliers, if any.
 * Dissemination of any information or reproduction of any material contained
 * herein in any form is strictly forbidden, unless permitted by WSO2 expressly.
 * You may not alter or remove any copyright or other notice from copies of this content."
-->

<svg id="mfa-illustration" class="icon" xmlns="http://www.w3.org/2000/svg" width="565.831" height="204.172" viewBox="0 0 565.831 204.172">
    <path id="Path_95" d="M424.493,166.965a.914.914,0,0,1-.914-.914,1.1,1.1,0,0,0-1.1-1.1.915.915,0,0,1,0-1.829,1.1,1.1,0,0,0,1.1-1.1.915.915,0,1,1,1.829,0,1.1,1.1,0,0,0,1.1,1.1.915.915,0,0,1,0,1.829,1.1,1.1,0,0,0-1.1,1.1.914.914,0,0,1-.914.914Z" transform="translate(64.001 -92.455)" fill="#ffe783"/>
    <path id="Path_95-2" data-name="Path_95" d="M424.493,166.965a.914.914,0,0,1-.914-.914,1.1,1.1,0,0,0-1.1-1.1.915.915,0,0,1,0-1.829,1.1,1.1,0,0,0,1.1-1.1.915.915,0,1,1,1.829,0,1.1,1.1,0,0,0,1.1,1.1.915.915,0,0,1,0,1.829,1.1,1.1,0,0,0-1.1,1.1.914.914,0,0,1-.914.914Z" transform="translate(-114.041 -18.163)" fill="#ffe783"/>
    <path id="Path_95-3" data-name="Path_95" d="M424.493,166.965a.914.914,0,0,1-.914-.914,1.1,1.1,0,0,0-1.1-1.1.915.915,0,0,1,0-1.829,1.1,1.1,0,0,0,1.1-1.1.915.915,0,1,1,1.829,0,1.1,1.1,0,0,0,1.1,1.1.915.915,0,0,1,0,1.829,1.1,1.1,0,0,0-1.1,1.1.914.914,0,0,1-.914.914Z" transform="translate(-220.041 -79.163)" fill="#ffe783"/>
    <path id="Path_96" d="M68.794,419.851a.915.915,0,0,1-.645-.267l-2-2a.914.914,0,0,1,0-1.291l2-2a.914.914,0,0,1,1.291,0l2,2a.914.914,0,0,1,0,1.291l-2,2.008A.915.915,0,0,1,68.794,419.851Zm-.711-2.917.711.711.711-.711-.711-.708Z" transform="translate(345.51 -240.051)" fill="rgba(96,210,250,0.71)"/>
    <path id="Path_98" d="M141.064,46.254a.914.914,0,0,1-.645-.267l-2-2.005a.914.914,0,0,1,0-1.291l2-2a.914.914,0,0,1,1.291,0l2,2a.914.914,0,0,1,0,1.291l-2,2a.909.909,0,0,1-.645.267Zm-.711-2.917.711.711.711-.711-.711-.711Z" transform="translate(239.852 -1.42)" fill="rgba(96,210,250,0.71)"/>
    <path id="Path_98-2" data-name="Path_98" d="M141.064,46.254a.914.914,0,0,1-.645-.267l-2-2.005a.914.914,0,0,1,0-1.291l2-2a.914.914,0,0,1,1.291,0l2,2a.914.914,0,0,1,0,1.291l-2,2a.909.909,0,0,1-.645.267Zm-.711-2.917.711.711.711-.711-.711-.711Z" transform="translate(113.852 -40.42)" fill="rgba(96,210,250,0.71)"/>
    <path id="Path_98-3" data-name="Path_98" d="M141.064,46.254a.914.914,0,0,1-.645-.267l-2-2.005a.914.914,0,0,1,0-1.291l2-2a.914.914,0,0,1,1.291,0l2,2a.914.914,0,0,1,0,1.291l-2,2a.909.909,0,0,1-.645.267Zm-.711-2.917.711.711.711-.711-.711-.711Z" transform="translate(-138.148 78.58)" fill="rgba(96,210,250,0.71)"/>
    <path id="Path_98-4" data-name="Path_98" d="M141.064,46.254a.914.914,0,0,1-.645-.267l-2-2.005a.914.914,0,0,1,0-1.291l2-2a.914.914,0,0,1,1.291,0l2,2a.914.914,0,0,1,0,1.291l-2,2a.909.909,0,0,1-.645.267Zm-.711-2.917.711.711.711-.711-.711-.711Z" transform="translate(421.852 91.58)" fill="rgba(33,133,208,0.75)"/>
    <g id="Mobile-Device" transform="translate(424.164 89.79)">
        <g id="Rectangle_362" data-name="Rectangle 362" transform="translate(-0.164)" fill="#fff" stroke="#2185d0" stroke-width="1">
            <rect width="49" height="101" rx="3" stroke="none"/>
            <rect x="0.5" y="0.5" width="48" height="100" rx="2.5" fill="none"/>
        </g>
        <path id="Rectangle_363" data-name="Rectangle 363" d="M0,0H25a0,0,0,0,1,0,0V3a2,2,0,0,1-2,2H2A2,2,0,0,1,0,3V0A0,0,0,0,1,0,0Z" transform="translate(11.836)" fill="#000"/>
        <rect id="Rectangle_377" data-name="Rectangle 377" width="42" height="7" rx="1" transform="translate(2.836 9)" fill="#bdbdbd"/>
        <rect id="Rectangle_383" data-name="Rectangle 383" width="42" height="6" rx="1" transform="translate(2.836 90)" fill="#000"/>
        <rect id="Rectangle_378" data-name="Rectangle 378" width="42" height="33" rx="1" transform="translate(2.836 20)" fill="#e1e1e1"/>
        <rect id="Rectangle_379" data-name="Rectangle 379" width="33" height="5" rx="1" transform="translate(2.836 55)" fill="#e1e1e1"/>
        <rect id="Rectangle_380" data-name="Rectangle 380" width="42" height="4" rx="1" transform="translate(2.836 65)" fill="#e1e1e1"/>
        <rect id="Rectangle_381" data-name="Rectangle 381" width="30" height="3" rx="1" transform="translate(2.836 70)" fill="#e1e1e1"/>
        <rect id="Rectangle_382" data-name="Rectangle 382" width="37" height="5" rx="1" transform="translate(2.836 74)" fill="#e1e1e1"/>
    </g>
    <path id="Subtraction_3" data-name="Subtraction 3" d="M.215,64.493h0C.073,62.575,0,60.627,0,58.7A75.647,75.647,0,0,1,22.235,5.021C24,3.255,25.865,1.565,27.768,0l2.781,2.678A71.876,71.876,0,0,0,3.8,58.7c0,1.866.072,3.742.214,5.576l-3.793.214Z" transform="translate(373.004 55.399)" fill="#000"/>
    <rect id="Rectangle_393" data-name="Rectangle 393" width="51" height="51" rx="6" transform="translate(423 13.79)" fill="#fff"/>
    <rect id="Rectangle_394" data-name="Rectangle 394" width="51" height="51" rx="6" transform="translate(500 122.79)" fill="#fff"/>
    <rect id="Rectangle_395" data-name="Rectangle 395" width="51" height="51" rx="6" transform="translate(347 122.79)" fill="#fff"/>
    <path id="Polygon_1" data-name="Polygon 1" d="M7.592,0l7.592,12.654H0Z" transform="translate(401.901 47.281) rotate(49)" fill="#000"/>
    <g id="fingerprint_4_" data-name="fingerprint (4)" transform="translate(431.211 22.013)" opacity="0.59">
        <path id="Path_354" data-name="Path 354" d="M94.6,269.9a1.029,1.029,0,1,0-1.76-1.067,10.266,10.266,0,0,1-4.668,4.29,1.03,1.03,0,0,0,.717,1.93A12.21,12.21,0,0,0,94.6,269.9Z" transform="translate(-81.499 -249.92)"/>
        <path id="Path_355" data-name="Path 355" d="M193.176,181.4a5.148,5.148,0,0,0-8.992,1.61,1.029,1.029,0,1,0,1.965.612,3.092,3.092,0,1,1,5.838,2.029c-.828,3.071-3.429,7.113-6.626,10.3a1.029,1.029,0,0,0,1.452,1.459c3.435-3.421,6.246-7.825,7.161-11.22A5.282,5.282,0,0,0,193.176,181.4Z" transform="translate(-171.495 -167.08)"/>
        <path id="Path_356" data-name="Path 356" d="M209.617,121.7a7.212,7.212,0,0,1,2.994-.208,1.03,1.03,0,0,0,.288-2.039,9.267,9.267,0,0,0-3.848.267,1.03,1.03,0,0,0,.567,1.98Z" transform="translate(-194.004 -111.168)"/>
        <path id="Path_357" data-name="Path 357" d="M71.073,153.378a7.17,7.17,0,0,1,2.185-3.328,1.029,1.029,0,0,0-1.338-1.564,9.227,9.227,0,0,0-2.812,4.283c-.794,2.563-1.977,4.086-3.618,4.656a1.03,1.03,0,0,0,.675,1.945C68.434,158.581,70.086,156.565,71.073,153.378Z" transform="translate(-60.349 -138.062)"/>
        <path id="Path_358" data-name="Path 358" d="M139.216,240.7a1.029,1.029,0,1,0-1.965-.613,16.179,16.179,0,0,1-7.2,9.316,1.029,1.029,0,0,0,1,1.8A18.28,18.28,0,0,0,139.216,240.7Z" transform="translate(-120.635 -222.929)"/>
        <path id="Path_359" data-name="Path 359" d="M17.56,0a17.572,17.572,0,1,0,3.368,34.82,1.025,1.025,0,0,0,.748.324H31.964a1.029,1.029,0,0,0,1.029-1.03V25.959A17.583,17.583,0,0,0,17.56,0ZM2.058,17.572a15.506,15.506,0,1,1,29.2,7.276H24.765V20.795a2.054,2.054,0,1,1,4.109,0v1a1.029,1.029,0,1,0,2.058,0,6.565,6.565,0,0,0-.189-2.232A13.327,13.327,0,0,0,6.8,9.556a24.825,24.825,0,0,0-2.331,4.762,1.029,1.029,0,1,0,1.853.895c.907-1.882,1.346-4.516,4.594-6.893a11.278,11.278,0,0,1,17.947,8.907,4.075,4.075,0,0,0-2.069-.546,9.137,9.137,0,0,0-4.167-7,1.029,1.029,0,0,0-1.115,1.73,7.105,7.105,0,0,1,3.251,5.825,4.117,4.117,0,0,0-2.057,3.562v4.053H21.675a1.029,1.029,0,0,0-1.029,1.03v6.9A15.521,15.521,0,0,1,2.058,17.572ZM30.935,33.085H22.7V26.907h8.231v6.178Z"/>
        <path id="Path_360" data-name="Path 360" d="M361.724,423h2.058a1.03,1.03,0,0,0,0-2.059h-2.058a1.03,1.03,0,0,0,0,2.059Z" transform="translate(-335.933 -392.044)"/>
    </g>
    <g id="password_4_" data-name="password (4)" transform="translate(353.164 143.29)" opacity="0.6">
        <g id="Group_546" data-name="Group 546" transform="translate(0 0)">
            <path id="Path_361" data-name="Path 361" d="M7.411,200.6H5.544l.934-1.617a.824.824,0,0,0-1.426-.824l-.934,1.617-.934-1.617a.824.824,0,0,0-1.426.824l.934,1.617H.824a.824.824,0,1,0,0,1.647H2.691l-.934,1.617a.824.824,0,0,0,.3,1.125.812.812,0,0,0,.412.11.824.824,0,0,0,.715-.412l.932-1.617.934,1.617a.823.823,0,0,0,.715.412.812.812,0,0,0,.412-.11.824.824,0,0,0,.3-1.125l-.936-1.617H7.411a.823.823,0,1,0,0-1.647Z" transform="translate(0 -197.747)" fill="#2196f3"/>
            <path id="Path_362" data-name="Path 362" d="M135.412,200.595h-1.868l.934-1.617a.823.823,0,0,0-1.426-.824l-.934,1.617-.934-1.617a.823.823,0,0,0-1.426.823l.934,1.617h-1.868a.824.824,0,1,0,0,1.647h1.868l-.934,1.617a.823.823,0,0,0,.3,1.125.812.812,0,0,0,.412.11.824.824,0,0,0,.715-.412l.932-1.617.934,1.617a.823.823,0,0,0,.715.412.812.812,0,0,0,.412-.11.824.824,0,0,0,.3-1.125l-.935-1.617h1.868a.823.823,0,1,0,0-1.647Z" transform="translate(-118.119 -197.747)" fill="#2196f3"/>
            <path id="Path_363" data-name="Path 363" d="M263.412,200.595h-1.868l.934-1.617a.823.823,0,0,0-1.426-.824l-.934,1.617-.934-1.617a.823.823,0,0,0-1.426.823l.934,1.617h-1.868a.824.824,0,1,0,0,1.647h1.868l-.934,1.617a.824.824,0,0,0,.3,1.125.812.812,0,0,0,.412.11.824.824,0,0,0,.715-.412l.932-1.617.934,1.617a.823.823,0,0,0,.715.412.812.812,0,0,0,.412-.11.824.824,0,0,0,.3-1.125l-.934-1.617h1.866a.823.823,0,1,0,0-1.647Z" transform="translate(-236.237 -197.747)" fill="#2196f3"/>
            <path id="Path_364" data-name="Path 364" d="M391.411,200.6h-1.868l.934-1.617a.823.823,0,0,0-1.426-.823l-.934,1.617-.934-1.617a.824.824,0,0,0-1.426.824l.934,1.617h-1.868a.824.824,0,0,0,0,1.647h1.868l-.934,1.617a.824.824,0,0,0,.3,1.125.812.812,0,0,0,.412.11.824.824,0,0,0,.715-.412l.932-1.617.934,1.617a.823.823,0,0,0,.715.412.812.812,0,0,0,.412-.11.824.824,0,0,0,.3-1.125l-.934-1.617h1.866a.824.824,0,0,0,0-1.647Z" transform="translate(-354.353 -197.749)" fill="#2196f3"/>
        </g>
        <path id="Path_365" data-name="Path 365" d="M7.411,236.284H.824a.823.823,0,1,1,0-1.647H7.411a.823.823,0,1,1,0,1.647Z" transform="translate(0 -231.789)"/>
        <path id="Path_366" data-name="Path 366" d="M22.157,205.378a.824.824,0,0,1-.713-1.235l3.294-5.707a.823.823,0,0,1,1.425.824l-3.294,5.707A.823.823,0,0,1,22.157,205.378Z" transform="translate(-19.687 -198.031)"/>
        <path id="Path_367" data-name="Path 367" d="M25.647,205.378a.823.823,0,0,1-.713-.412l-3.294-5.707a.823.823,0,0,1,1.425-.824l3.294,5.707a.823.823,0,0,1-.713,1.235Z" transform="translate(-19.882 -198.031)"/>
        <path id="Path_368" data-name="Path 368" d="M135.411,236.283h-6.588a.824.824,0,1,1,0-1.647h6.588a.824.824,0,1,1,0,1.647Z" transform="translate(-118.118 -231.788)"/>
        <path id="Path_369" data-name="Path 369" d="M150.157,205.378a.824.824,0,0,1-.713-1.235l3.294-5.707a.823.823,0,0,1,1.425.824l-3.294,5.707A.824.824,0,0,1,150.157,205.378Z" transform="translate(-137.805 -198.031)"/>
        <path id="Path_370" data-name="Path 370" d="M153.647,205.378a.823.823,0,0,1-.713-.412l-3.294-5.707a.823.823,0,0,1,1.425-.824l3.294,5.707a.823.823,0,0,1-.713,1.235Z" transform="translate(-138 -198.031)"/>
        <path id="Path_371" data-name="Path 371" d="M263.411,236.283h-6.588a.824.824,0,1,1,0-1.647h6.588a.824.824,0,1,1,0,1.647Z" transform="translate(-236.236 -231.788)"/>
        <path id="Path_372" data-name="Path 372" d="M278.157,205.378a.824.824,0,0,1-.713-1.235l3.294-5.707a.823.823,0,0,1,1.425.823l-3.294,5.707A.823.823,0,0,1,278.157,205.378Z" transform="translate(-255.923 -198.03)"/>
        <path id="Path_373" data-name="Path 373" d="M281.647,205.378a.823.823,0,0,1-.713-.412l-3.294-5.707a.823.823,0,0,1,1.425-.824l3.294,5.707a.823.823,0,0,1-.713,1.235Z" transform="translate(-256.118 -198.031)"/>
        <path id="Path_374" data-name="Path 374" d="M391.411,236.283h-6.588a.824.824,0,0,1,0-1.647h6.588a.824.824,0,1,1,0,1.647Z" transform="translate(-354.354 -231.788)"/>
        <path id="Path_375" data-name="Path 375" d="M406.157,205.378a.824.824,0,0,1-.713-1.235l3.294-5.707a.823.823,0,0,1,1.425.824l-3.294,5.707A.823.823,0,0,1,406.157,205.378Z" transform="translate(-374.041 -198.031)"/>
        <path id="Path_376" data-name="Path 376" d="M409.647,205.378a.823.823,0,0,1-.713-.412l-3.294-5.707a.823.823,0,0,1,1.425-.824l3.294,5.707a.824.824,0,0,1-.713,1.235Z" transform="translate(-374.236 -198.031)"/>
    </g>
    <path id="Subtraction_6" data-name="Subtraction 6" d="M.215,0h0C.073,1.917,0,3.865,0,5.79A75.474,75.474,0,0,0,5.964,35.341,75.728,75.728,0,0,0,22.236,59.472c1.768,1.766,3.629,3.455,5.532,5.021l2.782-2.678A71.873,71.873,0,0,1,3.8,5.79c0-1.866.072-3.742.214-5.576L.216,0Z" transform="translate(527.015 116.626) rotate(180)" fill="#ff5000"/>
    <path id="Polygon_3" data-name="Polygon 3" d="M7.592,0l7.592,12.654H0Z" transform="matrix(0.545, -0.839, 0.839, 0.545, 513.779, 113.761)" fill="#ff5000"/>
    <g id="tick_6_" data-name="tick (6)" transform="translate(513.462 134.555)" opacity="0.6">
        <g id="Group_549" data-name="Group 549">
            <g id="Group_548" data-name="Group 548">
                <path id="Path_378" data-name="Path 378" d="M12.29,0a12.29,12.29,0,1,0,12.29,12.29A12.29,12.29,0,0,0,12.29,0Zm0,22.825A10.535,10.535,0,1,1,22.825,12.29,10.535,10.535,0,0,1,12.29,22.825Z"/>
            </g>
        </g>
        <g id="Group_551" data-name="Group 551" transform="translate(5.257 7.034)">
            <g id="Group_550" data-name="Group 550">
                <path id="Path_379" data-name="Path 379" d="M115.968,136.989a.878.878,0,0,0-1.22,0h0l-8.158,8.158-2.891-2.891a.878.878,0,1,0-1.263,1.22l.022.022,3.512,3.512a.878.878,0,0,0,1.241,0l8.779-8.779A.878.878,0,0,0,115.968,136.989Z" transform="translate(-102.19 -136.743)"/>
            </g>
        </g>
    </g>
    <path id="Path_97" d="M395.1,111.077a.909.909,0,0,1-.645-.267l-2-2a.914.914,0,0,1,0-1.291l2-2a.914.914,0,0,1,1.291,0l2,2a.914.914,0,0,1,0,1.291l-2,2a.914.914,0,0,1-.645.267Zm-.712-2.916.712.711.711-.711-.711-.711Z" transform="translate(101.023 -88.774)" fill="rgba(96,210,250,0.71)"/>
    <path id="Path_97-2" data-name="Path_97" d="M395.1,111.077a.909.909,0,0,1-.645-.267l-2-2a.914.914,0,0,1,0-1.291l2-2a.914.914,0,0,1,1.291,0l2,2a.914.914,0,0,1,0,1.291l-2,2a.914.914,0,0,1-.645.267Zm-.712-2.916.712.711.711-.711-.711-.711Z" transform="translate(-213.977 74.226)" fill="rgba(96,210,250,0.71)"/>
    <path id="padlock" d="M70.9,3.681V2.932a2.932,2.932,0,1,0-5.864,0v.749a1.169,1.169,0,0,0-.586,1.01V8.209a1.174,1.174,0,0,0,1.173,1.173h4.691a1.174,1.174,0,0,0,1.173-1.173V4.691a1.169,1.169,0,0,0-.586-1.01ZM67.963,1.173a1.761,1.761,0,0,1,1.759,1.759v.586H66.2V2.932a1.761,1.761,0,0,1,1.759-1.759Zm.586,5.635v.815H67.377V6.808a.88.88,0,1,1,1.173,0Z" transform="translate(431.719 181.79)" fill="#3ad29f" opacity="0.55"/>
    <path id="padlock-2" data-name="padlock" d="M70.9,3.681V2.932a2.932,2.932,0,1,0-5.864,0v.749a1.169,1.169,0,0,0-.586,1.01V8.209a1.174,1.174,0,0,0,1.173,1.173h4.691a1.174,1.174,0,0,0,1.173-1.173V4.691a1.169,1.169,0,0,0-.586-1.01ZM67.963,1.173a1.761,1.761,0,0,1,1.759,1.759v.586H66.2V2.932a1.761,1.761,0,0,1,1.759-1.759Zm.586,5.635v.815H67.377V6.808a.88.88,0,1,1,1.173,0Z" transform="translate(236.719 194.79)" fill="#3ad29f" opacity="0.55"/>
</svg>
