<!--
 * Copyright (c) 2020, WSO2 Inc. (http://www.wso2.com). All Rights Reserved.
 *
 * This software is the property of WSO2 Inc. and its suppliers, if any.
 * Dissemination of any information or reproduction of any material contained
 * herein in any form is strictly forbidden, unless permitted by WSO2 expressly.
 * You may not alter or remove any copyright or other notice from copies of this content."
-->

<svg xmlns="http://www.w3.org/2000/svg" width="476.318" height="171.871" viewBox="0 0 476.318 171.871">
    <g id="mfa-illustration" transform="translate(-0.004 -0.004)">
        <path id="Path_95"
              d="M424.034,166.034a.769.769,0,0,1-.769-.769.926.926,0,0,0-.926-.926.77.77,0,0,1,0-1.54.926.926,0,0,0,.926-.926.77.77,0,1,1,1.54,0,.926.926,0,0,0,.926.926.77.77,0,0,1,0,1.54.926.926,0,0,0-.926.926.769.769,0,0,1-.769.769Z"
              transform="translate(-12.814 -103.31)" fill="#ffe783"/>
        <path id="Path_95-2" data-name="Path_95"
              d="M424.034,166.034a.769.769,0,0,1-.769-.769.926.926,0,0,0-.926-.926.77.77,0,0,1,0-1.54.926.926,0,0,0,.926-.926.77.77,0,1,1,1.54,0,.926.926,0,0,0,.926.926.77.77,0,0,1,0,1.54.926.926,0,0,0-.926.926.769.769,0,0,1-.769.769Z"
              transform="translate(-162.692 -40.77)" fill="#ffe783"/>
        <path id="Path_95-3" data-name="Path_95"
              d="M424.034,166.034a.769.769,0,0,1-.769-.769.926.926,0,0,0-.926-.926.77.77,0,0,1,0-1.54.926.926,0,0,0,.926-.926.77.77,0,1,1,1.54,0,.926.926,0,0,0,.926.926.77.77,0,0,1,0,1.54.926.926,0,0,0-.926.926.769.769,0,0,1-.769.769Z"
              transform="translate(-251.924 -92.12)" fill="#ffe783"/>
        <path id="Path_96"
              d="M68.333,418.93a.77.77,0,0,1-.543-.225l-1.684-1.684a.769.769,0,0,1,0-1.087l1.684-1.684a.769.769,0,0,1,1.087,0l1.684,1.684a.769.769,0,0,1,0,1.087l-1.684,1.69A.77.77,0,0,1,68.333,418.93Zm-.6-2.456.6.6.6-.6-.6-.6Z"
              transform="translate(280.433 -267.571)" fill="rgba(96,210,250,0.71)"/>
        <path id="Path_98"
              d="M140.6,45.332a.769.769,0,0,1-.543-.225l-1.684-1.688a.769.769,0,0,1,0-1.087l1.684-1.684a.769.769,0,0,1,1.087,0l1.684,1.684a.769.769,0,0,1,0,1.087L141.147,45.1a.765.765,0,0,1-.543.225Zm-.6-2.456.6.6.6-.6-.6-.6Z"
              transform="translate(180.057 -7.589)" fill="rgba(96,210,250,0.71)"/>
        <path id="Path_98-2" data-name="Path_98"
              d="M140.6,45.332a.769.769,0,0,1-.543-.225l-1.684-1.688a.769.769,0,0,1,0-1.087l1.684-1.684a.769.769,0,0,1,1.087,0l1.684,1.684a.769.769,0,0,1,0,1.087L141.147,45.1a.765.765,0,0,1-.543.225Zm-.6-2.456.6.6.6-.6-.6-.6Z"
              transform="translate(73.989 -40.42)" fill="rgba(96,210,250,0.71)"/>
        <path id="Path_98-3" data-name="Path_98"
              d="M140.6,45.332a.769.769,0,0,1-.543-.225l-1.684-1.688a.769.769,0,0,1,0-1.087l1.684-1.684a.769.769,0,0,1,1.087,0l1.684,1.684a.769.769,0,0,1,0,1.087L141.147,45.1a.765.765,0,0,1-.543.225Zm-.6-2.456.6.6.6-.6-.6-.6Z"
              transform="translate(-138.148 59.756)" fill="rgba(96,210,250,0.71)"/>
        <path id="Path_98-4" data-name="Path_98"
              d="M140.6,45.332a.769.769,0,0,1-.543-.225l-1.684-1.688a.769.769,0,0,1,0-1.087l1.684-1.684a.769.769,0,0,1,1.087,0l1.684,1.684a.769.769,0,0,1,0,1.087L141.147,45.1a.765.765,0,0,1-.543.225Zm-.6-2.456.6.6.6-.6-.6-.6Z"
              transform="translate(333.266 70.699)" fill="rgba(33,133,208,0.75)"/>
        <g id="Mobile-Device" transform="translate(356.929 75.587)">
            <g id="Rectangle_362" data-name="Rectangle 362" transform="translate(0)" fill="#fff" stroke="#2185d0"
               stroke-width="1">
                <rect width="41.249" height="85.023" rx="3" stroke="none"/>
                <rect x="0.5" y="0.5" width="40.249" height="84.023" rx="2.5" fill="none"/>
            </g>
            <path id="Rectangle_363" data-name="Rectangle 363"
                  d="M0,0H21.045V2.525a1.684,1.684,0,0,1-1.684,1.684H1.684A1.684,1.684,0,0,1,0,2.525Z"
                  transform="translate(10.102)"/>
            <rect id="Rectangle_377" data-name="Rectangle 377" width="35.356" height="5.893" rx="1"
                  transform="translate(2.525 7.576)" fill="#bdbdbd"/>
            <rect id="Rectangle_383" data-name="Rectangle 383" width="35.356" height="5.051" rx="1"
                  transform="translate(2.525 75.763)"/>
            <rect id="Rectangle_378" data-name="Rectangle 378" width="35.356" height="27.78" rx="1"
                  transform="translate(2.525 16.836)" fill="#e1e1e1"/>
            <rect id="Rectangle_379" data-name="Rectangle 379" width="27.78" height="4.209" rx="1"
                  transform="translate(2.525 46.3)" fill="#e1e1e1"/>
            <rect id="Rectangle_380" data-name="Rectangle 380" width="35.356" height="3.367" rx="1"
                  transform="translate(2.525 54.718)" fill="#e1e1e1"/>
            <rect id="Rectangle_381" data-name="Rectangle 381" width="25.254" height="2.525" rx="1"
                  transform="translate(2.525 58.927)" fill="#e1e1e1"/>
            <rect id="Rectangle_382" data-name="Rectangle 382" width="31.147" height="4.209" rx="1"
                  transform="translate(2.525 62.294)" fill="#e1e1e1"/>
        </g>
        <path id="Subtraction_3" data-name="Subtraction 3"
              d="M.181,54.291h0C.061,52.676,0,51.037,0,49.414A63.68,63.68,0,0,1,18.718,4.227C20.2,2.74,21.773,1.317,23.375,0l2.341,2.254A60.506,60.506,0,0,0,3.2,49.414c0,1.571.061,3.15.18,4.694l-3.193.18Z"
              transform="translate(314 46.636)" fill="#fff"/>
        <rect id="Rectangle_393" data-name="Rectangle 393" width="42.932" height="42.932" rx="6"
              transform="translate(356.087 11.609)" fill="#fff"/>
        <rect id="Rectangle_394" data-name="Rectangle 394" width="42.932" height="42.932" rx="6"
              transform="translate(420.906 103.367)" fill="#fff"/>
        <rect id="Rectangle_395" data-name="Rectangle 395" width="42.932" height="42.932" rx="6"
              transform="translate(292.109 103.367)" fill="#fff"/>
        <path id="Polygon_1" data-name="Polygon 1" d="M6.391,0l6.391,10.652H0Z"
              transform="matrix(0.656, 0.755, -0.755, 0.656, 338.326, 39.802)" fill="#fff"/>
        <g id="fingerprint_4_" data-name="fingerprint (4)" transform="translate(362.997 18.531)">
            <path id="Path_354" data-name="Path 354"
                  d="M93.482,269.653a.866.866,0,0,0-1.482-.9,8.642,8.642,0,0,1-3.93,3.611.867.867,0,0,0,.6,1.625A10.278,10.278,0,0,0,93.482,269.653Z"
                  transform="translate(-82.451 -252.833)" fill="#232323"/>
            <path id="Path_355" data-name="Path 355"
                  d="M191.746,181.083a4.334,4.334,0,0,0-7.57,1.355.866.866,0,0,0,1.654.515,2.6,2.6,0,1,1,4.914,1.708,21.965,21.965,0,0,1-5.578,8.671.866.866,0,1,0,1.222,1.228c2.892-2.88,5.258-6.587,6.028-9.445a4.446,4.446,0,0,0-.672-4.032Z"
                  transform="translate(-173.492 -169.028)" fill="#232323"/>
            <path id="Path_356" data-name="Path 356"
                  d="M209.409,121.33a6.071,6.071,0,0,1,2.52-.175.867.867,0,0,0,.242-1.716,7.8,7.8,0,0,0-3.239.225.867.867,0,1,0,.477,1.667Z"
                  transform="translate(-196.264 -112.464)" fill="#232323"/>
            <path id="Path_357" data-name="Path 357"
                  d="M70.085,152.565a6.036,6.036,0,0,1,1.839-2.8.866.866,0,1,0-1.126-1.317,7.767,7.767,0,0,0-2.367,3.605c-.668,2.158-1.664,3.44-3.046,3.92a.867.867,0,0,0,.568,1.637C67.864,156.945,69.255,155.248,70.085,152.565Z"
                  transform="translate(-61.055 -139.672)" fill="#232323"/>
            <path id="Path_358" data-name="Path 358"
                  d="M137.682,240.489a.866.866,0,0,0-1.654-.516,13.619,13.619,0,0,1-6.061,7.842.867.867,0,0,0,.842,1.515A15.388,15.388,0,0,0,137.682,240.489Z"
                  transform="translate(-122.038 -225.529)" fill="#232323"/>
            <path id="Path_359" data-name="Path 359"
                  d="M14.782,0a14.792,14.792,0,1,0,2.835,29.312.863.863,0,0,0,.63.273h8.661a.866.866,0,0,0,.866-.867V21.853A14.8,14.8,0,0,0,14.782,0ZM1.732,14.792a13.053,13.053,0,1,1,24.581,6.125H20.847V17.505a1.73,1.73,0,0,1,3.459,0v.842a.866.866,0,0,0,1.732,0,5.527,5.527,0,0,0-.159-1.879A11.219,11.219,0,0,0,5.724,8.044a20.9,20.9,0,0,0-1.962,4.009.866.866,0,1,0,1.56.753C6.085,11.222,6.455,9,9.189,7A9.494,9.494,0,0,1,24.3,14.5a3.43,3.43,0,0,0-1.742-.46A7.692,7.692,0,0,0,19.047,8.15a.866.866,0,1,0-.939,1.456,5.981,5.981,0,0,1,2.737,4.9,3.466,3.466,0,0,0-1.732,3V20.92h-.868a.866.866,0,0,0-.866.867V27.6a13.066,13.066,0,0,1-15.648-12.8ZM26.041,27.851H19.109v-5.2h6.929v5.2Z"
                  transform="translate(0.003)" fill="#232323"/>
            <path id="Path_360" data-name="Path 360"
                  d="M361.566,422.674H363.3a.867.867,0,0,0,0-1.733h-1.732a.867.867,0,0,0,0,1.733Z"
                  transform="translate(-339.853 -396.615)" fill="#232323"/>
        </g>
        <path id="Subtraction_6" data-name="Subtraction 6"
              d="M.181,0h0C.062,1.614,0,3.254,0,4.874A63.535,63.535,0,0,0,5.021,29.75a63.748,63.748,0,0,0,13.7,20.314c1.488,1.487,3.055,2.908,4.657,4.227l2.342-2.254A60.5,60.5,0,0,1,3.2,4.874c0-1.571.061-3.15.18-4.694L.182,0Z"
              transform="translate(443.648 98.178) rotate(180)" fill="#fff"/>
        <path id="Polygon_3" data-name="Polygon 3" d="M6.391,0l6.391,10.652H0Z"
              transform="translate(432.506 95.766) rotate(-56.993)" fill="#fff"/>
        <g id="tick_6_" data-name="tick (6)" transform="translate(432.239 113.271)">
            <g id="Group_549" data-name="Group 549">
                <g id="Group_548" data-name="Group 548">
                    <path id="Path_378" data-name="Path 378"
                          d="M10.346,0A10.346,10.346,0,1,0,20.692,10.346,10.346,10.346,0,0,0,10.346,0Zm0,19.214a8.868,8.868,0,1,1,8.868-8.868,8.868,8.868,0,0,1-8.868,8.868Z"
                          fill="#232323"/>
                </g>
            </g>
            <g id="Group_551" data-name="Group 551" transform="translate(4.425 5.921)">
                <g id="Group_550" data-name="Group 550" transform="translate(0 0)">
                    <path id="Path_379" data-name="Path 379"
                          d="M113.788,136.95a.739.739,0,0,0-1.027,0h0l-6.867,6.867-2.434-2.434a.739.739,0,1,0-1.063,1.027l.019.019,2.956,2.956a.739.739,0,0,0,1.045,0l7.39-7.39a.739.739,0,0,0-.019-1.046Z"
                          transform="translate(-102.19 -136.742)" fill="#232323"/>
                </g>
            </g>
        </g>
        <path id="Path_97"
              d="M394.639,110.156a.765.765,0,0,1-.543-.225l-1.684-1.684a.769.769,0,0,1,0-1.087l1.684-1.684a.769.769,0,0,1,1.087,0l1.684,1.684a.769.769,0,0,1,0,1.087l-1.684,1.684a.77.77,0,0,1-.543.225Zm-.6-2.455.6.6.6-.6-.6-.6Z"
              transform="translate(23.003 -91.38)" fill="rgba(96,210,250,0.71)"/>
        <path id="Path_97-2" data-name="Path_97"
              d="M394.639,110.156a.765.765,0,0,1-.543-.225l-1.684-1.684a.769.769,0,0,1,0-1.087l1.684-1.684a.769.769,0,0,1,1.087,0l1.684,1.684a.769.769,0,0,1,0,1.087l-1.684,1.684a.77.77,0,0,1-.543.225Zm-.6-2.455.6.6.6-.6-.6-.6Z"
              transform="translate(-242.167 45.835)" fill="rgba(96,210,250,0.71)"/>
        <path id="padlock"
              d="M69.88,3.1V2.468a2.468,2.468,0,0,0-4.936,0V3.1a.984.984,0,0,0-.493.85V6.91a.988.988,0,0,0,.987.987h3.949a.988.988,0,0,0,.987-.987V3.949a.984.984,0,0,0-.493-.85ZM67.407.987a1.482,1.482,0,0,1,1.481,1.481v.493H65.923V2.468A1.482,1.482,0,0,1,67.4.987ZM67.9,5.731v.686h-.987V5.731a.741.741,0,1,1,.987,0Z"
              transform="translate(353.231 153.034)" fill="#3ad29f" opacity="0.55"/>
        <path id="padlock-2" data-name="padlock"
              d="M69.88,3.1V2.468a2.468,2.468,0,0,0-4.936,0V3.1a.984.984,0,0,0-.493.85V6.91a.988.988,0,0,0,.987.987h3.949a.988.988,0,0,0,.987-.987V3.949a.984.984,0,0,0-.493-.85ZM67.407.987a1.482,1.482,0,0,1,1.481,1.481v.493H65.923V2.468A1.482,1.482,0,0,1,67.4.987ZM67.9,5.731v.686h-.987V5.731a.741.741,0,1,1,.987,0Z"
              transform="translate(189.078 163.977)" fill="#3ad29f" opacity="0.55"/>
        <g id="Group_4" data-name="Group 4" transform="translate(297.274 121.618)">
            <path id="Path_365" data-name="Path 365"
                  d="M6.239,236.023H.694a.693.693,0,1,1,0-1.386H6.239a.693.693,0,1,1,0,1.386Z"
                  transform="translate(0.024 -232.233)" fill="#232323"/>
            <path id="Path_366" data-name="Path 366"
                  d="M22.027,204.215a.694.694,0,0,1-.6-1.04l2.773-4.8a.693.693,0,1,1,1.2.694l-2.773,4.8A.693.693,0,0,1,22.027,204.215Z"
                  transform="translate(-19.923 -198.024)" fill="#232323"/>
            <path id="Path_367" data-name="Path 367"
                  d="M25,204.215a.693.693,0,0,1-.6-.347l-2.773-4.8a.693.693,0,0,1,1.2-.694l2.773,4.8a.693.693,0,0,1-.6,1.04Z"
                  transform="translate(-20.118 -198.024)" fill="#232323"/>
            <path id="Path_368" data-name="Path 368"
                  d="M134.234,236.022h-5.546a.694.694,0,1,1,0-1.386h5.546a.694.694,0,1,1,0,1.386Z"
                  transform="translate(-119.652 -232.232)" fill="#232323"/>
            <path id="Path_369" data-name="Path 369"
                  d="M150.027,204.215a.694.694,0,0,1-.6-1.04l2.773-4.8a.693.693,0,1,1,1.2.694l-2.773,4.8a.694.694,0,0,1-.6.346Z"
                  transform="translate(-139.604 -198.024)" fill="#232323"/>
            <path id="Path_370" data-name="Path 370"
                  d="M153,204.215a.693.693,0,0,1-.6-.347l-2.773-4.8a.693.693,0,0,1,1.2-.694l2.773,4.8a.693.693,0,0,1-.6,1.04Z"
                  transform="translate(-139.8 -198.024)" fill="#232323"/>
            <path id="Path_371" data-name="Path 371"
                  d="M262.234,236.022h-5.546a.694.694,0,1,1,0-1.386h5.546a.694.694,0,1,1,0,1.386Z"
                  transform="translate(-239.333 -232.232)" fill="#232323"/>
            <path id="Path_372" data-name="Path 372"
                  d="M278.027,204.217a.694.694,0,0,1-.6-1.04l2.773-4.8a.693.693,0,0,1,1.2.693l-2.773,4.8A.693.693,0,0,1,278.027,204.217Z"
                  transform="translate(-259.286 -198.026)" fill="#232323"/>
            <path id="Path_373" data-name="Path 373"
                  d="M281,204.215a.693.693,0,0,1-.6-.347l-2.773-4.8a.693.693,0,1,1,1.2-.694l2.773,4.8a.693.693,0,0,1-.6,1.04Z"
                  transform="translate(-259.481 -198.024)" fill="#232323"/>
            <path id="Path_374" data-name="Path 374"
                  d="M390.243,236.022H384.7a.694.694,0,0,1,0-1.386h5.546a.694.694,0,1,1,0,1.386Z"
                  transform="translate(-359.024 -232.232)" fill="#232323"/>
            <path id="Path_375" data-name="Path 375"
                  d="M406.027,204.215a.694.694,0,0,1-.6-1.04l2.773-4.8a.693.693,0,0,1,1.2.694l-2.773,4.8A.693.693,0,0,1,406.027,204.215Z"
                  transform="translate(-378.967 -198.024)" fill="#232323"/>
            <path id="Path_376" data-name="Path 376"
                  d="M409,204.215a.693.693,0,0,1-.6-.347l-2.773-4.8a.693.693,0,0,1,1.2-.694l2.773,4.8a.694.694,0,0,1-.6,1.04Z"
                  transform="translate(-379.162 -198.024)" fill="#232323"/>
        </g>
    </g>
</svg>
