<!--
 * Copyright (c) 2020, WSO2 Inc. (http://www.wso2.com). All Rights Reserved.
 *
 * This software is the property of WSO2 Inc. and its suppliers, if any.
 * Dissemination of any information or reproduction of any material contained
 * herein in any form is strictly forbidden, unless permitted by WSO2 expressly.
 * You may not alter or remove any copyright or other notice from copies of this content."
-->

<svg xmlns="http://www.w3.org/2000/svg" width="449.012" height="202.046" viewBox="0 0 449.012 202.046">
    <g id="social-login-illustration" transform="translate(-36.539)">
        <path id="Intersection_1" data-name="Intersection 1"
              d="M390.766,202.046a47.42,47.42,0,0,1,30.075-31.876q1.318-.438,2.641-.794a26.745,26.745,0,0,0,15.984-11.831,35.237,35.237,0,1,1,53.664,44.5ZM322.2,100.734q-1.059,0-2.128-.046a47.733,47.733,0,0,1-43.7-34.275q-.062-.233-.121-.447a17.3,17.3,0,0,0-14.9-12.516,47.636,47.636,0,0,1-34.845-20.9l.01.007A47.722,47.722,0,0,1,218.785,0h95.269a9.745,9.745,0,0,0,8.529,5.21h.192A9.77,9.77,0,0,0,331.588,0h96.218a48.652,48.652,0,0,1-34.2,46.438q-.525.152-1.051.293a38.954,38.954,0,0,0-25.926,23.68A47.732,47.732,0,0,1,322.2,100.734Z"
              transform="translate(-19.276 0)" fill="#dbdbdb" opacity="0.24"/>
        <path id="Path_95"
              d="M424.186,166.341a.817.817,0,0,1-.817-.817.983.983,0,0,0-.983-.983.818.818,0,0,1,0-1.635.983.983,0,0,0,.983-.983.818.818,0,1,1,1.635,0,.983.983,0,0,0,.983.983.818.818,0,0,1,0,1.635.983.983,0,0,0-.983.983.817.817,0,0,1-.817.817Z"
              transform="translate(56.967 -89.259)" fill="#ffe783"/>
        <path id="Path_95-2" data-name="Path_95"
              d="M424.186,166.341a.817.817,0,0,1-.817-.817.983.983,0,0,0-.983-.983.818.818,0,0,1,0-1.635.983.983,0,0,0,.983-.983.818.818,0,1,1,1.635,0,.983.983,0,0,0,.983.983.818.818,0,0,1,0,1.635.983.983,0,0,0-.983.983.817.817,0,0,1-.817.817Z"
              transform="translate(-128.131 -24.63)" fill="#ffe783"/>
        <path id="Path_95-3" data-name="Path_95"
              d="M424.186,166.341a.817.817,0,0,1-.817-.817.983.983,0,0,0-.983-.983.818.818,0,0,1,0-1.635.983.983,0,0,0,.983-.983.818.818,0,1,1,1.635,0,.983.983,0,0,0,.983.983.818.818,0,0,1,0,1.635.983.983,0,0,0-.983.983.817.817,0,0,1-.817.817Z"
              transform="translate(-319.449 -7.643)" fill="#ffe783"/>
        <path id="Path_95-4" data-name="Path_95"
              d="M424.186,166.341a.817.817,0,0,1-.817-.817.983.983,0,0,0-.983-.983.818.818,0,0,1,0-1.635.983.983,0,0,0,.983-.983.818.818,0,1,1,1.635,0,.983.983,0,0,0,.983.983.818.818,0,0,1,0,1.635.983.983,0,0,0-.983.983.817.817,0,0,1-.817.817Z"
              transform="translate(-173.725 -114.925)" fill="#ffe783"/>
        <path id="Path_96"
              d="M68.485,419.234a.818.818,0,0,1-.577-.239l-1.788-1.788a.817.817,0,0,1,0-1.154l1.788-1.788a.817.817,0,0,1,1.154,0l1.788,1.788a.817.817,0,0,1,0,1.154L69.063,419a.818.818,0,0,1-.578.232Zm-.636-2.608.636.636.636-.636-.636-.633Z"
              transform="translate(320.415 -256.961)" fill="rgba(96,210,250,0.7)"/>
        <path id="Path_96-2" data-name="Path_96"
              d="M68.485,419.234a.818.818,0,0,1-.577-.239l-1.788-1.788a.817.817,0,0,1,0-1.154l1.788-1.788a.817.817,0,0,1,1.154,0l1.788,1.788a.817.817,0,0,1,0,1.154L69.063,419a.818.818,0,0,1-.578.232Zm-.636-2.608.636.636.636-.636-.636-.633Z"
              transform="translate(151.447 -302.555)" fill="rgba(96,210,250,0.7)"/>
        <path id="Path_96-3" data-name="Path_96"
              d="M68.485,419.234a.818.818,0,0,1-.577-.239l-1.788-1.788a.817.817,0,0,1,0-1.154l1.788-1.788a.817.817,0,0,1,1.154,0l1.788,1.788a.817.817,0,0,1,0,1.154L69.063,419a.818.818,0,0,1-.578.232Zm-.636-2.608.636.636.636-.636-.636-.633Z"
              transform="translate(-2.323 -360.666)" fill="rgba(96,210,250,0.7)"/>
        <path id="Path_97"
              d="M394.791,110.46a.813.813,0,0,1-.577-.239l-1.788-1.788a.817.817,0,0,1,0-1.154l1.788-1.788a.817.817,0,0,1,1.154,0l1.788,1.788a.817.817,0,0,1,0,1.154l-1.788,1.788a.817.817,0,0,1-.577.239Zm-.637-2.607.637.636.636-.636-.636-.636Z"
              transform="translate(71.726 -59.489)" fill="rgba(96,210,250,0.7)"/>
        <path id="Path_98"
              d="M140.755,45.636a.817.817,0,0,1-.577-.239L138.391,43.6a.817.817,0,0,1,0-1.154l1.788-1.788a.817.817,0,0,1,1.154,0l1.788,1.788a.817.817,0,0,1,0,1.154l-1.788,1.788a.813.813,0,0,1-.577.239Zm-.636-2.608.636.636.636-.636-.636-.636Z"
              transform="translate(218.295 3.128)" fill="rgba(96,210,250,0.7)"/>
        <path id="Path_98-2" data-name="Path_98"
              d="M140.755,45.636a.817.817,0,0,1-.577-.239L138.391,43.6a.817.817,0,0,1,0-1.154l1.788-1.788a.817.817,0,0,1,1.154,0l1.788,1.788a.817.817,0,0,1,0,1.154l-1.788,1.788a.813.813,0,0,1-.577.239Zm-.636-2.608.636.636.636-.636-.636-.636Z"
              transform="translate(50.221 -25.481)" fill="rgba(96,210,250,0.7)"/>
        <path id="Path_176" data-name="Path 176"
              d="M3617.69-2034.152l1.652-2.127,7.38,6.985s3.966,12.278,3.889,12.194-2.927,0-2.927,0Z"
              transform="translate(-3166.99 2120.476)" fill="none"/>
        <g id="ui_1_" data-name="ui (1)" transform="translate(382.966 69.169)">
            <path id="Path_339" data-name="Path 339"
                  d="M93.343,318.326A37.511,37.511,0,0,1,36.4,308.68l2.463-11.354L49.78,295.3a20.145,20.145,0,0,0,19.162,14.18,19.717,19.717,0,0,0,11.736-3.823l10.49,1.6Z"
                  transform="translate(-31.007 -251.542)" fill="#59c36a"/>
            <path id="Path_340" data-name="Path 340"
                  d="M280.406,377.869,278.228,366.8l-10.49-1.6A19.717,19.717,0,0,1,256,369.023v17.929A37.875,37.875,0,0,0,280.406,377.869Z"
                  transform="translate(-218.067 -311.085)" fill="#00a66c"/>
            <g id="Connected_Home_1_" transform="translate(0 18.732)">
                <g id="Group_543" data-name="Group 543">
                    <g id="Group_542" data-name="Group 542">
                        <g id="Group_541" data-name="Group 541">
                            <path id="Path_341" data-name="Path 341"
                                  d="M17.929,145.6a20.716,20.716,0,0,0,.845,5.824L5.394,164.807a36.883,36.883,0,0,1,0-38.407l10.739,1.848,2.642,11.532a20.713,20.713,0,0,0-.845,5.824Z"
                                  transform="translate(0 -126.4)" fill="#ffda2d"/>
                        </g>
                    </g>
                </g>
            </g>
            <path id="Path_342" data-name="Path 342"
                  d="M281.155,204.89a37.873,37.873,0,0,1-13.528,28.85l-12.669-12.669a19.668,19.668,0,0,0,6.179-7.29H243.222A2.2,2.2,0,0,1,241,211.556V198.222A2.2,2.2,0,0,1,243.222,196H278.31a2.2,2.2,0,0,1,2.178,1.822,37.687,37.687,0,0,1,.668,7.068Z"
                  transform="translate(-205.291 -166.956)" fill="#4086f4"/>
            <path id="Path_343" data-name="Path 343"
                  d="M273.914,213.781a19.668,19.668,0,0,1-6.179,7.29l12.671,12.669a37.569,37.569,0,0,0,12.861-35.918,2.2,2.2,0,0,0-2.18-1.822H256v17.781Z"
                  transform="translate(-218.067 -166.956)" fill="#4175df"/>
            <path id="Path_344" data-name="Path 344"
                  d="M93.965,10.594a2.243,2.243,0,0,1-.626,1.645l-9.509,9.468a2.177,2.177,0,0,1-2.889.223,19.883,19.883,0,0,0-12-4,20.144,20.144,0,0,0-19.159,14.18L36.4,18.729A37.488,37.488,0,0,1,93.17,8.95a2.337,2.337,0,0,1,.8,1.645Z"
                  transform="translate(-31.007 0.003)" fill="#ff641a"/>
            <path id="Path_345" data-name="Path 345"
                  d="M268,21.929a2.177,2.177,0,0,0,2.889-.223l9.515-9.468a2.241,2.241,0,0,0,.626-1.645,2.338,2.338,0,0,0-.8-1.645A37.817,37.817,0,0,0,256,0V17.929A19.882,19.882,0,0,1,268,21.929Z"
                  transform="translate(-218.067 0.002)" fill="#f03800"/>
        </g>
        <line id="Line_3" data-name="Line 3" x2="42.216" transform="translate(335.383 107.041)" fill="none"
              stroke="#fff" stroke-width="2" stroke-dasharray="5"/>
        <path id="padlock"
              d="M70.216,3.291v-.67a2.621,2.621,0,1,0-5.242,0v.67a1.045,1.045,0,0,0-.524.9V7.339A1.05,1.05,0,0,0,65.5,8.388h4.194a1.05,1.05,0,0,0,1.049-1.049V4.194a1.045,1.045,0,0,0-.524-.9ZM67.591,1.049a1.574,1.574,0,0,1,1.573,1.573v.524H66.015V2.621a1.574,1.574,0,0,1,1.573-1.573Zm.524,5.038v.729H67.067V6.086a.787.787,0,1,1,1.049,0Z"
              transform="translate(179.499 188.189)" fill="#3ad29f" opacity="0.55"/>
        <path id="padlock-2" data-name="padlock"
              d="M70.216,3.291v-.67a2.621,2.621,0,1,0-5.242,0v.67a1.045,1.045,0,0,0-.524.9V7.339A1.05,1.05,0,0,0,65.5,8.388h4.194a1.05,1.05,0,0,0,1.049-1.049V4.194a1.045,1.045,0,0,0-.524-.9ZM67.591,1.049a1.574,1.574,0,0,1,1.573,1.573v.524H66.015V2.621a1.574,1.574,0,0,1,1.573-1.573Zm.524,5.038v.729H67.067V6.086a.787.787,0,1,1,1.049,0Z"
              transform="translate(398.532 113.092)" fill="#3ad29f" opacity="0.55"/>
        <path id="padlock-3" data-name="padlock"
              d="M70.216,3.291v-.67a2.621,2.621,0,1,0-5.242,0v.67a1.045,1.045,0,0,0-.524.9V7.339A1.05,1.05,0,0,0,65.5,8.388h4.194a1.05,1.05,0,0,0,1.049-1.049V4.194a1.045,1.045,0,0,0-.524-.9ZM67.591,1.049a1.574,1.574,0,0,1,1.573,1.573v.524H66.015V2.621a1.574,1.574,0,0,1,1.573-1.573Zm.524,5.038v.729H67.067V6.086a.787.787,0,1,1,1.049,0Z"
              transform="translate(-27.911 121.138)" fill="#3ad29f" opacity="0.55"/>
        <g id="Group_654" data-name="Group 654" transform="translate(275.245 82.639)">
            <g id="Ellipse_136" data-name="Ellipse 136" transform="translate(-5.705 -5.728)" fill="#303030"
               stroke="#76b1af" stroke-width="3">
                <circle cx="30.5" cy="30.5" r="30.5" stroke="none"/>
                <circle cx="30.5" cy="30.5" r="29" fill="none"/>
            </g>
            <g id="password_5_" data-name="password (5)" transform="translate(15.374 9.453)">
                <path id="Path_1986" data-name="Path 1986"
                      d="M20.38,25.552H5.483A2.486,2.486,0,0,1,3,23.069V11.483A2.486,2.486,0,0,1,5.483,9h14.9a2.486,2.486,0,0,1,2.479,2.483V23.069a2.486,2.486,0,0,1-2.479,2.483Zm-14.9-14.9a.829.829,0,0,0-.828.828V23.069a.829.829,0,0,0,.828.828h14.9a.829.829,0,0,0,.828-.828V11.483a.829.829,0,0,0-.828-.828Z"
                      transform="translate(-3 0.931)" fill="#fff"/>
                <path id="Path_1987" data-name="Path 1987"
                      d="M18.414,11.586a.828.828,0,0,1-.828-.828V6.62a4.966,4.966,0,0,0-9.931,0v4.14a.828.828,0,1,1-1.655,0V6.62a6.62,6.62,0,0,1,13.239,0v4.14a.828.828,0,0,1-.825.827Z"
                      transform="translate(-2.689 0)" fill="#fff"/>
                <path id="Path_1988" data-name="Path 1988"
                      d="M12.207,17.414a2.207,2.207,0,1,1,2.207-2.207,2.207,2.207,0,0,1-2.207,2.207Zm0-2.759a.552.552,0,1,0,.552.552A.552.552,0,0,0,12.207,14.655Z"
                      transform="translate(-2.276 1.345)" fill="#fff"/>
                <path id="Path_1989" data-name="Path 1989"
                      d="M12.078,20.442a.828.828,0,0,1-.828-.828V16.58a.828.828,0,0,1,1.655,0v3.035A.828.828,0,0,1,12.078,20.442Z"
                      transform="translate(-2.147 1.628)" fill="#fff"/>
            </g>
        </g>
    </g>
</svg>
