<!--
 * Copyright (c) 2020, WSO2 Inc. (http://www.wso2.com). All Rights Reserved.
 *
 * This software is the property of WSO2 Inc. and its suppliers, if any.
 * Dissemination of any information or reproduction of any material contained
 * herein in any form is strictly forbidden, unless permitted by WSO2 expressly.
 * You may not alter or remove any copyright or other notice from copies of this content."
-->

<svg id="social-login-illustration" xmlns="http://www.w3.org/2000/svg" width="502.244" height="226"
     viewBox="0 0 502.244 226">
    <g id="social-login-illustration" transform="translate(-36.534 -0.001)">
        <path id="Intersection_1" data-name="Intersection 1"
              d="M411.2,226a53.042,53.042,0,0,1,33.641-35.655q1.474-.49,2.954-.888a29.916,29.916,0,0,0,17.879-13.234A39.414,39.414,0,1,1,525.7,226ZM334.5,112.677q-1.185,0-2.38-.052a53.392,53.392,0,0,1-48.878-38.338q-.069-.261-.135-.5a19.347,19.347,0,0,0-16.672-14A53.283,53.283,0,0,1,227.459,36.41l.011.008A53.38,53.38,0,0,1,218.829,0H325.393a10.9,10.9,0,0,0,9.54,5.828l.215,0A10.928,10.928,0,0,0,345.006,0H452.631a54.42,54.42,0,0,1-38.253,51.944q-.587.17-1.176.328a43.572,43.572,0,0,0-29,26.487,53.391,53.391,0,0,1-49.7,33.917Z"
              fill="#dbdbdb" opacity="0.24"/>
        <path id="Path_95"
              d="M424.493,166.965a.914.914,0,0,1-.914-.914,1.1,1.1,0,0,0-1.1-1.1.915.915,0,0,1,0-1.829,1.1,1.1,0,0,0,1.1-1.1.915.915,0,1,1,1.829,0,1.1,1.1,0,0,0,1.1,1.1.915.915,0,0,1,0,1.829,1.1,1.1,0,0,0-1.1,1.1.914.914,0,0,1-.914.914Z"
              transform="translate(109.371 -80.745)" fill="#ffe783"/>
        <path id="Path_95-2" data-name="Path_95"
              d="M424.493,166.965a.914.914,0,0,1-.914-.914,1.1,1.1,0,0,0-1.1-1.1.915.915,0,0,1,0-1.829,1.1,1.1,0,0,0,1.1-1.1.915.915,0,1,1,1.829,0,1.1,1.1,0,0,0,1.1,1.1.915.915,0,0,1,0,1.829,1.1,1.1,0,0,0-1.1,1.1.914.914,0,0,1-.914.914Z"
              transform="translate(-97.671 -8.453)" fill="#ffe783"/>
        <path id="Path_95-3" data-name="Path_95"
              d="M424.493,166.965a.914.914,0,0,1-.914-.914,1.1,1.1,0,0,0-1.1-1.1.915.915,0,0,1,0-1.829,1.1,1.1,0,0,0,1.1-1.1.915.915,0,1,1,1.829,0,1.1,1.1,0,0,0,1.1,1.1.915.915,0,0,1,0,1.829,1.1,1.1,0,0,0-1.1,1.1.914.914,0,0,1-.914.914Z"
              transform="translate(-311.671 10.547)" fill="#ffe783"/>
        <path id="Path_95-4" data-name="Path_95"
              d="M424.493,166.965a.914.914,0,0,1-.914-.914,1.1,1.1,0,0,0-1.1-1.1.915.915,0,0,1,0-1.829,1.1,1.1,0,0,0,1.1-1.1.915.915,0,1,1,1.829,0,1.1,1.1,0,0,0,1.1,1.1.915.915,0,0,1,0,1.829,1.1,1.1,0,0,0-1.1,1.1.914.914,0,0,1-.914.914Z"
              transform="translate(-148.671 -109.453)" fill="#ffe783"/>
        <path id="Path_96"
              d="M68.794,419.851a.915.915,0,0,1-.645-.267l-2-2a.914.914,0,0,1,0-1.291l2-2a.914.914,0,0,1,1.291,0l2,2a.914.914,0,0,1,0,1.291l-2,2.008A.915.915,0,0,1,68.794,419.851Zm-.711-2.917.711.711.711-.711-.711-.708Z"
              transform="translate(361.88 -238.34)" fill="rgba(96,210,250,0.7)"/>
        <path id="Path_96-2" data-name="Path_96"
              d="M68.794,419.851a.915.915,0,0,1-.645-.267l-2-2a.914.914,0,0,1,0-1.291l2-2a.914.914,0,0,1,1.291,0l2,2a.914.914,0,0,1,0,1.291l-2,2.008A.915.915,0,0,1,68.794,419.851Zm-.711-2.917.711.711.711-.711-.711-.708Z"
              transform="translate(172.88 -289.34)" fill="rgba(96,210,250,0.7)"/>
        <path id="Path_96-3" data-name="Path_96"
              d="M68.794,419.851a.915.915,0,0,1-.645-.267l-2-2a.914.914,0,0,1,0-1.291l2-2a.914.914,0,0,1,1.291,0l2,2a.914.914,0,0,1,0,1.291l-2,2.008A.915.915,0,0,1,68.794,419.851Zm-.711-2.917.711.711.711-.711-.711-.708Z"
              transform="translate(0.88 -354.34)" fill="rgba(96,210,250,0.7)"/>
        <path id="Path_97"
              d="M395.1,111.077a.909.909,0,0,1-.645-.267l-2-2a.914.914,0,0,1,0-1.291l2-2a.914.914,0,0,1,1.291,0l2,2a.914.914,0,0,1,0,1.291l-2,2a.914.914,0,0,1-.645.267Zm-.712-2.916.712.711.711-.711-.711-.711Z"
              transform="translate(122.393 -54.063)" fill="rgba(96,210,250,0.7)"/>
        <path id="Path_98"
              d="M141.064,46.254a.914.914,0,0,1-.645-.267l-2-2.005a.914.914,0,0,1,0-1.291l2-2a.914.914,0,0,1,1.291,0l2,2a.914.914,0,0,1,0,1.291l-2,2a.909.909,0,0,1-.645.267Zm-.711-2.917.711.711.711-.711-.711-.711Z"
              transform="translate(256.222 8.291)" fill="rgba(96,210,250,0.7)"/>
        <path id="Path_98-2" data-name="Path_98"
              d="M141.064,46.254a.914.914,0,0,1-.645-.267l-2-2.005a.914.914,0,0,1,0-1.291l2-2a.914.914,0,0,1,1.291,0l2,2a.914.914,0,0,1,0,1.291l-2,2a.909.909,0,0,1-.645.267Zm-.711-2.917.711.711.711-.711-.711-.711Z"
              transform="translate(68.222 -23.709)" fill="rgba(96,210,250,0.7)"/>
        <path id="Path_176" data-name="Path 176"
              d="M3617.69-2033.9l1.848-2.379,8.255,7.813s4.436,13.734,4.35,13.64-3.274,0-3.274,0Z"
              transform="translate(-3117.889 2130.458)" fill="none"/>
        <g id="ui_1_" data-name="ui (1)" transform="translate(424.036 77.372)">
            <path id="Path_339" data-name="Path 339"
                  d="M100.094,321.056A41.958,41.958,0,0,1,36.4,310.266l2.755-12.7L51.366,295.3A22.533,22.533,0,0,0,72.8,311.161a22.055,22.055,0,0,0,13.127-4.276l11.734,1.79Z"
                  transform="translate(-30.367 -246.357)" fill="#59c36a"/>
            <path id="Path_340" data-name="Path 340"
                  d="M283.3,379.371l-2.437-12.381-11.734-1.79A22.055,22.055,0,0,1,256,369.476v20.055A42.365,42.365,0,0,0,283.3,379.371Z"
                  transform="translate(-213.57 -304.672)" fill="#00a66c"/>
            <g id="Connected_Home_1_" transform="translate(0 20.95)">
                <g id="Group_543" data-name="Group 543">
                    <g id="Group_542" data-name="Group 542">
                        <g id="Group_541" data-name="Group 541">
                            <path id="Path_341" data-name="Path 341"
                                  d="M20.055,147.88A23.172,23.172,0,0,0,21,154.394L6.033,169.36a41.256,41.256,0,0,1,0-42.96l12.012,2.067L21,141.366A23.169,23.169,0,0,0,20.055,147.88Z"
                                  transform="translate(0 -126.4)" fill="#ffda2d"/>
                        </g>
                    </g>
                </g>
            </g>
            <path id="Path_342" data-name="Path 342"
                  d="M285.916,205.944a42.363,42.363,0,0,1-15.132,32.27l-14.171-14.171a22,22,0,0,0,6.911-8.154H243.486A2.462,2.462,0,0,1,241,213.4V198.486A2.462,2.462,0,0,1,243.486,196h39.247a2.457,2.457,0,0,1,2.436,2.038A42.157,42.157,0,0,1,285.916,205.944Z"
                  transform="translate(-201.057 -163.515)" fill="#4086f4"/>
            <path id="Path_343" data-name="Path 343"
                  d="M276.038,215.889a22,22,0,0,1-6.911,8.154L283.3,238.214a42.023,42.023,0,0,0,14.386-40.176A2.457,2.457,0,0,0,295.247,196H256v19.889Z"
                  transform="translate(-213.57 -163.515)" fill="#4175df"/>
            <path id="Path_344" data-name="Path 344"
                  d="M100.79,11.85a2.509,2.509,0,0,1-.7,1.84L89.454,24.281a2.435,2.435,0,0,1-3.232.249A22.24,22.24,0,0,0,72.8,20.055a22.532,22.532,0,0,0-21.43,15.861L36.4,20.95A41.932,41.932,0,0,1,99.9,10.011a2.614,2.614,0,0,1,.9,1.84Z"
                  transform="translate(-30.367 0)" fill="#ff641a"/>
            <path id="Path_345" data-name="Path 345"
                  d="M269.425,24.529a2.435,2.435,0,0,0,3.232-.249L283.3,13.69a2.507,2.507,0,0,0,.7-1.84,2.615,2.615,0,0,0-.895-1.84A42.3,42.3,0,0,0,256,0V20.055A22.239,22.239,0,0,1,269.425,24.529Z"
                  transform="translate(-213.57 0)" fill="#f03800"/>
        </g>
        <line id="Line_3" data-name="Line 3" x2="47.221" transform="translate(370.813 119.731)" fill="none"
              stroke="#60d2fa" stroke-width="2" stroke-dasharray="5"/>
        <path id="padlock"
              d="M70.9,3.681V2.932a2.932,2.932,0,1,0-5.864,0v.749a1.169,1.169,0,0,0-.586,1.01V8.209a1.174,1.174,0,0,0,1.173,1.173h4.691a1.174,1.174,0,0,0,1.173-1.173V4.691a1.169,1.169,0,0,0-.586-1.01ZM67.963,1.173a1.761,1.761,0,0,1,1.759,1.759v.586H66.2V2.932a1.761,1.761,0,0,1,1.759-1.759Zm.586,5.635v.815H67.377V6.808a.88.88,0,1,1,1.173,0Z"
              transform="translate(204.089 210.5)" fill="#3ad29f" opacity="0.55"/>
        <path id="padlock-2" data-name="padlock"
              d="M70.9,3.681V2.932a2.932,2.932,0,1,0-5.864,0v.749a1.169,1.169,0,0,0-.586,1.01V8.209a1.174,1.174,0,0,0,1.173,1.173h4.691a1.174,1.174,0,0,0,1.173-1.173V4.691a1.169,1.169,0,0,0-.586-1.01ZM67.963,1.173a1.761,1.761,0,0,1,1.759,1.759v.586H66.2V2.932a1.761,1.761,0,0,1,1.759-1.759Zm.586,5.635v.815H67.377V6.808a.88.88,0,1,1,1.173,0Z"
              transform="translate(449.089 126.5)" fill="#3ad29f" opacity="0.55"/>
        <path id="padlock-3" data-name="padlock"
              d="M70.9,3.681V2.932a2.932,2.932,0,1,0-5.864,0v.749a1.169,1.169,0,0,0-.586,1.01V8.209a1.174,1.174,0,0,0,1.173,1.173h4.691a1.174,1.174,0,0,0,1.173-1.173V4.691a1.169,1.169,0,0,0-.586-1.01ZM67.963,1.173a1.761,1.761,0,0,1,1.759,1.759v.586H66.2V2.932a1.761,1.761,0,0,1,1.759-1.759Zm.586,5.635v.815H67.377V6.808a.88.88,0,1,1,1.173,0Z"
              transform="translate(-27.911 135.5)" fill="#3ad29f" opacity="0.55"/>
        <g id="Group_654" data-name="Group 654" transform="translate(-1225.47 -754)">
            <g id="Ellipse_136" data-name="Ellipse 136" transform="translate(1533 846)" fill="#fff" stroke="#000"
               stroke-width="2">
                <circle cx="27.5" cy="27.5" r="27.5" stroke="none"/>
                <circle cx="27.5" cy="27.5" r="26.5" fill="none"/>
            </g>
            <g id="password_5_" data-name="password (5)" transform="translate(1547 856.595)">
                <path id="Path_1986" data-name="Path 1986"
                      d="M21.641,26.753H5.663A2.666,2.666,0,0,1,3,24.09V11.663A2.666,2.666,0,0,1,5.663,9H21.641A2.666,2.666,0,0,1,24.3,11.663V24.09a2.666,2.666,0,0,1-2.659,2.663ZM5.663,10.775a.889.889,0,0,0-.888.888V24.09a.889.889,0,0,0,.888.888H21.641a.889.889,0,0,0,.888-.888V11.663a.889.889,0,0,0-.888-.888Z"
                      transform="translate(0 1.652)" fill="#3b4257"/>
                <path id="Path_1987" data-name="Path 1987"
                      d="M19.315,12.427a.888.888,0,0,1-.888-.888V7.1a5.326,5.326,0,1,0-10.652,0v4.44A.888.888,0,1,1,6,11.54V7.1a7.1,7.1,0,1,1,14.2,0v4.44a.888.888,0,0,1-.885.887Z"
                      transform="translate(0.551)" fill="#3b4257"/>
                <path id="Path_1988" data-name="Path 1988"
                      d="M12.367,17.734a2.367,2.367,0,1,1,2.367-2.367,2.367,2.367,0,0,1-2.367,2.367Zm0-2.959a.592.592,0,1,0,.592.592A.592.592,0,0,0,12.367,14.775Z"
                      transform="translate(1.285 2.386)" fill="#3b4257"/>
                <path id="Path_1989" data-name="Path 1989"
                      d="M12.138,20.78a.888.888,0,0,1-.888-.888V16.638a.888.888,0,0,1,1.775,0v3.255A.888.888,0,0,1,12.138,20.78Z"
                      transform="translate(1.514 2.891)" fill="#3b4257"/>
            </g>
        </g>
    </g>
</svg>
