<!--
 * Copyright (c) 2021, WSO2 Inc. (http://www.wso2.com). All Rights Reserved.
 *
 * This software is the property of WSO2 Inc. and its suppliers, if any.
 * Dissemination of any information or reproduction of any material contained
 * herein in any form is strictly forbidden, unless permitted by WSO2 expressly.
 * You may not alter or remove any copyright or other notice from copies of this content."
-->

<svg id="attribute-illustration" xmlns="http://www.w3.org/2000/svg" width="423.851" height="223.001" viewBox="0 0 423.851 223.001">
  <g id="attributes" transform="translate(158 26.483)">
    <path id="Subtraction_14" data-name="Subtraction 14" d="M-8511.035-494.273a41.792,41.792,0,0,1-22.76-6.729,41.778,41.778,0,0,1-15.47-18.065,41.541,41.541,0,0,1-3.637-17.918,42.058,42.058,0,0,1,1.154-8.965,41.939,41.939,0,0,1,3.061-8.534h140.538a41.776,41.776,0,0,1-7.354,22.262,41.867,41.867,0,0,1-34.492,18.136,41.862,41.862,0,0,1-11.317-1.562l-.389-.119a15.157,15.157,0,0,0-4.252-.609,15.273,15.273,0,0,0-11.99,5.877,41.817,41.817,0,0,1-6.425,6.641A41.866,41.866,0,0,1-8492-498.84a41.854,41.854,0,0,1-8.538,3.24,41.845,41.845,0,0,1-9.147,1.31l.011,0C-8510.147-494.279-8510.605-494.273-8511.035-494.273Z" transform="translate(8674 528)" fill="#eaeef1" opacity="0.18"/>
    <path id="Subtraction_13" data-name="Subtraction 13" d="M-8436.706-623.343h-144.729a41.649,41.649,0,0,1-3.32-12.427,41.959,41.959,0,0,1,.57-12.66,41.81,41.81,0,0,1,4.356-11.971,41.788,41.788,0,0,1,8.034-10.359,42.565,42.565,0,0,1,28.658-11.064,42.476,42.476,0,0,1,29.486,11.828c.2.2.419.42.673.682a34.381,34.381,0,0,0,24.327,10.175,34.291,34.291,0,0,0,4.868-.349,42.129,42.129,0,0,1,5.563-.371,41.836,41.836,0,0,1,21.949,6.225,41.812,41.812,0,0,1,15.517,16.989,41.773,41.773,0,0,1,4.046,13.3Z" transform="translate(8534 819.861)" fill="#eaeef1" opacity="0.18"/>
    <path id="Path_96" d="M68.794,419.851a.915.915,0,0,1-.645-.267l-2-2a.914.914,0,0,1,0-1.291l2-2a.914.914,0,0,1,1.291,0l2,2a.914.914,0,0,1,0,1.291l-2,2.008a.915.915,0,0,1-.646.259Zm-.711-2.917.711.711.711-.711-.711-.708Z" transform="translate(-223.882 -348.736)" fill="rgba(96,210,250,0.7)"/>
    <path id="Path_95" d="M424.493,166.965a.914.914,0,0,1-.914-.914,1.1,1.1,0,0,0-1.1-1.1.915.915,0,0,1,0-1.829,1.1,1.1,0,0,0,1.1-1.1.915.915,0,1,1,1.829,0,1.1,1.1,0,0,0,1.1,1.1.915.915,0,0,1,0,1.829,1.1,1.1,0,0,0-1.1,1.1.914.914,0,0,1-.914.914Z" transform="translate(-528.433 -20.848)" fill="#ffe783"/>
    <path id="Path_95-2" data-name="Path_95" d="M424.493,166.965a.914.914,0,0,1-.914-.914,1.1,1.1,0,0,0-1.1-1.1.915.915,0,0,1,0-1.829,1.1,1.1,0,0,0,1.1-1.1.915.915,0,1,1,1.829,0,1.1,1.1,0,0,0,1.1,1.1.915.915,0,0,1,0,1.829,1.1,1.1,0,0,0-1.1,1.1.914.914,0,0,1-.914.914Z" transform="translate(-425.433 -167.848)" fill="#ffe783"/>
    <path id="padlock" d="M70.9,3.681V2.932a2.932,2.932,0,0,0-5.864,0v.749a1.169,1.169,0,0,0-.586,1.01V8.209a1.174,1.174,0,0,0,1.173,1.173h4.691a1.174,1.174,0,0,0,1.173-1.173V4.691a1.169,1.169,0,0,0-.586-1.01ZM67.963,1.173a1.761,1.761,0,0,1,1.759,1.759v.586H66.2V2.932a1.761,1.761,0,0,1,1.759-1.759Zm.586,5.635v.815H67.377V6.808a.88.88,0,1,1,1.173,0Z" transform="translate(-62.846 119.105)" fill="#3ad29f" opacity="0.55"/>
    <path id="Path_96-2" data-name="Path_96" d="M68.794,419.851a.915.915,0,0,1-.645-.267l-2-2a.914.914,0,0,1,0-1.291l2-2a.914.914,0,0,1,1.291,0l2,2a.914.914,0,0,1,0,1.291l-2,2.008a.915.915,0,0,1-.646.259Zm-.711-2.917.711.711.711-.711-.711-.708Z" transform="translate(-139.882 -380.736)" fill="rgba(96,210,250,0.7)"/>
    <path id="Path_95-3" data-name="Path_95" d="M424.493,166.965a.914.914,0,0,1-.914-.914,1.1,1.1,0,0,0-1.1-1.1.915.915,0,0,1,0-1.829,1.1,1.1,0,0,0,1.1-1.1.915.915,0,1,1,1.829,0,1.1,1.1,0,0,0,1.1,1.1.915.915,0,0,1,0,1.829,1.1,1.1,0,0,0-1.1,1.1.914.914,0,0,1-.914.914Z" transform="translate(-225.433 -144.848)" fill="#ffe783"/>
    <path id="Path_96-3" data-name="Path_96" d="M68.794,419.851a.915.915,0,0,1-.645-.267l-2-2a.914.914,0,0,1,0-1.291l2-2a.914.914,0,0,1,1.291,0l2,2a.914.914,0,0,1,0,1.291l-2,2.008a.915.915,0,0,1-.646.259Zm-.711-2.917.711.711.711-.711-.711-.708Z" transform="translate(136.118 -278.736)" fill="rgba(96,210,250,0.7)"/>
    <path id="Path_95-4" data-name="Path_95" d="M424.493,166.965a.914.914,0,0,1-.914-.914,1.1,1.1,0,0,0-1.1-1.1.915.915,0,0,1,0-1.829,1.1,1.1,0,0,0,1.1-1.1.915.915,0,1,1,1.829,0,1.1,1.1,0,0,0,1.1,1.1.915.915,0,0,1,0,1.829,1.1,1.1,0,0,0-1.1,1.1.914.914,0,0,1-.914.914Z" transform="translate(-188.433 9.152)" fill="#ffe783"/>
    <path id="padlock-2" data-name="padlock" d="M68.016,2.172V1.73a1.625,1.625,0,1,0-3.242,0v.442a.7.7,0,0,0-.324.6V4.843a.672.672,0,0,0,.649.692h2.594a.672.672,0,0,0,.649-.692V2.768a.7.7,0,0,0-.324-.6ZM66.392.692a1.008,1.008,0,0,1,.973,1.038v.346H65.418V1.73A1.008,1.008,0,0,1,66.39.692Zm.324,3.325V4.5h-.648V4.017a.543.543,0,0,1-.13-.572.476.476,0,0,1,.909,0,.543.543,0,0,1-.13.572Z" transform="translate(167.154 59.105)" fill="#3ad29f" opacity="0.55"/>
    <g id="Group_1063" data-name="Group 1063" transform="translate(2 9)">
      <g id="Group_657" data-name="Group 657" transform="translate(45 -56)">
        <rect id="Rectangle_656" data-name="Rectangle 656" width="42" height="42" rx="4" transform="translate(77 50.79)" fill="#fff"/>
        <g id="mail_1_" data-name="mail (1)" transform="translate(55.952 59.728)">
          <g id="Group_1059" data-name="Group 1059" transform="translate(36.783 2.892)">
            <g id="Group_1058" data-name="Group 1058">
              <path id="Path_2335" data-name="Path 2335" d="M156.06,60a5.059,5.059,0,0,0-2.724,9.324,5.165,5.165,0,0,0,5.033.275.723.723,0,0,0-.6-1.313,3.745,3.745,0,0,1-3.648-.179,3.614,3.614,0,1,1,5.558-3.046.723.723,0,0,1-1.446.011s0-.007,0-.011a2.172,2.172,0,1,0-.723,1.615,2.167,2.167,0,0,0,3.615-1.615A5.066,5.066,0,0,0,156.06,60Zm.713,5.176a.721.721,0,1,1,.005-.2A.724.724,0,0,0,156.773,65.176Z" transform="translate(-151 -60)" fill="#d19426"/>
            </g>
          </g>
          <g id="Group_1061" data-name="Group 1061" transform="translate(31)">
            <g id="Group_1060" data-name="Group 1060" transform="translate(0)">
              <path id="Path_2336" data-name="Path 2336" d="M52.687,9.493a.728.728,0,0,0-.212-.51L49.8,6.3V.723A.723.723,0,0,0,49.073,0H34.615a.723.723,0,0,0-.723.723V6.3l-2.68,2.68-.007.008a.726.726,0,0,0-.2.5h0V22.506a2.171,2.171,0,0,0,2.169,2.169h17.35a2.171,2.171,0,0,0,2.169-2.169V9.494ZM49.8,8.348l1.146,1.146L49.8,10.641ZM35.337,6.6h0V1.446H48.35V6.6h0v5.484L44.436,16H39.251l-3.914-3.914ZM33.892,8.348v2.293L32.745,9.494ZM32.446,22.207V11.239l5.484,5.484Zm1.022,1.022,5.783-5.783h5.184l5.783,5.783Zm17.773-1.022-5.484-5.484,5.484-5.484Z" transform="translate(-31)" fill="#d19426"/>
            </g>
          </g>
        </g>
      </g>
      <g id="Group_659" data-name="Group 659" transform="translate(-29 4)">
        <rect id="Rectangle_656-2" data-name="Rectangle 656-2" width="42" height="42" rx="4" transform="translate(151 50.79)" fill="#fff"/>
        <g id="map" transform="translate(159.701 58.265)">
          <path id="Path_2331" data-name="Path 2331" d="M21.975,15.583H16.114l3.052-4.87a6.989,6.989,0,1,0-11.832,0l3.054,4.872H4.526L0,26.506H26.5Zm-3.983,6.212h4.876l1.309,3.158H18.394Zm-1.163,3.158H9.664l.393-3.158h6.369Zm5.4-4.711h-4.43l-.4-3.106h3.539ZM7.815,6.989a5.436,5.436,0,1,1,10.036,2.9l-4.6,7.341-4.6-7.343a5.42,5.42,0,0,1-.834-2.9ZM13.25,20.151l1.89-3.015h.692l.4,3.106H10.25l.386-3.106h.725ZM5.564,17.136H9.071l-.386,3.106H4.277ZM3.633,21.795H8.492L8.1,24.953H2.325Zm0,0" fill="#d19426"/>
          <path id="Path_2332" data-name="Path 2332" d="M188.718,63.883a3.883,3.883,0,1,0-3.883,3.883A3.887,3.887,0,0,0,188.718,63.883Zm-6.212,0a2.33,2.33,0,1,1,2.33,2.33A2.332,2.332,0,0,1,182.506,63.883Zm0,0" transform="translate(-171.585 -56.894)" fill="#d19426"/>
        </g>
      </g>
      <g id="Group_1062" data-name="Group 1062" transform="translate(-75 -69)">
        <g id="Path_2329" data-name="Path 2329" transform="translate(59.1 105.617)" fill="#303030">
          <path d="M 39.400634765625 77.30126953125 C 34.28342437744141 77.30126953125 29.320068359375 76.29939270019531 24.64845657348633 74.32347106933594 C 20.13545608520508 72.41462707519531 16.08205604553223 69.68164825439453 12.60084629058838 66.20042419433594 C 9.119623184204102 62.71921157836914 6.386645793914795 58.66581344604492 4.477801322937012 54.15281295776367 C 2.501879215240479 49.481201171875 1.500001430511475 44.51784515380859 1.500001430511475 39.400634765625 C 1.500001430511475 34.28342437744141 2.501879215240479 29.320068359375 4.477801322937012 24.64845657348633 C 6.386645793914795 20.13545608520508 9.119623184204102 16.08205604553223 12.60084629058838 12.60084629058838 C 16.08205604553223 9.119623184204102 20.13545608520508 6.386645793914795 24.64845657348633 4.477801322937012 C 29.320068359375 2.501879215240479 34.28342437744141 1.500001430511475 39.400634765625 1.500001430511475 C 44.51784515380859 1.500001430511475 49.481201171875 2.501879215240479 54.15281295776367 4.477801322937012 C 58.66581344604492 6.386645793914795 62.71921157836914 9.119623184204102 66.20042419433594 12.60084629058838 C 69.68164825439453 16.08205604553223 72.41462707519531 20.13545608520508 74.32347106933594 24.64845657348633 C 76.29939270019531 29.320068359375 77.30126953125 34.28342437744141 77.30126953125 39.400634765625 C 77.30126953125 44.51784515380859 76.29939270019531 49.481201171875 74.32347106933594 54.15281295776367 C 72.41462707519531 58.66581344604492 69.68164825439453 62.71921157836914 66.20042419433594 66.20042419433594 C 62.71921157836914 69.68164825439453 58.66581344604492 72.41462707519531 54.15281295776367 74.32347106933594 C 49.481201171875 76.29939270019531 44.51784515380859 77.30126953125 39.400634765625 77.30126953125 Z" stroke="none"/>
          <path d="M 39.400634765625 3 C 34.48526000976563 3 29.71849822998047 3.962013244628906 25.23278427124023 5.859306335449219 C 20.8985710144043 7.692520141601563 17.00543594360352 10.31755828857422 13.6614990234375 13.6614990234375 C 10.31755828857422 17.00543594360352 7.692520141601563 20.8985710144043 5.859306335449219 25.23278427124023 C 3.962013244628906 29.71849822998047 3 34.48526000976563 3 39.400634765625 C 3 44.31600952148438 3.962013244628906 49.08275985717773 5.859306335449219 53.56848526000977 C 7.692520141601563 57.90268707275391 10.31755828857422 61.79583740234375 13.6614990234375 65.1397705078125 C 17.00543594360352 68.48371124267578 20.89858627319336 71.10874938964844 25.23278427124023 72.94196319580078 C 29.71850967407227 74.83925628662109 34.48526000976563 75.80126953125 39.400634765625 75.80126953125 C 44.31600952148438 75.80126953125 49.08275985717773 74.83925628662109 53.56848526000977 72.94196319580078 C 57.90268707275391 71.10874938964844 61.79583740234375 68.48371124267578 65.1397705078125 65.1397705078125 C 68.48371124267578 61.79583740234375 71.10874938964844 57.90268707275391 72.94196319580078 53.56848526000977 C 74.83925628662109 49.08275985717773 75.80126953125 44.31600952148438 75.80126953125 39.400634765625 C 75.80126953125 34.48526000976563 74.83925628662109 29.71850967407227 72.94196319580078 25.23278427124023 C 71.10874938964844 20.89858627319336 68.48371124267578 17.00543594360352 65.1397705078125 13.6614990234375 C 61.79583740234375 10.31755828857422 57.90268707275391 7.692520141601563 53.56848526000977 5.859306335449219 C 49.08275985717773 3.962013244628906 44.31600952148438 3 39.400634765625 3 M 39.400634765625 0 C 61.16099548339844 0 78.80126953125 17.6402587890625 78.80126953125 39.400634765625 C 78.80126953125 61.16099548339844 61.16099548339844 78.80126953125 39.400634765625 78.80126953125 C 17.6402587890625 78.80126953125 0 61.16099548339844 0 39.400634765625 C 0 17.6402587890625 17.6402587890625 0 39.400634765625 0 Z" stroke="none" fill="#76b1af"/>
        </g>
        <g id="user_7_" data-name="user (7)" transform="translate(83.717 130.235)">
          <g id="Group_1057" data-name="Group 1057" transform="translate(0)">
            <path id="Path_2330" data-name="Path 2330" d="M26.089,19.759a15.224,15.224,0,0,0-5.807-3.643,8.835,8.835,0,1,0-10,0A15.307,15.307,0,0,0,0,30.565H2.388a12.895,12.895,0,1,1,25.789,0h2.388A15.183,15.183,0,0,0,26.089,19.759ZM15.282,15.282A6.447,6.447,0,1,1,21.73,8.835,6.455,6.455,0,0,1,15.282,15.282Z" transform="translate(0)" fill="#fff"/>
          </g>
        </g>
      </g>
      <line id="Line_18" data-name="Line 18" y2="119" transform="translate(86.5 16.018)" fill="none" stroke="#fff" stroke-width="2" stroke-dasharray="5"/>
      <line id="Line_19" data-name="Line 19" x1="55" transform="translate(62.5 76.018)" fill="none" stroke="#fff" stroke-width="2" stroke-dasharray="5"/>
      <line id="Line_20" data-name="Line 20" x1="31" transform="translate(86.5 16.018)" fill="none" stroke="#fff" stroke-width="2" stroke-dasharray="5"/>
      <line id="Line_21" data-name="Line 21" x1="32" transform="translate(85.5 135.018)" fill="none" stroke="#fff" stroke-width="2" stroke-dasharray="5"/>
      <g id="Group_660" data-name="Group 660" transform="translate(122 64)">
        <rect id="Rectangle_656-3" data-name="Rectangle 656-3" width="42" height="42" rx="4" transform="translate(0 50.79)" fill="#fff"/>
        <g id="contacts" transform="translate(10.815 59.508)">
          <path id="Path_2333" data-name="Path 2333" d="M19.262,0H2.508a.7.7,0,0,0-.7.7V2.98H.7a.7.7,0,0,0,0,1.407H1.8V6.31H.7a.7.7,0,0,0,0,1.407H1.8V9.641H.7a.7.7,0,1,0,0,1.407H1.8v1.923H.7a.7.7,0,0,0,0,1.407H1.8V16.3H.7a.7.7,0,0,0,0,1.407H1.8V19.63H.7a.7.7,0,0,0,0,1.407H1.8v2.277a.7.7,0,0,0,.7.7H19.262a.7.7,0,0,0,.7-.7V.7a.7.7,0,0,0-.7-.7Zm-.7,22.611H3.212V21.038h.854a.7.7,0,1,0,0-1.407H3.212V17.708h.854a.7.7,0,1,0,0-1.407H3.212V14.378h.854a.7.7,0,1,0,0-1.407H3.212V11.048h.854a.7.7,0,0,0,0-1.407H3.212V7.718h.854a.7.7,0,0,0,0-1.407H3.212V4.388h.854a.7.7,0,1,0,0-1.407H3.212V1.407H18.558Zm0,0" transform="translate(0)" fill="#d19426"/>
          <path id="Path_2334" data-name="Path 2334" d="M138.953,76.624a4.538,4.538,0,0,0,3.217,1.988,2.185,2.185,0,0,0,.658-.1l.04-.014,1.271-.4a1.656,1.656,0,0,0,1.084-2.077l-.86-2.732a1.66,1.66,0,0,0-2.078-1.083l-1.3.41c-.062,0-.339-.112-.734-.627a7.755,7.755,0,0,1-1.4-4.432,1.475,1.475,0,0,1,.242-.933h0l1.3-.408a1.656,1.656,0,0,0,1.084-2.077l-.86-2.733a1.659,1.659,0,0,0-2.078-1.083l-1.312.412-.013,0c-1.177.378-1.917,1.712-2.084,3.759a19.274,19.274,0,0,0,3.817,12.127Zm-2.414-12.013c.115-1.4.532-2.352,1.117-2.535l.011,0,1.3-.408a.25.25,0,0,1,.314.163l.86,2.733a.249.249,0,0,1-.163.312l-1.311.412-.016.005c-.4.132-1.073.569-1.191,2.014A8.98,8.98,0,0,0,139.25,73c.937,1.132,1.747,1.091,2.146.966l1.312-.412a.25.25,0,0,1,.314.163l.86,2.732a.249.249,0,0,1-.163.312l-1.311.412-.028.01c-1.129.3-3.56-2.08-5.02-6.716a15.987,15.987,0,0,1-.819-5.85Zm0,0" transform="translate(-128.762 -57.419)" fill="#d19426"/>
        </g>
      </g>
    </g>
  </g>
</svg>
