<!--
 * Copyright (c) 2021, WSO2 Inc. (http://www.wso2.com). All Rights Reserved.
 *
 * This software is the property of WSO2 Inc. and its suppliers, if any.
 * Dissemination of any information or reproduction of any material contained
 * herein in any form is strictly forbidden, unless permitted by WSO2 expressly.
 * You may not alter or remove any copyright or other notice from copies of this content."
-->

<svg xmlns="http://www.w3.org/2000/svg" width="429" height="225.714" viewBox="0 0 429 225.714">
    <g id="user-attributes-illustration" transform="translate(158 26.484)">
        <path id="Subtraction_14" data-name="Subtraction 14"
              d="M-8510.531-493.541a42.305,42.305,0,0,1-23.037-6.811,42.291,42.291,0,0,1-15.657-18.285,42.036,42.036,0,0,1-3.681-18.136,42.543,42.543,0,0,1,1.169-9.074,42.521,42.521,0,0,1,3.1-8.638h142.247a42.291,42.291,0,0,1-7.443,22.533,42.377,42.377,0,0,1-34.912,18.357,42.371,42.371,0,0,1-11.454-1.581l-.394-.12a15.345,15.345,0,0,0-4.3-.617,15.458,15.458,0,0,0-12.135,5.949,42.36,42.36,0,0,1-6.5,6.721,42.351,42.351,0,0,1-7.722,5.079,42.407,42.407,0,0,1-8.641,3.279,42.353,42.353,0,0,1-9.259,1.326h.011C-8509.631-493.547-8510.1-493.541-8510.531-493.541Z"
              transform="translate(8677.394 528)" fill="#eaeef1" opacity="0.18"/>
        <path id="Subtraction_13" data-name="Subtraction 13"
              d="M-8434.907-622.632H-8581.4a42.182,42.182,0,0,1-3.361-12.578,42.489,42.489,0,0,1,.578-12.814,42.365,42.365,0,0,1,4.41-12.116,42.281,42.281,0,0,1,8.13-10.485,43.083,43.083,0,0,1,29.008-11.2,42.989,42.989,0,0,1,29.844,11.972c.2.2.426.425.683.69a34.8,34.8,0,0,0,24.623,10.3,34.7,34.7,0,0,0,4.927-.353,42.62,42.62,0,0,1,5.63-.375,42.342,42.342,0,0,1,22.212,6.3A42.314,42.314,0,0,1-8439-636.1a42.278,42.278,0,0,1,4.095,13.462Z"
              transform="translate(8535.301 821.861)" fill="#eaeef1" opacity="0.18"/>
        <path id="Path_96"
              d="M68.829,419.922a.926.926,0,0,1-.653-.27l-2.024-2.024a.925.925,0,0,1,0-1.307l2.024-2.024a.925.925,0,0,1,1.307,0l2.024,2.024a.925.925,0,0,1,0,1.307l-2.024,2.032a.926.926,0,0,1-.654.262Zm-.72-2.952.72.72.72-.72-.72-.717Z"
              transform="translate(-223.882 -347.62)" fill="rgba(96,210,250,0.7)"/>
        <path id="Path_95"
              d="M424.528,167.037a.925.925,0,0,1-.925-.925A1.113,1.113,0,0,0,422.49,165a.926.926,0,0,1,0-1.851,1.113,1.113,0,0,0,1.113-1.113.926.926,0,1,1,1.851,0,1.113,1.113,0,0,0,1.113,1.113.926.926,0,0,1,0,1.851,1.113,1.113,0,0,0-1.113,1.113.925.925,0,0,1-.925.925Z"
              transform="translate(-527.811 -18.821)" fill="#ffe783"/>
        <path id="Path_95-2" data-name="Path_95"
              d="M424.528,167.037a.925.925,0,0,1-.925-.925A1.113,1.113,0,0,0,422.49,165a.926.926,0,0,1,0-1.851,1.113,1.113,0,0,0,1.113-1.113.926.926,0,1,1,1.851,0,1.113,1.113,0,0,0,1.113,1.113.926.926,0,0,1,0,1.851,1.113,1.113,0,0,0-1.113,1.113.925.925,0,0,1-.925.925Z"
              transform="translate(-423.559 -167.608)" fill="#ffe783"/>
        <path id="padlock"
              d="M70.978,3.726V2.968a2.968,2.968,0,0,0-5.935,0v.758a1.183,1.183,0,0,0-.593,1.022V8.309A1.188,1.188,0,0,0,65.637,9.5h4.748a1.188,1.188,0,0,0,1.187-1.187V4.748a1.183,1.183,0,0,0-.593-1.022ZM68.006,1.187a1.782,1.782,0,0,1,1.78,1.78v.593H66.221V2.968A1.782,1.782,0,0,1,68,1.187Zm.593,5.7v.825H67.413V6.891a.891.891,0,1,1,1.187,0Z"
              transform="translate(-60.905 120.875)" fill="#3ad29f" opacity="0.55"/>
        <path id="Path_96-2" data-name="Path_96"
              d="M68.829,419.922a.926.926,0,0,1-.653-.27l-2.024-2.024a.925.925,0,0,1,0-1.307l2.024-2.024a.925.925,0,0,1,1.307,0l2.024,2.024a.925.925,0,0,1,0,1.307l-2.024,2.032a.926.926,0,0,1-.654.262Zm-.72-2.952.72.72.72-.72-.72-.717Z"
              transform="translate(-138.861 -380.009)" fill="rgba(96,210,250,0.7)"/>
        <path id="Path_95-3" data-name="Path_95"
              d="M424.528,167.037a.925.925,0,0,1-.925-.925A1.113,1.113,0,0,0,422.49,165a.926.926,0,0,1,0-1.851,1.113,1.113,0,0,0,1.113-1.113.926.926,0,1,1,1.851,0,1.113,1.113,0,0,0,1.113,1.113.926.926,0,0,1,0,1.851,1.113,1.113,0,0,0-1.113,1.113.925.925,0,0,1-.925.925Z"
              transform="translate(-221.127 -144.329)" fill="#ffe783"/>
        <path id="Path_96-3" data-name="Path_96"
              d="M68.829,419.922a.926.926,0,0,1-.653-.27l-2.024-2.024a.925.925,0,0,1,0-1.307l2.024-2.024a.925.925,0,0,1,1.307,0l2.024,2.024a.925.925,0,0,1,0,1.307l-2.024,2.032a.926.926,0,0,1-.654.262Zm-.72-2.952.72.72.72-.72-.72-.717Z"
              transform="translate(140.495 -276.769)" fill="rgba(96,210,250,0.7)"/>
        <path id="Path_95-4" data-name="Path_95"
              d="M424.528,167.037a.925.925,0,0,1-.925-.925A1.113,1.113,0,0,0,422.49,165a.926.926,0,0,1,0-1.851,1.113,1.113,0,0,0,1.113-1.113.926.926,0,1,1,1.851,0,1.113,1.113,0,0,0,1.113,1.113.926.926,0,0,1,0,1.851,1.113,1.113,0,0,0-1.113,1.113.925.925,0,0,1-.925.925Z"
              transform="translate(-183.677 11.544)" fill="#ffe783"/>
        <path id="padlock-2" data-name="padlock"
              d="M68.059,2.2V1.751a1.645,1.645,0,1,0-3.281,0V2.2a.709.709,0,0,0-.328.607V4.9a.68.68,0,0,0,.657.7h2.626a.68.68,0,0,0,.657-.7V2.8a.709.709,0,0,0-.328-.607ZM66.416.7A1.02,1.02,0,0,1,67.4,1.751V2.1H65.43v-.35A1.02,1.02,0,0,1,66.414.7Zm.328,3.365v.489h-.656V4.066a.55.55,0,0,1-.132-.579.482.482,0,0,1,.92,0,.55.55,0,0,1-.132.579Z"
              transform="translate(171.891 60.146)" fill="#3ad29f" opacity="0.55"/>
        <g id="Group_1063" data-name="Group 1063" transform="translate(-12.148 4.158)">
            <g id="Group_657" data-name="Group 657" transform="translate(139.577 0)">
                <rect id="Rectangle_656" data-name="Rectangle 656" width="42.511" height="42.511" rx="4" fill="#fff"/>
                <g id="mail_1_" data-name="mail (1)" transform="translate(10.078 9.047)">
                    <g id="Group_1059" data-name="Group 1059" transform="translate(5.846 2.927)">
                        <g id="Group_1058" data-name="Group 1058" transform="translate(0)">
                            <path id="Path_2335" data-name="Path 2335"
                                  d="M156.122,60a5.121,5.121,0,0,0-2.757,9.437,5.228,5.228,0,0,0,5.094.278.732.732,0,0,0-.607-1.329,3.791,3.791,0,0,1-3.692-.181,3.658,3.658,0,1,1,5.626-3.083.732.732,0,1,1-1.464.011v-.011a2.2,2.2,0,1,0-.732,1.635,2.193,2.193,0,0,0,3.659-1.635A5.128,5.128,0,0,0,156.122,60Zm.722,5.239a.73.73,0,1,1,.005-.2.733.733,0,0,0-.005.2Z"
                                  transform="translate(-150.997 -60)" fill="#232323"/>
                        </g>
                    </g>
                    <g id="Group_1061" data-name="Group 1061" transform="translate(0 0)">
                        <g id="Group_1060" data-name="Group 1060" transform="translate(0)">
                            <path id="Path_2336" data-name="Path 2336"
                                  d="M52.951,9.608a.737.737,0,0,0-.215-.516L50.029,6.377V.732A.732.732,0,0,0,49.293,0H34.659a.732.732,0,0,0-.732.732V6.377L31.215,9.089l-.007.008a.735.735,0,0,0-.2.506h0V22.78a2.2,2.2,0,0,0,2.2,2.2H50.761a2.2,2.2,0,0,0,2.2-2.2V9.609ZM50.029,8.449l1.16,1.16-1.16,1.161ZM35.39,6.68h0V1.464H48.561V6.68h0v5.551L44.6,16.195H39.351L35.39,12.233ZM33.927,8.449V10.77L32.766,9.609ZM32.464,22.477v-11.1l5.551,5.551ZM33.5,23.511l5.853-5.853H44.6l5.853,5.853Zm17.989-1.034-5.551-5.551,5.551-5.551Z"
                                  transform="translate(-31.005 0)" fill="#232323"/>
                        </g>
                    </g>
                </g>
            </g>
            <g id="Group_659" data-name="Group 659" transform="translate(139.577 60.73)">
                <rect id="Rectangle_656-2" data-name="Rectangle 656-2" width="42.511" height="42.511" rx="4"
                      transform="translate(0 0)" fill="#fff"/>
                <g id="map" transform="translate(8.807 7.569)">
                    <path id="Path_2331" data-name="Path 2331"
                          d="M22.242,15.772H16.31L19.4,10.843a7.074,7.074,0,1,0-11.976,0l3.091,4.931H4.581L0,26.828H26.822ZM18.211,22.06h4.935l1.325,3.2H18.618Zm-1.177,3.2H9.781l.4-3.2h6.446ZM22.5,20.488H18.015l-.4-3.144h3.582ZM7.91,7.074a5.5,5.5,0,1,1,10.158,2.935l-4.656,7.43L8.756,10.007a5.486,5.486,0,0,1-.844-2.935Zm5.5,13.322,1.913-3.052h.7l.4,3.144H10.375l.391-3.144H11.5ZM5.632,17.344h3.55l-.391,3.144H4.329ZM3.677,22.06H8.6l-.4,3.2H2.353Zm0,0"
                          transform="translate(0 -0.003)" fill="#232323"/>
                    <path id="Path_2332" data-name="Path 2332"
                          d="M188.812,63.93a3.93,3.93,0,1,0-3.93,3.93,3.93,3.93,0,0,0,3.93-3.93Zm-6.288,0a2.358,2.358,0,1,1,2.358,2.358,2.358,2.358,0,0,1-2.358-2.358Zm0,0"
                          transform="translate(-171.471 -56.859)" fill="#232323"/>
                </g>
            </g>
            <g id="Group_1062" data-name="Group 1062" transform="translate(0 42.336)">
                <g id="Path_2329" data-name="Path 2329">
                    <path id="Path_18" data-name="Path 18"
                          d="M39.861,78.223A38.372,38.372,0,0,1,24.93,4.514,38.372,38.372,0,0,1,54.793,75.209,38.12,38.12,0,0,1,39.861,78.223Z"
                          transform="translate(0.018 0.018)" fill="#303030"/>
                    <path id="Path_19" data-name="Path 19"
                          d="M39.88,3.036A36.854,36.854,0,0,0,25.54,73.829a36.854,36.854,0,0,0,28.68-67.9A36.61,36.61,0,0,0,39.88,3.036M39.88,0A39.88,39.88,0,1,1,0,39.88,39.88,39.88,0,0,1,39.88,0Z"
                          fill="#76b1af"/>
                </g>
                <g id="user_7_" data-name="user (7)" transform="translate(24.916 24.914)">
                    <g id="Group_1057" data-name="Group 1057" transform="translate(0 0)">
                        <path id="Path_2330" data-name="Path 2330"
                              d="M26.406,20a15.409,15.409,0,0,0-5.878-3.687,8.942,8.942,0,1,0-10.122,0A15.493,15.493,0,0,0,0,30.937H2.417a13.052,13.052,0,1,1,26.1,0h2.417A15.368,15.368,0,0,0,26.406,20ZM15.468,15.468a6.525,6.525,0,1,1,6.526-6.526,6.525,6.525,0,0,1-6.526,6.526Z"
                              transform="translate(0 0.003)" fill="#fff"/>
                    </g>
                </g>
            </g>
            <line id="Line_18" data-name="Line 18" y2="120.447" transform="translate(103.645 21.486)" fill="none"
                  stroke="#fff" stroke-width="2" stroke-dasharray="5"/>
            <line id="Line_19" data-name="Line 19" x1="55.669" transform="translate(79.353 82.216)" fill="none"
                  stroke="#fff" stroke-width="2" stroke-dasharray="5"/>
            <line id="Line_20" data-name="Line 20" x1="31.377" transform="translate(103.645 21.486)" fill="none"
                  stroke="#fff" stroke-width="2" stroke-dasharray="5"/>
            <line id="Line_21" data-name="Line 21" x1="32.389" transform="translate(102.633 141.933)" fill="none"
                  stroke="#fff" stroke-width="2" stroke-dasharray="5"/>
            <g id="Group_660" data-name="Group 660" transform="translate(139.577 121.459)">
                <rect id="Rectangle_656-3" data-name="Rectangle 656-3" width="42.511" height="42.511" rx="4"
                      transform="translate(0 0)" fill="#fff"/>
                <g id="contacts" transform="translate(10.943 8.824)">
                    <path id="Path_2333" data-name="Path 2333"
                          d="M19.5,0H2.539A.709.709,0,0,0,1.83.709V3.016H.709a.712.712,0,0,0,0,1.424H1.822V6.387H.709a.712.712,0,0,0,0,1.424H1.822V9.758H.709a.712.712,0,0,0,0,1.424H1.822v1.946H.709a.712.712,0,1,0,0,1.424H1.822V16.5H.709a.712.712,0,0,0,0,1.424H1.822v1.946H.709a.712.712,0,1,0,0,1.424H1.822v2.3a.709.709,0,0,0,.709.709H19.5A.709.709,0,0,0,20.2,23.6V.709A.709.709,0,0,0,19.5,0Zm-.709,22.886H3.251V21.294h.864a.712.712,0,1,0,0-1.424H3.251V17.923h.864a.712.712,0,1,0,0-1.424H3.251V14.553h.864a.712.712,0,1,0,0-1.424H3.251V11.182h.864a.712.712,0,1,0,0-1.424H3.251V7.812h.864a.712.712,0,1,0,0-1.424H3.251V4.441h.864a.712.712,0,1,0,0-1.424H3.251V1.424H18.784Zm0,0"
                          transform="translate(0.004)" fill="#232323"/>
                    <path id="Path_2334" data-name="Path 2334"
                          d="M139,76.823a4.593,4.593,0,0,0,3.256,2.012,2.211,2.211,0,0,0,.666-.1l.04-.014,1.286-.4a1.676,1.676,0,0,0,1.1-2.1l-.87-2.765a1.68,1.68,0,0,0-2.1-1.1l-1.316.415c-.063,0-.343-.113-.743-.635a7.849,7.849,0,0,1-1.417-4.486,1.493,1.493,0,0,1,.245-.944h0l1.316-.413a1.676,1.676,0,0,0,1.1-2.1l-.87-2.766a1.679,1.679,0,0,0-2.1-1.1l-1.328.417h-.013c-1.191.383-1.94,1.733-2.109,3.8a19.508,19.508,0,0,0,3.863,12.274Zm-2.443-12.159c.116-1.417.538-2.381,1.131-2.566h.011l1.316-.413a.253.253,0,0,1,.318.165l.87,2.766a.252.252,0,0,1-.165.316l-1.327.417-.016.005c-.4.134-1.086.576-1.205,2.038a9.089,9.089,0,0,0,1.812,5.762c.948,1.146,1.768,1.1,2.172.978l1.328-.417a.253.253,0,0,1,.318.165l.87,2.765a.252.252,0,0,1-.165.316l-1.327.417-.028.01c-1.143.3-3.6-2.105-5.081-6.8a16.182,16.182,0,0,1-.829-5.921Zm0,0"
                          transform="translate(-128.681 -57.385)" fill="#232323"/>
                </g>
            </g>
        </g>
    </g>
</svg>
