<!--
 * Copyright (c) 2021, WSO2 Inc. (http://www.wso2.com). All Rights Reserved.
 *
 * This software is the property of WSO2 Inc. and its suppliers, if any.
 * Dissemination of any information or reproduction of any material contained
 * herein in any form is strictly forbidden, unless permitted by WSO2 expressly.
 * You may not alter or remove any copyright or other notice from copies of this content."
-->

<svg xmlns="http://www.w3.org/2000/svg" width="522.17" height="396.877" viewBox="0 0 522.17 396.877">
  <g id="illustration-2" transform="translate(37.69 561.605)">
    <path id="Subtraction_27" data-name="Subtraction 27" d="M328.472,395.1h-.009c-2.929,0-6.068-.065-9.333-.193a107.756,107.756,0,0,1-14.741-24.563,100.44,100.44,0,0,1-7.4-26.85,89.893,89.893,0,0,1,9.6-53.976,88.4,88.4,0,0,1,13.842-19.262,90.9,90.9,0,0,1,18.019-14.675,97.273,97.273,0,0,1,21.178-9.828,104.2,104.2,0,0,1,23.32-4.722l.02.128.208,1.32v.005l.039.246,0,.025.019.121,0,.009,0,.018c4.474,28.3,9.1,57.561,9.433,82.453.18,13.435-.885,24.4-3.255,33.525a58.39,58.39,0,0,1-5.062,13.2,38.446,38.446,0,0,1-7.9,10.209c-5.113,4.654-11.749,7.936-20.287,10.034C348.6,394.19,339.534,395.1,328.472,395.1Zm-15.929-.522h0c-13.5-.81-28-2.442-43.352-4.169l-.028,0-.041,0c-20.169-2.268-41.025-4.614-61.855-5.352-3.312-.121-6.6-.2-10.037-.247.021-1.466.008-2.969-.039-4.469a120.9,120.9,0,0,0-4.233-27.443A167.15,167.15,0,0,0,182.185,324.2a220.788,220.788,0,0,0-16.9-29.072,273.217,273.217,0,0,0-22.612-28.6A330.854,330.854,0,0,0,81.958,214.2,330.89,330.89,0,0,0,10.692,177.5c-1.519-.554-3.02-1.088-4.461-1.588a332.107,332.107,0,0,1,10.238-46.1c2.085-6.869,4.411-13.519,6.915-19.766A203.005,203.005,0,0,1,31.9,91.5,173.352,173.352,0,0,1,42.169,74.331,154.4,154.4,0,0,1,54.36,58.69,162.782,162.782,0,0,1,92.353,27.68c3.975-2.374,8.1-4.632,12.264-6.71a117.652,117.652,0,0,0,7.69,20.484,139.229,139.229,0,0,0,12.28,20.567,159.839,159.839,0,0,0,16.379,19.308,181.837,181.837,0,0,0,43.855,32.351,181.841,181.841,0,0,0,51.345,18.267,159.809,159.809,0,0,0,25.166,2.782c1.4.041,2.833.062,4.262.062a137.728,137.728,0,0,0,19.655-1.382,117.322,117.322,0,0,0,21.985-5.324,97.376,97.376,0,0,0,19.369-9.228,82.732,82.732,0,0,0,16.07-13.034A76.371,76.371,0,0,0,352.7,92.714c.38.855.757,1.727,1.123,2.592A211.417,211.417,0,0,1,363.9,125.924c5.459,21.5,8.839,45.351,12.418,70.6v.011l.006.046,0,.014.012.083,0,.033,0,.02,0,.012c1.187,8.384,2.415,17.053,3.775,26.012.562,3.728,1.215,7.947,2.053,13.28a110.144,110.144,0,0,0-17.588,3.021,104.784,104.784,0,0,0-19.02,6.9,99.035,99.035,0,0,0-17.131,10.419,93.808,93.808,0,0,0-37.1,69.767,99.152,99.152,0,0,0,.941,20.028,104.921,104.921,0,0,0,4.916,19.627,110.306,110.306,0,0,0,8.686,18.655,114.162,114.162,0,0,0,6.662,10.116ZM103.875,387.4c-15.58,0-27.66-.947-38.017-2.979-12.2-2.4-21.955-6.332-29.812-12.034a60.066,60.066,0,0,1-11.8-11.443,80.349,80.349,0,0,1-9.12-14.765,117.2,117.2,0,0,1-6.708-17.549,172.882,172.882,0,0,1-4.568-19.8A290.644,290.644,0,0,1,.057,264.649c-.118-6.981-.052-14.414.194-22.092a247.631,247.631,0,0,1,28.771,13.032,241.2,241.2,0,0,1,42.012,28.244,198.982,198.982,0,0,1,31.6,33.2,140.372,140.372,0,0,1,19.527,35.292c4.38,11.979,6.33,23.594,5.794,34.521C118.141,387.231,110.714,387.4,103.875,387.4Zm31.052-.849h0a81.957,81.957,0,0,0-.455-10.35,100.114,100.114,0,0,0-5.134-22.257,133.171,133.171,0,0,0-10.468-22.579,171.172,171.172,0,0,0-15.416-22.234,207.8,207.8,0,0,0-19.978-21.222,247.893,247.893,0,0,0-52.1-36.738A259.058,259.058,0,0,0,.449,237.223c.262-6.248.643-12.741,1.131-19.3.922-12.615,2.176-24.642,3.729-35.744A299,299,0,0,1,42.06,197.672,330.586,330.586,0,0,1,78.651,219.1a323.622,323.622,0,0,1,47.139,38.591,267.063,267.063,0,0,1,35.1,42.614,188,188,0,0,1,21.515,43.426c4.8,14.436,6.944,28.239,6.385,41.026-15.327.049-30.789.752-43.213,1.317h-.045l-.045,0-1.734.079-.033,0h-.032C140.833,386.29,137.88,386.425,134.927,386.554Zm129.545-257.1h0a154.5,154.5,0,0,1-38.317-4.984,176.8,176.8,0,0,1-38.986-15.2,178.761,178.761,0,0,1-28.158-18.536,162.838,162.838,0,0,1-22.661-22.136,139.79,139.79,0,0,1-16.567-24.508A113.014,113.014,0,0,1,109.9,18.431,199.168,199.168,0,0,1,138.65,7.8c.474,1.565.993,3.143,1.543,4.689a110.2,110.2,0,0,0,8.687,18.655,114.43,114.43,0,0,0,12.254,17.114,119.253,119.253,0,0,0,34.4,27.327,119.267,119.267,0,0,0,41.893,13.242,115.46,115.46,0,0,0,13.747.824c2.422,0,4.876-.079,7.294-.235A110.2,110.2,0,0,0,278.8,86.189a104.81,104.81,0,0,0,19.02-6.9,99.038,99.038,0,0,0,17.131-10.418,94.9,94.9,0,0,0,13.933-12.953A129.9,129.9,0,0,1,349.433,85.81l-.041.078-.067.126-.074.14a72.081,72.081,0,0,1-14.331,18.7,82.012,82.012,0,0,1-19.67,13.558,102.154,102.154,0,0,1-23.865,8.255A127.192,127.192,0,0,1,264.472,129.452ZM251.1,84.623h0a111.411,111.411,0,0,1-26.834-3.306,115.806,115.806,0,0,1-26.38-10.142,116.383,116.383,0,0,1-18.923-12.562,112.74,112.74,0,0,1-15.525-15.406,109.127,109.127,0,0,1-11.894-17.595,104.4,104.4,0,0,1-8.028-19.13A202.6,202.6,0,0,1,194.147,0c2.779,0,5.589.06,8.353.179a195.719,195.719,0,0,1,68.027,15.35,181.872,181.872,0,0,1,29.75,16.009,158.1,158.1,0,0,1,25.145,20.723C307.521,72.828,280.432,84.623,251.1,84.623Z" transform="translate(-37.69 -561.605)" fill="#d5def0"/>
    <g id="g12" transform="translate(0 -517.635)">
      <path id="path14" d="M92.718-154.092c17.521-15.357,19.113-40.45,15.921-62.5-.532-3.679-.556-7.618-2.671-10.667s-6.459-4.808-9.595-2.888c-2.6,1.594-3.444,4.917-4.687,7.725a21.733,21.733,0,0,1-7.752,9.23c-2.217,1.48-5.045,2.548-7.508,1.523-3.38-1.406-4.241-5.768-4.624-9.444q-1.069-10.278-2.138-20.556c-.382-3.676-.785-7.429-2.312-10.789s-4.409-6.321-8.011-6.916-7.7,1.9-8.045,5.577a34.149,34.149,0,0,0,.4,4.586c.066,1.536-.458,3.3-1.86,3.887-1.419.593-3-.287-4.221-1.242-4.2-3.291-7.3-7.786-10.23-12.273s-5.8-9.095-9.687-12.762-9-6.347-14.294-6.065S.863-273.513.1-268.2c-.762,5.327,2.84,10.249,6.59,14.079a82.521,82.521,0,0,0,18.87,14.392,6.79,6.79,0,0,1,3.2,2.756c1.068,2.361-.985,5.05-3.314,6.122-2.638,1.213-5.641,1.257-8.468,1.91s-5.792,2.26-6.576,5.086c-1.091,3.921,2.484,7.511,5.859,9.747A70.661,70.661,0,0,0,38.373-204.4c2.811.69,5.751,1.244,8.14,2.9s4.068,4.816,3.037,7.548-4.32,3.937-7.209,3.724-5.592-1.47-8.4-2.19c-5.259-1.349-11.74-.282-14.493,4.438-1.809,3.1-1.556,7.117-.1,10.417a26.958,26.958,0,0,0,6.571,8.466c9.139,8.6,20.341,15.1,32.5,17.871s23.133,2.671,34.3-2.869" transform="translate(0 426.642)" fill="#e7e8e5"/>
      <path id="path16" d="M97.783-135.363A162.234,162.234,0,0,0,88.44-164.98a330.874,330.874,0,0,0-16.977-34l-4.907-8.684c-1.618-2.847-3.221-5.67-4.961-8.333a165.46,165.46,0,0,0-10.872-14.737c-3.685-4.52-7.346-8.674-10.8-12.534s-6.756-7.386-9.9-10.476a131.3,131.3,0,0,0-15.885-13.468c-1.993-1.439-3.575-2.5-4.658-3.21l-1.236-.8a2.736,2.736,0,0,0-.433-.251,2.683,2.683,0,0,0,.4.31l1.2.853c1.056.744,2.613,1.842,4.58,3.311a138.771,138.771,0,0,1,15.7,13.6c3.11,3.1,6.375,6.646,9.813,10.511s7.071,8.036,10.734,12.555a167.212,167.212,0,0,1,10.8,14.7c1.726,2.652,3.313,5.451,4.932,8.306s3.247,5.75,4.9,8.681a339.341,339.341,0,0,1,16.992,33.91,165.082,165.082,0,0,1,9.448,29.47" transform="translate(-2.965 424.287)" fill="#dadbd8"/>
      <path id="path18" d="M93.988-207.173a7.481,7.481,0,0,0,.186-1.607c.081-1.037.148-2.54.2-4.4.116-3.715.1-8.851.063-14.513s.02-10.788.192-14.491c.081-1.852.162-3.35.231-4.384a7.49,7.49,0,0,0,.03-1.618,7.369,7.369,0,0,0-.292,1.591c-.15,1.029-.3,2.527-.446,4.381-.3,3.709-.432,8.852-.393,14.522.052,5.588.1,10.643.135,14.5.006,1.745.009,3.216.011,4.4a7.426,7.426,0,0,0,.079,1.617" transform="translate(-35.553 415.457)" fill="#dadbd8"/>
      <path id="path20" d="M16.473-188.3a10.209,10.209,0,0,0,1.909.018c1.224-.026,2.994-.073,5.183-.061,4.378-.01,10.426.188,17.088.7s12.675,1.252,17.007,1.9c2.17.311,3.918.61,5.128.809a10.14,10.14,0,0,0,1.893.25,10.16,10.16,0,0,0-1.843-.512c-1.2-.28-2.937-.652-5.1-1.027C53.41-187,47.387-187.81,40.7-188.336a167.76,167.76,0,0,0-17.145-.5c-2.2.051-3.969.171-5.192.28a10.118,10.118,0,0,0-1.893.249" transform="translate(-6.247 392.969)" fill="#dadbd8"/>
      <path id="path22" d="M136.595-139.68a2.437,2.437,0,0,0,.26-.611l.62-1.8c.531-1.564,1.239-3.846,2.078-6.677,1.682-5.662,3.76-13.557,5.934-22.3s4.177-16.65,5.739-22.338c.767-2.767,1.4-5.042,1.869-6.734.2-.734.364-1.338.5-1.836a2.464,2.464,0,0,0,.13-.655,2.469,2.469,0,0,0-.261.614l-.619,1.8c-.531,1.563-1.24,3.846-2.079,6.677-1.682,5.662-3.759,13.557-5.934,22.3s-4.177,16.646-5.739,22.337c-.768,2.764-1.4,5.042-1.868,6.732-.2.734-.364,1.34-.5,1.836a2.5,2.5,0,0,0-.129.654" transform="translate(-51.796 398.182)" fill="#dadbd8"/>
      <path id="path24" d="M31.9-122.667a2.516,2.516,0,0,0,.651.189l1.89.41,6.962,1.437c5.878,1.215,13.977,2.985,22.924,4.953S81.4-112.01,87.3-110.918c2.952.547,5.345.967,7,1.223.767.113,1.4.206,1.913.283a2.5,2.5,0,0,0,.675.051,2.6,2.6,0,0,0-.651-.189l-1.89-.409L87.392-111.4c-5.878-1.214-13.978-2.985-22.928-4.955s-17.069-3.667-22.974-4.759c-2.953-.548-5.345-.967-7.006-1.222l-1.913-.283a2.537,2.537,0,0,0-.675-.052" transform="translate(-12.095 367.863)" fill="#dadbd8"/>
      <path id="path26" d="M149.244-517.635l49.714,31.544L178.647-451.56l-50.931-33.509,21.528-32.566" transform="translate(-48.431 517.635)" fill="#e7e8e5"/>
      <path id="path28" d="M212.107-486.091a.652.652,0,0,1-.185.052l-.549.11-2.117.382-7.817,1.332-25.96,4.262-.179.03-.06-.171c-.132-.378-.275-.787-.417-1.2l-8.876-25.67-2.643-7.795q-.441-1.346-.7-2.127l-.171-.556a.653.653,0,0,1-.044-.194.732.732,0,0,1,.086.18c.056.146.126.324.211.543l.774,2.1c.668,1.866,1.612,4.5,2.773,7.75l8.995,25.629c.142.41.285.819.417,1.2l-.238-.142,25.981-4.133,7.838-1.2,2.131-.3.555-.068a.7.7,0,0,1,.191-.01" transform="translate(-61.58 517.635)" fill="#dadbd8"/>
      <path id="path30" d="M127.715-469.8c-.029-.116,6.717-1.9,15.066-3.988s15.144-3.685,15.173-3.57-6.716,1.9-15.068,3.988-15.142,3.685-15.171,3.57" transform="translate(-48.431 502.362)" fill="#dadbd8"/>
      <path id="path32" d="M206.9-429.582c-.118.018-1.258-6.7-2.547-15.014s-2.238-15.063-2.121-15.082,1.257,6.7,2.547,15.016,2.238,15.062,2.121,15.08" transform="translate(-76.685 495.657)" fill="#dadbd8"/>
      <path id="path34" d="M693.5-370.17l47.607-7.741,6.356,32.2-49.422,7.2L693.5-370.17" transform="translate(-262.981 464.65)" fill="#f3f2f1"/>
      <path id="path36" d="M741.1-377.911a3.3,3.3,0,0,1-.354.5l-1.083,1.391-4.052,5.077-13.567,16.746-.113.14-.158-.088-.907-.507-19.4-10.9-5.854-3.346-1.581-.929a3.5,3.5,0,0,1-.537-.349,3.488,3.488,0,0,1,.579.274l1.621.858,5.921,3.226,19.46,10.788.908.507-.272.052,13.668-16.663,4.158-4.991,1.144-1.342a3.5,3.5,0,0,1,.42-.449" transform="translate(-262.981 464.65)" fill="#dadbd8"/>
      <path id="path38" d="M700.81-327.328c-.1-.067,3.047-4.842,7.023-10.663s7.281-10.488,7.38-10.421-3.046,4.841-7.024,10.664-7.281,10.487-7.379,10.42" transform="translate(-265.754 453.464)" fill="#dadbd8"/>
      <path id="path40" d="M768.672-335.752c-.076.092-4.443-3.39-9.755-7.777s-9.558-8.019-9.481-8.11,4.443,3.389,9.755,7.778,9.557,8.018,9.481,8.109" transform="translate(-284.194 454.688)" fill="#dadbd8"/>
      <path id="path42" d="M480.143-442.6l81.4-21.817,16.7,54.858-84.655,21.194L480.143-442.6" transform="translate(-182.075 497.454)" fill="#33535f"/>
      <path id="path44" d="M501.811-364.783c-.1-.056,4.376-8.487,10.006-18.825s10.28-18.678,10.385-18.621-4.375,8.485-10.007,18.827-10.279,18.676-10.385,18.619" transform="translate(-190.291 473.872)" fill="#17282f"/>
      <path id="path46" d="M615.982-390.9c-.066.1-8.254-5.263-18.287-11.976s-18.116-12.238-18.05-12.336,8.253,5.263,18.289,11.978S616.048-391,615.982-390.9" transform="translate(-219.807 478.796)" fill="#17282f"/>
      <path id="path48" d="M480.143-442.6a1.428,1.428,0,0,1,.271.109l.778.362c.7.339,1.7.817,2.97,1.428l10.886,5.325,35.845,17.712.435.217-.277.076,21.5-33.331,6.546-10.059,1.8-2.722.476-.7a1.47,1.47,0,0,1,.175-.231,1.433,1.433,0,0,1-.137.255l-.441.725c-.41.654-.989,1.581-1.729,2.765-1.533,2.414-3.726,5.869-6.432,10.133l-21.394,33.4-.1.163-.173-.086-.435-.216L494.912-435.1l-10.826-5.447-2.934-1.5-.758-.4a1.613,1.613,0,0,1-.252-.149" transform="translate(-182.075 497.454)" fill="#17282f"/>
      <path id="path50" d="M23.949-392.232l79.883,7.988-3.6,54.507-82.569-9.638,6.286-52.857" transform="translate(-6.698 470.081)" fill="#33535f"/>
      <path id="path52" d="M17.663-323.272c-.078-.091,6.751-6.1,15.251-13.411s15.456-13.175,15.533-13.085-6.75,6.094-15.252,13.412S17.74-323.182,17.663-323.272" transform="translate(-6.698 453.978)" fill="#17282f"/>
      <path id="path54" d="M135.895-312.274c-.1.069-5.59-7.466-12.267-16.827s-12.015-17.01-11.918-17.079,5.589,7.464,12.269,16.829,12.013,17.008,11.917,17.077" transform="translate(-42.361 452.618)" fill="#17282f"/>
      <path id="path56" d="M27.789-392.233a1.328,1.328,0,0,1,.205.189l.572.584,2.166,2.271,7.909,8.41,25.973,27.856.315.339-.286-.026,30.389-22.453,9.225-6.754,2.52-1.818.661-.464a1.276,1.276,0,0,1,.234-.146,1.355,1.355,0,0,1-.209.181l-.636.5-2.472,1.882-9.144,6.864L64.9-352.264l-.155.115-.132-.142-.315-.339L38.418-380.572l-7.808-8.5L28.5-391.4l-.54-.613a1.378,1.378,0,0,1-.174-.219" transform="translate(-10.538 470.081)" fill="#17282f"/>
      <path id="path58" d="M709.929-260.32s-7.168-4.655-15.718,12.47-11.76,26.988-11.76,26.988-2.267,3.592-4.741,1.277-5.891-8.912-10.053-7.685c-4.317,1.273-5.7,6.114-4.816,13.2s2.251,22.69,2.369,24.1c.117,1.385-.661,3.433-2.6,2.126s-13.125-13.56-18.622-7.9.211,25,.795,27.126.175,3.04-.833,3.577-4.38-3.937-7.705-7.291-7.768-6.661-10.665-3.132-3.713,18.086,10.329,41.6l7.219,10.47,12.749-.814c27.176-3.405,38.148-13.005,39.146-17.462s-4.343-5.922-9.033-6.478-10.291-.462-10.489-1.586.27-2.01,2.305-2.858,20.794-8.255,21.87-16.068-15.468-9.092-17.69-9.814-1.086-2.6.077-3.357c1.185-.776,14.324-9.3,20.455-12.965s9.095-7.737,7.441-11.922c-1.593-4.036-8.9-2.668-12.244-3.193s-1.91-4.523-1.91-4.523,5.8-8.6,14.033-25.879-.06-20.093-.06-20.093" transform="translate(-236.57 420.277)" fill="#f03d5f"/>
      <path id="path60" d="M708.466-235.283s-.046.128-.152.371l-.488,1.072c-.445.957-1.089,2.336-1.914,4.1-1.666,3.561-4.115,8.7-7.165,15.028-6.1,12.667-14.666,30.093-24.2,49.306s-18.145,36.626-24.312,49.258l-7.286,14.966c-.856,1.751-1.524,3.118-1.987,4.066q-.336.674-.526,1.052c-.122.238-.194.353-.194.353s.046-.128.153-.371l.488-1.071,1.912-4.1c1.666-3.56,4.115-8.694,7.165-15.026,6.1-12.667,14.668-30.095,24.2-49.315s18.141-36.618,24.307-49.249l7.288-14.967,1.986-4.067c.224-.45.4-.8.526-1.053.121-.236.193-.353.193-.353" transform="translate(-242.789 410.564)" fill="#17282f"/>
      <path id="path62" d="M701.514-191.55a3.737,3.737,0,0,1,.335.858c.191.56.442,1.377.742,2.391.6,2.027,1.345,4.85,2.114,7.979.742,3.082,1.415,5.867,1.934,8.02q.351,1.429.6,2.427a3.8,3.8,0,0,1,.18.9,3.742,3.742,0,0,1-.341-.855c-.189-.561-.441-1.379-.731-2.4-.576-2.035-1.288-4.865-2.056-7.995-.765-3.073-1.456-5.854-1.99-8q-.36-1.428-.61-2.424a3.821,3.821,0,0,1-.174-.9" transform="translate(-266.019 393.98)" fill="#17282f"/>
      <path id="path64" d="M712.909-159.511c-.034-.114,5.715-1.919,12.84-4.032s12.928-3.733,12.962-3.618-5.713,1.919-12.84,4.031-12.927,3.733-12.961,3.619" transform="translate(-270.342 384.733)" fill="#17282f"/>
      <path id="path66" d="M687.19-109.037a3.87,3.87,0,0,1,.939-.059l2.552-.017c2.155-.017,5.129-.051,8.41-.205s6.249-.382,8.4-.568l2.543-.216a3.944,3.944,0,0,1,.939-.029,4,4,0,0,1-.92.2c-.594.1-1.459.222-2.53.352-2.142.264-5.115.547-8.406.7s-6.277.14-8.434.08c-1.079-.036-1.951-.074-2.554-.12a3.974,3.974,0,0,1-.934-.109" transform="translate(-260.59 363.111)" fill="#17282f"/>
      <path id="path68" d="M669.576-139.3a3.448,3.448,0,0,1,.509.7c.3.468.733,1.151,1.253,2,1.041,1.7,2.453,4.061,3.99,6.683s2.909,5.009,3.883,6.747c.487.868.874,1.576,1.134,2.07a3.394,3.394,0,0,1,.365.788,3.366,3.366,0,0,1-.51-.7c-.3-.468-.732-1.151-1.252-2-1.04-1.7-2.453-4.061-3.991-6.684s-2.908-5.008-3.882-6.746c-.487-.869-.875-1.577-1.134-2.069a3.364,3.364,0,0,1-.365-.79" transform="translate(-253.909 374.168)" fill="#17282f"/>
      <path id="path70" d="M641.66-101.159a5.64,5.64,0,0,1,.641.909l1.612,2.558c1.346,2.17,3.179,5.183,5.181,8.525s3.8,6.381,5.074,8.591c.6,1.053,1.1,1.935,1.5,2.629a5.425,5.425,0,0,1,.5.994,5.533,5.533,0,0,1-.641-.908l-1.612-2.558c-1.346-2.171-3.179-5.184-5.182-8.526s-3.794-6.38-5.073-8.59l-1.5-2.63a5.381,5.381,0,0,1-.5-.994" transform="translate(-243.323 359.703)" fill="#17282f"/>
      <path id="path72" d="M664.728-64.611a6.338,6.338,0,0,1,1.185-.1l3.236-.138c2.731-.118,6.5-.294,10.66-.6s7.918-.673,10.636-.959l3.221-.333a6.367,6.367,0,0,1,1.189-.074,6.353,6.353,0,0,1-1.166.24c-.755.126-1.851.29-3.207.47-2.713.363-6.474.782-10.641,1.086s-7.946.436-10.682.477c-1.368.016-2.476.017-3.241,0a6.3,6.3,0,0,1-1.189-.066" transform="translate(-252.072 346.685)" fill="#17282f"/>
      <path id="path74" d="M83.768-77.619A18.733,18.733,0,0,0,73.446-72.1c-1.525,1.5-2.961,3.275-3.227,5.394s1.114,4.556,3.243,4.724a5.5,5.5,0,0,0,3.49-1.327c2.493-1.793,4.972-4.194,8.042-4.09,1.751.059,3.521.958,5.189.422a3.957,3.957,0,0,0,2.451-4.086,6.76,6.76,0,0,0-2.463-4.368,7.62,7.62,0,0,0-6.4-2.187" transform="translate(-26.616 350.803)" fill="#f03d5f"/>
      <path id="path76" d="M73.71-61.972c-.082,0-.165,0-.248-.01-1.955-.154-3.276-2.22-3.275-4.2a4.251,4.251,0,0,1,.032-.526c.265-2.119,1.7-3.9,3.227-5.394a18.733,18.733,0,0,1,10.322-5.518,7.655,7.655,0,0,1,1.036-.071,7.65,7.65,0,0,1,5.367,2.258,6.76,6.76,0,0,1,2.463,4.368c.009.11.014.221.013.332a3.912,3.912,0,0,1-2.464,3.754,3.73,3.73,0,0,1-1.156.17c-1.318,0-2.681-.546-4.033-.592-.064,0-.128,0-.192,0-2.982,0-5.409,2.338-7.85,4.094a5.823,5.823,0,0,1-3.242,1.337" transform="translate(-26.616 350.803)" fill="#ba2c42"/>
      <path id="path78" d="M71.79-119.472c0,3.768-4.021,5.343-6.7,4.92s-4.918-2.186-7.027-3.887c-4.818-3.887-9.816-8-12.253-13.695a10.139,10.139,0,0,1-.942-5.4,5.3,5.3,0,0,1,3.149-4.25c2.055-.758,4.323.184,6.235,1.252A43.511,43.511,0,0,1,68.5-127.719c1.735,2.455,3.256,5.24,3.294,8.246" transform="translate(-16.987 375.212)" fill="#f03d5f"/>
      <path id="path80" d="M65.978-114.485a5.681,5.681,0,0,1-.885-.067c-2.676-.424-4.918-2.186-7.027-3.887-4.818-3.887-9.816-8-12.253-13.695a11.2,11.2,0,0,1-1.018-4.346,7.2,7.2,0,0,1,.076-1.054,5.3,5.3,0,0,1,3.149-4.25,4.557,4.557,0,0,1,1.588-.275,10.012,10.012,0,0,1,4.647,1.527A43.511,43.511,0,0,1,68.5-127.719c1.735,2.455,3.257,5.24,3.294,8.246,0,3.37-3.217,4.987-5.812,4.987" transform="translate(-16.987 375.212)" fill="#f46789"/>
      <path id="path82" d="M95.221-126.174a11.23,11.23,0,0,1-7.366-7.456,19.92,19.92,0,0,1-.09-10.783A32.959,32.959,0,0,1,93.024-156a11.686,11.686,0,0,1,3.554-3.516,5.174,5.174,0,0,1,4.824-.328c2.208,1.138,2.835,3.958,3.106,6.427a83.516,83.516,0,0,1,.4,13.11c-.169,3.516-.616,7.183-2.586,10.1s-4.852,4.759-7.588,3.894" transform="translate(-33.016 382.131)" fill="#f03d5f"/>
      <path id="path84" d="M113.537-54.388a6.69,6.69,0,0,1-.966-1.036l-2.5-2.919a55.481,55.481,0,0,0-3.929-4.1,43.422,43.422,0,0,0-5.476-4.252,24.452,24.452,0,0,0-6.213-2.964,12.635,12.635,0,0,0-5.544-.454,11.96,11.96,0,0,0-3.593,1.151,6.744,6.744,0,0,1-1.259.636,6.612,6.612,0,0,1,1.151-.834,10.917,10.917,0,0,1,3.636-1.358,12.622,12.622,0,0,1,5.754.345,23.844,23.844,0,0,1,6.383,2.992,40.55,40.55,0,0,1,5.527,4.349,47.384,47.384,0,0,1,3.876,4.225c1.033,1.261,1.827,2.312,2.367,3.044a6.529,6.529,0,0,1,.79,1.176" transform="translate(-31.874 348.155)" fill="#17282f"/>
      <path id="path86" d="M102.7-77.181a2.75,2.75,0,0,1-.4-.512l-1.064-1.526c-.924-1.324-2.267-3.237-4-5.55C93.8-89.41,88.816-95.647,83-102.265S71.6-114.6,67.4-118.552c-1.04-1-2-1.886-2.856-2.649s-1.576-1.44-2.193-1.962c-.567-.5-1.028-.907-1.4-1.231a2.8,2.8,0,0,1-.462-.46,2.781,2.781,0,0,1,.536.37l1.466,1.149c.64.5,1.392,1.14,2.262,1.891s1.859,1.607,2.92,2.591a211.614,211.614,0,0,1,15.757,16.205c5.828,6.631,10.772,12.923,14.126,17.638,1.689,2.348,2.984,4.3,3.852,5.667l.975,1.588a2.7,2.7,0,0,1,.307.574" transform="translate(-22.94 368.689)" fill="#17282f"/>
      <path id="path88" d="M107.791-97.149a12.378,12.378,0,0,1-1.105-1.6c-.659-1.064-1.556-2.64-2.538-4.653a69.4,69.4,0,0,1-3-7.265,67.966,67.966,0,0,1-2.588-9.276,48.359,48.359,0,0,1-.714-17.423,24.01,24.01,0,0,1,.631-2.959c.114-.43.2-.838.315-1.2l.364-.979a12.347,12.347,0,0,1,.738-1.8,57.849,57.849,0,0,0-1.643,7,50.965,50.965,0,0,0,.876,17.246,72.52,72.52,0,0,0,2.525,9.216c.931,2.791,1.963,5.235,2.871,7.266.929,2.023,1.766,3.62,2.362,4.713a12.632,12.632,0,0,1,.911,1.713" transform="translate(-36.918 376.063)" fill="#17282f"/>
      <path id="path90" d="M445.807-139.116H137.4a12.057,12.057,0,0,1-12.058-12.058V-346.949A12.058,12.058,0,0,1,137.4-359.007h308.4a12.058,12.058,0,0,1,12.057,12.058v195.775a12.058,12.058,0,0,1-12.057,12.058" transform="translate(-47.533 457.482)" fill="#17282f"/>
      <path id="path92" d="M448.473-11.753h-330.8a14.731,14.731,0,0,1-14.731-14.732v-4.508H463.2v4.508a14.732,14.732,0,0,1-14.732,14.732" transform="translate(-39.039 333.095)" fill="#17282f"/>
      <path id="path94" d="M453.461-159.239H139.725v-185.7H453.461v185.7" transform="translate(-52.985 452.145)" fill="#33535f"/>
      <path id="path96" d="M340.362-30.993l4.47,7.112h62.906l4.151-7.112H340.362" transform="translate(-129.069 333.095)" fill="#33535f"/>
      <path id="path98" d="M448.883-155.993H152.843a2.71,2.71,0,0,1-2.71-2.71V-332.1a2.709,2.709,0,0,1,2.709-2.709H448.883a2.708,2.708,0,0,1,2.708,2.709v173.4a2.709,2.709,0,0,1-2.708,2.709" transform="translate(-56.932 448.305)" fill="#e7e8e5"/>
      <path id="path100" d="M451.591-147.99H150.133V-313.7H451.591V-147.99" transform="translate(-56.932 440.301)" fill="#fafaf9"/>
      <path id="path102" d="M187.02-325.154a2.407,2.407,0,0,1-2.408,2.408,2.407,2.407,0,0,1-2.407-2.408,2.407,2.407,0,0,1,2.407-2.407,2.407,2.407,0,0,1,2.408,2.407" transform="translate(-69.094 445.557)" fill="#33535f"/>
      <path id="path104" d="M163.514-325.154a2.407,2.407,0,0,1-2.408,2.408,2.407,2.407,0,0,1-2.407-2.408,2.407,2.407,0,0,1,2.407-2.407,2.407,2.407,0,0,1,2.408,2.407" transform="translate(-60.181 445.557)" fill="#33535f"/>
      <path id="path106" d="M174.8-325.154a2.407,2.407,0,0,1-2.408,2.408,2.408,2.408,0,0,1-2.408-2.408,2.408,2.408,0,0,1,2.408-2.407,2.407,2.407,0,0,1,2.408,2.407" transform="translate(-64.459 445.557)" fill="#33535f"/>
      <path id="path108" d="M455.007-31.125c0,.119-73.8.216-164.823.216-91.051,0-164.838-.1-164.838-.216s73.787-.215,164.838-.215c91.019,0,164.823.1,164.823.215" transform="translate(-47.533 333.227)" fill="#33535f"/>
      <path id="path110" d="M245.809-148.905a42.338,42.338,0,0,1,.2-6.037,42.3,42.3,0,0,1,.632-6.008,42.561,42.561,0,0,1-.2,6.037,42.549,42.549,0,0,1-.632,6.008" transform="translate(-93.193 382.376)" fill="#fafaf9"/>
      <path id="path112" d="M390.982-190.559l2.971-28.988L412.677-190.5ZM283.132-223.335l-.679,30.516-19.024.053Zm164.063,5.841c-16.928-26.186-34.517-55.558-34.517-55.558-15.293-18.661-27.653-25.178-51.759-26.191h0l-46.91-.2c-9.22.515-30.64-4.236-50.489,24.258l-.089-.138s-17.588,29.372-34.517,55.558c-18.981,29.36-7.624,59.851,12.654,61.629,20.507,1.8,33.217,2.345,40.031,2.5l-.324,13.147,108.758-.18-1.112-14.722c10.91-.018,41.114-.12,45.577-.672,20.2-2.5,31.679-30.073,12.7-59.433" transform="translate(-83.126 434.898)" fill="#f03d5f"/>
      <path id="path114" d="M418.568-301.365a4.155,4.155,0,0,1,.009.682,16.913,16.913,0,0,1-.137,1.953,24.785,24.785,0,0,1-.59,3.044,25.615,25.615,0,0,1-1.41,3.86,23.754,23.754,0,0,1-6.518,8.4,21.287,21.287,0,0,1-12.088,4.663,20.065,20.065,0,0,1-12.514-3.293,21.35,21.35,0,0,1-6.974-8.014,21.934,21.934,0,0,1-2.133-6.863,16.642,16.642,0,0,1-.156-1.951,3.961,3.961,0,0,1,0-.682,4.084,4.084,0,0,1,.084.677c.026.444.107,1.1.235,1.931a22.846,22.846,0,0,0,2.239,6.749,21.3,21.3,0,0,0,6.924,7.823,19.809,19.809,0,0,0,12.267,3.193,21.05,21.05,0,0,0,11.866-4.543,23.792,23.792,0,0,0,6.491-8.225,26.372,26.372,0,0,0,1.453-3.794,26.985,26.985,0,0,0,.656-3c.121-.836.195-1.488.216-1.934a3.93,3.93,0,0,1,.078-.678" transform="translate(-142.601 435.623)" fill="#17282f"/>
      <path id="path172" d="M393.357-422.244a3.76,3.76,0,0,0,1.371,3.808,3.762,3.762,0,0,0,4.04.234c2.348-1.362,2.465-4.716,1.838-7.357s-1.7-5.437-.717-7.969c.75-1.938,2.536-3.239,3.9-4.807a11.716,11.716,0,0,0,2.686-10.107,9.849,9.849,0,0,0-7.2-7.351c-3.608-.791-7.923.548-10.712-1.873-2.023-1.755-2.314-4.8-3.923-6.941-2.5-3.322-7.395-3.594-11.475-2.8s-8.19,2.352-12.274,1.578c-3.411-.646-6.3-2.838-9.538-4.1a18.689,18.689,0,0,0-20.507,5.195,18.687,18.687,0,0,0-1.73,21.083,11.626,11.626,0,0,0,5.952,5.257" transform="translate(-123.867 499.989)" fill="#17282f"/>
      <path id="Intersection_7" data-name="Intersection 7" d="M-670.32,19.411c-.544-5.563-1.01-10.433-1.184-12.247,1.225.018,2.331.022,3.3-.032l46.911.2h0q.77.032,1.525.072l.5,9.793c.18,11.809-10.075,21.724-23.471,22.693-.713.052-1.423.077-2.126.077C-658.007,39.963-669.174,31.117-670.32,19.411Z" transform="translate(899.082 128.327)" fill="#ce1d3e" opacity="0.36"/>
      <path id="path174" d="M386.079-334.71h0a20.669,20.669,0,0,1-22.284-18.83c-.558-6.49-1.015-11.956-1.015-11.956s-16.572-1.4-17.923-17.775-1.155-52.053-1.155-52.053l.007-2.158c18.4-9.484,40.607-6.47,57.855,4.978l.213,3.378,3.267,73.546a20.661,20.661,0,0,1-18.965,20.87" transform="translate(-130.331 495.38)" fill="#f8a58d"/>
      <path id="path188" d="M374.37-323.078a38.206,38.206,0,0,0,20.942-7.57s-4.224,12.149-20.682,11.82l-.26-4.25" transform="translate(-141.965 452.728)" fill="#f68260"/>
      <path id="path190" d="M434.649-403.036c.354-.137,12.153-1.771,11.153,12.185s-14.763,8.331-14.758,7.93,3.6-20.114,3.6-20.114" transform="translate(-163.456 474.226)" fill="#f8a58d"/>
      <path id="path192" d="M438.486-384.587c.065-.041.231.188.627.406a2.444,2.444,0,0,0,1.815.167c1.513-.436,2.922-2.688,3.169-5.2a8.051,8.051,0,0,0-.431-3.53,2.815,2.815,0,0,0-1.694-2,1.239,1.239,0,0,0-1.482.564c-.215.377-.147.661-.223.68-.042.033-.283-.255-.129-.823a1.556,1.556,0,0,1,.612-.835,1.837,1.837,0,0,1,1.37-.259,3.427,3.427,0,0,1,2.385,2.346,8.274,8.274,0,0,1,.565,3.95c-.291,2.805-1.919,5.334-3.978,5.773a2.609,2.609,0,0,1-2.2-.529c-.407-.375-.459-.693-.408-.714" transform="translate(-166.273 471.3)" fill="#f68260"/>
      <path id="path198" d="M341.813-429.412s5.726,2.893,18.373-4.02c8.3-4.536,18.081-6.964,20.317-5.345s3.02,10.316,11.492,12.548c0,0,.043,16.647,6.65,15.808s1.506-26.437,1.506-26.437l-15.58-10.368-17.821-2.684-19.441,2.9-5.5,8.235v6.445" transform="translate(-128.59 494.953)" fill="#f68260"/>
      <path id="path198-2" data-name="path198" d="M337.458-430.944s10.082,4.425,22.729-2.487c8.3-4.536,18.081-6.964,20.317-5.345s3.02,10.316,11.492,12.548c0,0,.043,16.647,6.65,15.808s1.506-26.437,1.506-26.437l-15.58-10.368-17.821-2.684-19.441,2.9-10.847,7.139,1,8.929" transform="translate(-127.59 491.953)" fill="#17282f"/>
      <path id="path208" d="M354.012-155.765l69.6,1.2.783,47.356-72.036-2.431,1.657-46.122" transform="translate(-133.617 380.41)" fill="#33535f"/>
      <path id="path210" d="M355.024-172.7l36.026-27.721,33.57,28.918" transform="translate(-134.629 397.343)" fill="#17282f"/>
      <path id="path212" d="M352.355-97.509c-.085-.084,5.634-6.03,12.773-13.278s13-13.062,13.082-12.978-5.634,6.028-12.775,13.281-13,13.059-13.08,12.976" transform="translate(-133.616 368.276)" fill="#17282f"/>
      <path id="path214" d="M454.19-94.346c-.092.077-5.371-6.015-11.791-13.605s-11.553-13.808-11.461-13.886,5.369,6.015,11.791,13.608,11.552,13.806,11.461,13.883" transform="translate(-163.416 367.545)" fill="#17282f"/>
      <path id="path216" d="M424.621-154.568,389-127.509l-33.972-28.256" transform="translate(-134.629 380.41)" fill="#17282f"/>
      <path id="path218" d="M360.567-163.83l.394-20.244h60.981l.122,22.163L391.1-138.61l-30.536-25.22" transform="translate(-136.731 391.145)" fill="#e7e8e5"/>
      <path id="path220" d="M384.667-153.08c-.057.295-.205.444-.442.445a.4.4,0,0,1-.234-.074.511.511,0,0,1-.208-.462l1.091-7.543.024-.161a.4.4,0,0,1,.4-.265l.208.054a.408.408,0,0,1,.227.358q-1.016,7.379-1.069,7.648" transform="translate(-145.534 382.448)" fill="#17282f"/>
      <path id="path222" d="M393.9-152.968c-.042.282-.189.425-.44.425a.557.557,0,0,1-.463-.328l-2.712-6.37q-.057.451-.137,1.007-.592,4.56-.709,5.2c-.055.3-.206.444-.456.444a.425.425,0,0,1-.234-.073.513.513,0,0,1-.21-.464q1.068-7.523,1.075-7.545l.061-.175a.448.448,0,0,1,.409-.221q.358,0,.459.219l2.7,6.234.865-5.989.054-.192a.379.379,0,0,1,.369-.238l.218.062a.422.422,0,0,1,.2.378c-.017.124-.035.257-.055.4q-.869,6.493-1,7.223" transform="translate(-147.337 382.42)" fill="#17282f"/>
      <path id="path224" d="M404.863-159.338a.976.976,0,0,0,.116.488q.334.61,1.491.622a4.475,4.475,0,0,0,.1-.827,1.512,1.512,0,0,0-.066-.47.756.756,0,0,0-.757-.587.966.966,0,0,0-.5.127.72.72,0,0,0-.38.647Zm-2.738-1.64.213.062a.431.431,0,0,1,.219.369q-.24,1.785-.374,2.8-.346,2.54-.351,2.882-.015,1.388.7,1.4a3.024,3.024,0,0,0,2.361-1.226,7.4,7.4,0,0,0,1.367-2.686,2.679,2.679,0,0,1-1.6-.543,1.894,1.894,0,0,1-.686-1.571,1.508,1.508,0,0,1,.559-1.158,1.594,1.594,0,0,1,1.065-.395,1.744,1.744,0,0,1,1.264.509,2.035,2.035,0,0,1,.559,1.518c0,.144-.017.376-.046.7a1.959,1.959,0,0,0,.243-.069,3.664,3.664,0,0,0,.739-.368,1.043,1.043,0,0,1,.517-.194l.171.051a.383.383,0,0,1,.2.358c-.007.226-.189.444-.549.651a4.091,4.091,0,0,1-1.528.478l-.006.01a8.8,8.8,0,0,1-1.55,3.194,4.015,4.015,0,0,1-3.268,1.741,1.377,1.377,0,0,1-.481-.086q-.94-.372-.92-2.227a17.815,17.815,0,0,1,.273-2.6q.268-1.615.322-2.241-.548.34-.867.529a2.388,2.388,0,0,1-.638.342.448.448,0,0,1-.24-.075.434.434,0,0,1-.2-.381.512.512,0,0,1,.267-.416l.044-.026a14.95,14.95,0,0,1,2.225-1.322" transform="translate(-151.528 382.413)" fill="#17282f"/>
      <path id="path226" d="M414.141-152.779c-.057.294-.205.444-.441.445a.408.408,0,0,1-.234-.075.513.513,0,0,1-.208-.464l1.09-7.541.025-.161a.4.4,0,0,1,.4-.266l.209.055a.4.4,0,0,1,.226.357q-1.016,7.38-1.069,7.649" transform="translate(-156.712 382.334)" fill="#17282f"/>
      <path id="path228" d="M424.941-160.293a.352.352,0,0,1-.069.209.464.464,0,0,1-.413.195l-2.507-.025q-.949,6.932-1,7.19l-.012.065a.43.43,0,0,1-.453.378.393.393,0,0,1-.233-.073.518.518,0,0,1-.205-.464q0-.066.715-5c.161-1.116.262-1.818.3-2.11l-2.342-.023a.783.783,0,0,1-.242-.041.362.362,0,0,1-.287-.358.48.48,0,0,1,.069-.241.447.447,0,0,1,.413-.212l5.8.06.164.035a.411.411,0,0,1,.3.411" transform="translate(-158.584 382.319)" fill="#17282f"/>
      <path id="path230" d="M430.127-160.684l3.522.036.2.03a.408.408,0,0,1,.3.426l-.04.166a.53.53,0,0,1-.442.285l-3.16-.032-.43,2.986,2.277.024a.633.633,0,0,1,.247.051.418.418,0,0,1,.263.414l-.029.148a.524.524,0,0,1-.452.292l-2.421-.026-.392,2.8,3.121.031a.715.715,0,0,1,.237.041.418.418,0,0,1,.281.42l-.023.137a.5.5,0,0,1-.454.308l-3.651-.037a.45.45,0,0,1-.247-.074.513.513,0,0,1-.211-.46q0-.077,1.055-7.548l.046-.152a.407.407,0,0,1,.4-.26" transform="translate(-162.539 382.275)" fill="#17282f"/>
      <path id="path232" d="M345.214-128.3s-1.044,10.516,1.5,10.471c4.455-.078,21.524-4.461,22.723-1.178s-4.363,6.368-4.363,6.368,5.452,1.028,2.769,3.867S356.014-91.95,350.132-91.661c-8.462.417-19.36-2.435-19.36-2.435l4.452-30.828,9.991-3.376" transform="translate(-125.432 369.995)" fill="#f8a58d"/>
      <path id="path234" d="M376.5-105.578a3.521,3.521,0,0,1-.724.514c-.479.31-1.191.726-2.087,1.213a52.09,52.09,0,0,1-7.285,3.232,52.251,52.251,0,0,1-7.694,2.081c-1,.186-1.818.311-2.385.372a3.549,3.549,0,0,1-.887.058c-.01-.068,1.231-.282,3.211-.728a67.874,67.874,0,0,0,7.611-2.19,67.765,67.765,0,0,0,7.29-3.095c1.819-.9,2.917-1.516,2.952-1.458" transform="translate(-134.785 361.38)" fill="#f68260"/>
      <path id="path236" d="M376.251-93.625a3.5,3.5,0,0,1-.6.65,21.913,21.913,0,0,1-1.828,1.578,30.982,30.982,0,0,1-6.858,4.048,30.983,30.983,0,0,1-7.665,2.163,22.288,22.288,0,0,1-2.4.231,3.564,3.564,0,0,1-.886-.012c-.006-.076,1.25-.161,3.241-.52a35.618,35.618,0,0,0,7.545-2.257,35.711,35.711,0,0,0,6.844-3.9c1.635-1.192,2.564-2.041,2.616-1.985" transform="translate(-135.001 356.847)" fill="#f68260"/>
      <path id="path238" d="M452.106-128.686s.949,8.778-2.39,9.956c-4.2,1.482-21.524-4.461-22.722-1.178s4.362,6.368,4.362,6.368-5.452,1.027-2.768,3.866S440.421-92.852,446.3-92.562a87.965,87.965,0,0,0,17.33-1.192l-2.421-32.072-9.1-2.859" transform="translate(-161.857 370.141)" fill="#f8a58d"/>
      <path id="path240" d="M430.792-106.8c.035-.059,1.133.556,2.952,1.458a67.778,67.778,0,0,0,7.288,3.095,67.865,67.865,0,0,0,7.613,2.19c1.979.446,3.22.66,3.211.728a3.5,3.5,0,0,1-.886-.058c-.567-.06-1.384-.185-2.386-.372a52.013,52.013,0,0,1-7.694-2.081,52.023,52.023,0,0,1-7.285-3.231c-.9-.488-1.61-.9-2.088-1.214a3.5,3.5,0,0,1-.724-.514" transform="translate(-163.361 361.842)" fill="#f68260"/>
      <path id="path242" d="M432.327-94.842c.05-.054.963.775,2.553,1.96a35.518,35.518,0,0,0,6.652,3.916,33.19,33.19,0,0,0,7.374,2.268c1.95.354,3.182.437,3.177.513a3.369,3.369,0,0,1-.869.014,21.466,21.466,0,0,1-2.357-.227,29.039,29.039,0,0,1-7.5-2.174,30.683,30.683,0,0,1-6.664-4.068,23.3,23.3,0,0,1-1.779-1.561,3.322,3.322,0,0,1-.589-.641" transform="translate(-163.943 357.309)" fill="#f68260"/>
      <path id="Path_1053" data-name="Path 1053" d="M195.2,219.008s5.95-30.1,6.563-37.033-1.749,29.526-1.749,29.526Z" fill="#e43153"/>
      <path id="Path_1054" data-name="Path 1054" d="M180.334,242h-18.3s11.169-1.441,14.786-2.814,7.171-2.856,7.171-2.856Z" fill="#e43153"/>
      <path id="Path_1055" data-name="Path 1055" d="M329.527,244.411l20.57.515s-15.723-1.217-17.407-1.432A4.846,4.846,0,0,0,329.527,244.411Z" fill="#e43153"/>
      <path id="Path_1056" data-name="Path 1056" d="M329.645,244.406s7.559-4.771,12.938-5.434a54,54,0,0,1,5.678-.594s-4.634-.1-9.739.161a23.534,23.534,0,0,0-6.478,1.442c-4.624,1.6-4,2.036-4,2.036Z" fill="#e43153"/>
    </g>
    <path id="path346" d="M550.677-88.392a3.706,3.706,0,0,1-3.705-3.706,3.705,3.705,0,0,1,3.705-3.7,3.705,3.705,0,0,1,3.7,3.7A3.706,3.706,0,0,1,550.677-88.392ZM530.09-105.137h-6.441a4.681,4.681,0,0,0-4.668,4.667h0a4.683,4.683,0,0,0,4.668,4.669h17.016a3.716,3.716,0,0,1,3.7,3.7h0a3.717,3.717,0,0,1-3.7,3.706H91.128A3.717,3.717,0,0,1,87.423-92.1h0a3.717,3.717,0,0,1,3.705-3.7h23.336a4.682,4.682,0,0,0,4.668-4.669h0a4.68,4.68,0,0,0-4.668-4.667H109a7.431,7.431,0,0,1-7.409-7.41h0a7.432,7.432,0,0,1,7.409-7.41H530.09a7.433,7.433,0,0,1,7.409,7.41h0a7.432,7.432,0,0,1-7.409,7.41h0" transform="translate(-78.662 -76.336)" fill="#1b313a" fill-rule="evenodd"/>
  </g>
</svg>
